1600 0 2 0           
10 Cubit 10.2 17 ACIS 16.0.1 Linux 24 Tue Nov 28 14:52:13 2006 
1 9.9999999999999995e-07 1e-10 
body $-1 -1 -1 $-1 $2 $-1 $3 T 0 -4.898425415289509e-16 -4.898425415289509e-16 8 8 8 #
body $-1 -1 -1 $-1 $4 $-1 $5 T 0 -4.898425415289509e-16 -4.898425415289509e-16 10 10 10 #
lump $-1 -1 -1 $-1 $-1 $6 $0 T 0 -4.898425415289509e-16 -4.898425415289509e-16 8 8 8 #
transform $-1 -1 1 0 0 0 1 0 0 0 1 0 0 0 1 no_rotate no_reflect no_shear #
lump $-1 -1 -1 $-1 $-1 $7 $1 T 0 -4.898425415289509e-16 -4.898425415289509e-16 10 10 10 #
transform $-1 -1 1 0 0 0 1 0 0 0 1 0 0 0 1 no_rotate no_reflect no_shear #
shell $-1 -1 -1 $-1 $-1 $-1 $8 $-1 $2 T 0 -4.898425415289509e-16 -4.898425415289509e-16 8 8 8 #
shell $-1 -1 -1 $-1 $-1 $-1 $9 $-1 $4 T 0 -4.898425415289509e-16 -4.898425415289509e-16 10 10 10 #
face $-1 -1 -1 $-1 $10 $11 $6 $-1 $12 forward single T 0 -4.898425415289509e-16 -4.898425415289509e-16 8 8 8 F #
face $-1 -1 -1 $-1 $13 $14 $7 $-1 $15 reversed single T 0 -4.898425415289509e-16 -4.898425415289509e-16 8 8 8 F #
face $-1 -1 -1 $-1 $16 $17 $6 $-1 $18 forward single T 0 -4.898425415289509e-16 0 8 8 0 F #
loop $-1 -1 -1 $-1 $-1 $19 $8 T 0 -4.898425415289509e-16 -4.898425415289509e-16 8 8 8 unknown #
sphere-surface $-1 -1 -1 $-1 0 0 0 8 1 0 0 0 0 1 forward_v I I I I #
face $-1 -1 -1 $-1 $20 $21 $7 $-1 $22 forward single T 0 0 0 10 10 10 F #
loop $-1 -1 -1 $-1 $-1 $23 $9 T 0 -4.898425415289509e-16 -4.898425415289509e-16 8 8 8 unknown #
sphere-surface $-1 -1 -1 $-1 0 0 0 8 1 0 0 0 0 1 forward_v I I I I #
face $-1 -1 -1 $-1 $24 $25 $6 $-1 $26 reversed single T 0 0 0 8 0 8 F #
loop $-1 -1 -1 $-1 $-1 $27 $10 T 0 -4.898425415289509e-16 0 8 8 0 unknown #
plane-surface $-1 -1 -1 $-1 0 0 0 0 0 -1 -1 0 0 forward_v I I I I #
coedge $-1 -1 -1 $-1 $28 $29 $30 $31 forward $11 $-1 #
face $-1 -1 -1 $-1 $32 $33 $7 $-1 $34 forward single T 0 0 10 10 10 10 F #
loop $-1 -1 -1 $-1 $-1 $35 $13 T 0 0 0 10 10 10 unknown #
cone-surface $-1 -1 -1 $-1 0 0 5 0 0 1 10 0 0 1 I I 0 1 10 forward I I I I #
coedge $-1 -1 -1 $-1 $36 $37 $38 $39 reversed $14 $-1 #
face $-1 -1 -1 $-1 $-1 $40 $6 $-1 $41 forward single T 0 0 -4.898425415289509e-16 0 8 8 F #
loop $-1 -1 -1 $-1 $-1 $30 $16 T 0 0 0 8 0 8 unknown #
plane-surface $-1 -1 -1 $-1 -1 0 0 0 1 0 0 0 1 forward_v I I I I #
coedge $-1 -1 -1 $-1 $42 $43 $28 $44 reversed $17 $-1 #
coedge $-1 -1 -1 $-1 $29 $19 $27 $44 forward $11 $-1 #
coedge $-1 -1 -1 $-1 $19 $28 $45 $46 forward $11 $-1 #
coedge $-1 -1 -1 $-1 $47 $48 $19 $31 reversed $25 $-1 #
edge $-1 -1 -1 $-1 $49 0 $50 1.5707963267948966 $30 $51 forward @7 unknown T 0 0 0 8 0 8 #
face $-1 -1 -1 $-1 $52 $53 $7 $-1 $54 forward single T 0 -4.898425415289509e-16 0 10 10 0 F #
loop $-1 -1 -1 $-1 $-1 $55 $20 T 0 0 10 10 10 10 unknown #
plane-surface $-1 -1 -1 $-1 0 0 10 0 0 1 1 0 0 forward_v I I I I #
coedge $-1 -1 -1 $-1 $56 $57 $58 $59 reversed $21 $-1 #
coedge $-1 -1 -1 $-1 $37 $23 $60 $61 reversed $14 $-1 #
coedge $-1 -1 -1 $-1 $23 $36 $62 $63 reversed $14 $-1 #
coedge $-1 -1 -1 $-1 $64 $65 $23 $39 forward $66 $-1 #
edge $-1 -1 -1 $-1 $67 0 $68 1.5707963267948966 $38 $69 forward @7 unknown T 0 0 0 8 0 8 #
loop $-1 -1 -1 $-1 $-1 $45 $24 T 0 0 -4.898425415289509e-16 0 8 8 unknown #
plane-surface $-1 -1 -1 $-1 0 -1 0 -1 0 -0 -0 0 1 forward_v I I I I #
coedge $-1 -1 -1 $-1 $43 $27 $48 $70 reversed $17 $-1 #
coedge $-1 -1 -1 $-1 $27 $42 $71 $72 forward $17 $-1 #
edge $-1 -1 -1 $-1 $50 1.5707963267948966 $73 3.1415926535897931 $27 $74 forward @7 unknown T 0 -4.898425415289509e-16 0 8 8 0 #
coedge $-1 -1 -1 $-1 $71 $75 $29 $46 reversed $40 $-1 #
edge $-1 -1 -1 $-1 $73 1.5707963267948966 $49 3.1415926535897931 $45 $76 forward @7 unknown T 0 0 -4.898425415289509e-16 0 8 8 #
coedge $-1 -1 -1 $-1 $48 $30 $75 $77 forward $25 $-1 #
coedge $-1 -1 -1 $-1 $30 $47 $42 $70 forward $25 $-1 #
vertex $-1 -1 -1 $-1 $77 $78 #
vertex $-1 -1 -1 $-1 $31 $79 #
ellipse-curve $-1 -1 -1 $-1 0 0 0 0 1 0 0 0 8 1 I I #
face $-1 -1 -1 $-1 $80 $66 $7 $-1 $81 reversed single T 0 0 0 10 0 10 F #
loop $-1 -1 -1 $-1 $-1 $62 $32 T 0 -4.898425415289509e-16 0 10 10 0 unknown #
plane-surface $-1 -1 -1 $-1 0 0 0 0 0 -1 -1 0 0 forward_v I I I I #
coedge $-1 -1 -1 $-1 $82 $83 $84 $85 reversed $33 $-1 #
coedge $-1 -1 -1 $-1 $86 $35 $87 $88 reversed $21 $-1 #
coedge $-1 -1 -1 $-1 $35 $86 $82 $89 reversed $21 $-1 #
coedge $-1 -1 -1 $-1 $84 $64 $35 $59 forward $66 $-1 #
edge $-1 -1 -1 $-1 $90 -5 $91 5 $35 $92 forward @7 unknown T 10 0 0 10 0 10 #
coedge $-1 -1 -1 $-1 $93 $94 $36 $61 forward $95 $-1 #
edge $-1 -1 -1 $-1 $96 1.5707963267948966 $67 3.1415926535897931 $60 $97 forward @7 unknown T 0 0 -4.898425415289509e-16 0 8 8 #
coedge $-1 -1 -1 $-1 $98 $99 $37 $63 forward $53 $-1 #
edge $-1 -1 -1 $-1 $68 1.5707963267948966 $96 3.1415926535897931 $62 $100 forward @7 unknown T 0 -4.898425415289509e-16 0 8 8 0 #
coedge $-1 -1 -1 $-1 $58 $38 $99 $101 forward $66 $-1 #
coedge $-1 -1 -1 $-1 $38 $84 $93 $102 forward $66 $-1 #
loop $-1 -1 -1 $-1 $-1 $38 $52 T 0 0 0 10 0 10 unknown #
vertex $-1 -1 -1 $-1 $39 $103 #
vertex $-1 -1 -1 $-1 $39 $104 #
ellipse-curve $-1 -1 -1 $-1 0 0 0 0 1 0 0 0 8 1 I I #
edge $-1 -1 -1 $-1 $105 0.5 $50 8.5 $42 $106 forward @7 unknown T 0 0 0 8 0 0 #
coedge $-1 -1 -1 $-1 $75 $45 $43 $72 reversed $40 $-1 #
edge $-1 -1 -1 $-1 $105 0.5 $73 8.5 $43 $107 forward @7 unknown T 0 0 0 0 8 0 #
vertex $-1 -1 -1 $-1 $46 $108 #
ellipse-curve $-1 -1 -1 $-1 0 0 0 -0 -0 1 0 -8 0 1 I I #
coedge $-1 -1 -1 $-1 $45 $71 $47 $77 reversed $40 $-1 #
ellipse-curve $-1 -1 -1 $-1 0 0 0 1 -0 0 0 0 -8 1 I I #
edge $-1 -1 -1 $-1 $49 -8 $105 0 $75 $109 forward @7 unknown T 0 0 0 0 0 8 #
point $-1 -1 -1 $-1 0 0 8 #
point $-1 -1 -1 $-1 8 0 0 #
face $-1 -1 -1 $-1 $-1 $95 $7 $-1 $110 forward single T 0 0 -4.898425415289509e-16 0 10 10 F #
plane-surface $-1 -1 -1 $-1 -1 0 0 0 1 0 0 0 1 forward_v I I I I #
coedge $-1 -1 -1 $-1 $83 $55 $57 $89 forward $33 $-1 #
coedge $-1 -1 -1 $-1 $55 $82 $111 $112 forward $33 $-1 #
coedge $-1 -1 -1 $-1 $65 $58 $55 $85 forward $66 $-1 #
edge $-1 -1 -1 $-1 $91 -10.5 $113 -0.5 $55 $114 forward @7 unknown T 0 0 10 10 0 10 #
coedge $-1 -1 -1 $-1 $57 $56 $115 $116 forward $21 $-1 #
coedge $-1 -1 -1 $-1 $99 $98 $56 $88 forward $53 $-1 #
edge $-1 -1 -1 $-1 $117 -1.5707963267948966 $90 0 $87 $118 forward @7 unknown T 0 0 0 10 10 0 #
edge $-1 -1 -1 $-1 $91 0 $119 1.5707963267948966 $82 $120 forward @7 unknown T 0 0 10 10 10 10 #
vertex $-1 -1 -1 $-1 $101 $121 #
vertex $-1 -1 -1 $-1 $89 $122 #
straight-curve $-1 -1 -1 $-1 10 0 5 0 0 1 I I #
coedge $-1 -1 -1 $-1 $111 $60 $65 $102 reversed $95 $-1 #
coedge $-1 -1 -1 $-1 $60 $115 $98 $123 reversed $95 $-1 #
loop $-1 -1 -1 $-1 $-1 $60 $80 T 0 0 -4.898425415289509e-16 0 10 10 unknown #
vertex $-1 -1 -1 $-1 $61 $124 #
ellipse-curve $-1 -1 -1 $-1 0 0 0 1 -0 0 0 0 -8 1 I I #
coedge $-1 -1 -1 $-1 $87 $62 $94 $123 forward $53 $-1 #
coedge $-1 -1 -1 $-1 $62 $87 $64 $101 reversed $53 $-1 #
ellipse-curve $-1 -1 -1 $-1 0 0 0 -0 -0 1 0 -8 0 1 I I #
edge $-1 -1 -1 $-1 $68 8.5 $90 10.5 $99 $125 forward @7 unknown T 8 0 0 10 0 0 #
edge $-1 -1 -1 $-1 $113 -10 $67 -8 $93 $126 forward @7 unknown T 0 0 8 0 0 10 #
point $-1 -1 -1 $-1 0 0 8 #
point $-1 -1 -1 $-1 8 0 0 #
vertex $-1 -1 -1 $-1 $72 $127 #
straight-curve $-1 -1 -1 $-1 -0.5 0 0 1 -0 0 I I #
straight-curve $-1 -1 -1 $-1 0 -0.5 0 0 1 0 I I #
point $-1 -1 -1 $-1 0 8 0 #
straight-curve $-1 -1 -1 $-1 0 0 0 0 0 -1 I I #
plane-surface $-1 -1 -1 $-1 0 -1 0 -1 0 -0 -0 0 1 forward_v I I I I #
coedge $-1 -1 -1 $-1 $115 $93 $83 $112 reversed $95 $-1 #
edge $-1 -1 -1 $-1 $119 -10.5 $113 -0.5 $83 $128 forward @7 unknown T 0 0 10 0 10 10 #
vertex $-1 -1 -1 $-1 $102 $129 #
straight-curve $-1 -1 -1 $-1 -0.5 0 10 -1 0 0 I I #
coedge $-1 -1 -1 $-1 $94 $111 $86 $116 reversed $95 $-1 #
edge $-1 -1 -1 $-1 $117 -5 $119 5 $86 $130 forward @7 unknown T 0 10 0 0 10 10 #
vertex $-1 -1 -1 $-1 $88 $131 #
ellipse-curve $-1 -1 -1 $-1 0 0 0 0 0 -1 10 0 0 1 I I #
vertex $-1 -1 -1 $-1 $112 $132 #
ellipse-curve $-1 -1 -1 $-1 0 0 10 0 0 1 10 0 0 1 I I #
point $-1 -1 -1 $-1 10 0 0 #
point $-1 -1 -1 $-1 10 0 10 #
edge $-1 -1 -1 $-1 $96 8.5 $117 10.5 $98 $133 forward @7 unknown T 0 8 0 0 10 0 #
point $-1 -1 -1 $-1 0 8 0 #
straight-curve $-1 -1 -1 $-1 -0.5 0 0 1 -0 0 I I #
straight-curve $-1 -1 -1 $-1 0 0 0 0 0 -1 I I #
point $-1 -1 -1 $-1 0 0 0 #
straight-curve $-1 -1 -1 $-1 0 -0.5 10 -0 -1 0 I I #
point $-1 -1 -1 $-1 0 0 10 #
straight-curve $-1 -1 -1 $-1 0 10 5 0 0 1 I I #
point $-1 -1 -1 $-1 0 10 0 #
point $-1 -1 -1 $-1 0 10 10 #
straight-curve $-1 -1 -1 $-1 0 -0.5 0 0 1 0 I I #
End-of-ACIS-data 