<?xml version="1.0" encoding="UTF-8"?>
<svg data-name="Layer 1" version="1.1" viewBox="0 0 100 100" xmlns="http://www.w3.org/2000/svg" xmlns:cc="http://creativecommons.org/ns#" xmlns:dc="http://purl.org/dc/elements/1.1/" xmlns:rdf="http://www.w3.org/1999/02/22-rdf-syntax-ns#">
 <path d="m52.62 0.09281-0.09692 3.597a46.44 46.44 0 0 1 43.75 49.6l-44.16-34.29-1.165 43.79c-0.07967 8.698 5.95 16.26 14.45 18.12 4.66 1.032 9.092 0.5837 13.87-1.4 5.775-2.469 10.65-6.879 13.99-12.74a46.44 46.44 0 0 1-43.25 29.67 46.44 46.44 0 0 1-46.43-46.67c4.196-2.426 12.67-7.986 20.02-8.308 16.45-0.7811 20.75 7.82 23.33 14.92 0.2267 1.225 2.065 0.8842 1.838-0.341l-0.9548-37.04c-14.47 9.94-28.88 20.05-44.13 28.76a46.44 46.44 0 0 1 43.73-44.11l-0.09152-3.52a50 50 0 0 0-47.32 49.87 50 50 0 0 0 50 50 50 50 0 0 0 50-50 50 50 0 0 0-47.38-49.91z" fill="#fff"/>
</svg>
