3100 0 3 0           
13 Cubit 16.12.0 17 ACIS 31.0 Unknown 24 Wed Jul 10 08:50:56 2024 
1 9.9999999999999995e-07 1e-10 
T @77 FNVQMWK3BJ83AAACHDV5S773Q68M5FQASBSZM853BBTUE4P27A54MA6DQ8NVFGNU6CRKKX6D7CFVQ 
body $3 -1 -1 $-1 0 $4 $-1 $5 T 0 0 0 10 10 1 #
body $6 -1 -1 $-1 0 $7 $-1 $8 T 0 0 0 7 7 1 #
body $9 -1 -1 $-1 0 $10 $-1 $11 T 0 0 0 5 5 1 #
integer_attrib-name_attrib-gen-attrib $-1 -1 $-1 $-1 $0 2 1 1 1 1 1 1 1 1 1 1 1 1 1 0 1 1 1 @8 CUBIT_ID 1 #
lump $12 -1 -1 $-1 $-1 $13 $0 T 0 0 0 10 10 1 #
transform $-1 -1 1 0 0 0 1 0 0 0 1 0 0 0 1 no_rotate no_reflect no_shear #
integer_attrib-name_attrib-gen-attrib $-1 -1 $-1 $-1 $1 2 1 1 1 1 1 1 1 1 1 1 1 1 1 0 1 1 1 @8 CUBIT_ID 2 #
lump $14 -1 -1 $-1 $-1 $15 $1 T 0 0 0 7 7 1 #
transform $-1 -1 1 0 0 0 1 0 0 0 1 0 0 0 1 no_rotate no_reflect no_shear #
integer_attrib-name_attrib-gen-attrib $-1 -1 $-1 $-1 $2 2 1 1 1 1 1 1 1 1 1 1 1 1 1 0 1 1 1 @8 CUBIT_ID 3 #
lump $16 -1 -1 $-1 $-1 $17 $2 T 0 0 0 5 5 1 #
transform $-1 -1 1 0 0 0 1 0 0 0 1 0 0 0 1 no_rotate no_reflect no_shear #
integer_attrib-name_attrib-gen-attrib $-1 -1 $-1 $-1 $4 2 1 1 1 1 1 1 1 1 1 1 1 1 1 0 1 1 1 @8 CUBIT_ID 1 #
shell $-1 -1 -1 $-1 $-1 $-1 $18 $-1 $4 T 0 0 0 10 10 1 #
integer_attrib-name_attrib-gen-attrib $-1 -1 $-1 $-1 $7 2 1 1 1 1 1 1 1 1 1 1 1 1 1 0 1 1 1 @8 CUBIT_ID 2 #
shell $-1 -1 -1 $-1 $-1 $-1 $19 $-1 $7 T 0 0 0 7 7 1 #
integer_attrib-name_attrib-gen-attrib $-1 -1 $-1 $-1 $10 2 1 1 1 1 1 1 1 1 1 1 1 1 1 0 1 1 1 @8 CUBIT_ID 3 #
shell $-1 -1 -1 $-1 $-1 $-1 $20 $-1 $10 T 0 0 0 5 5 1 #
face $21 -1 -1 $-1 $22 $23 $13 $-1 $24 reversed single T 0 0 0 7 7 1 F #
face $25 -1 -1 $-1 $26 $27 $15 $-1 $28 reversed single T 0 0 0 5 5 1 F #
face $29 -1 -1 $-1 $30 $31 $17 $-1 $32 forward single T 0 0 0 5 5 1 F #
integer_attrib-name_attrib-gen-attrib $-1 -1 $-1 $-1 $18 2 1 1 1 1 1 1 1 1 1 1 1 1 1 0 1 1 1 @8 CUBIT_ID 2 #
face $33 -1 -1 $-1 $34 $35 $13 $-1 $36 forward single T 0 7 0 0 10 1 F #
loop $-1 -1 -1 $-1 $-1 $37 $18 T 0 0 0 7 7 1 unknown #
cone-surface $-1 -1 -1 $-1 0 0 0 0 0 1 7 0 0 1 I I 0 1 7 forward I I I I #
integer_attrib-name_attrib-gen-attrib $-1 -1 $-1 $-1 $19 2 1 1 1 1 1 1 1 1 1 1 1 1 1 0 1 1 1 @8 CUBIT_ID 8 #
face $38 -1 -1 $-1 $39 $40 $15 $-1 $41 forward single T 0 0 1 7 7 1 F #
loop $-1 -1 -1 $-1 $-1 $42 $19 T 0 0 0 5 5 1 unknown #
cone-surface $-1 -1 -1 $-1 0 0 0 0 0 1 5 0 0 1 I I 0 1 5 forward I I I I #
integer_attrib-name_attrib-gen-attrib $-1 -1 $-1 $-1 $20 2 1 1 1 1 1 1 1 1 1 1 1 1 1 0 1 1 1 @8 CUBIT_ID 13 #
face $43 -1 -1 $-1 $44 $45 $17 $-1 $46 forward single T 0 0 0 0 5 1 F #
loop $-1 -1 -1 $-1 $-1 $47 $20 T 0 0 0 5 5 1 unknown #
cone-surface $-1 -1 -1 $-1 0 0 0 0 0 1 5 0 0 1 I I 0 1 5 forward I I I I #
integer_attrib-name_attrib-gen-attrib $-1 -1 $-1 $-1 $22 2 1 1 1 1 1 1 1 1 1 1 1 1 1 0 1 1 1 @8 CUBIT_ID 3 #
face $48 -1 -1 $-1 $49 $50 $13 $-1 $51 forward single T 0 0 1 10 10 1 F #
loop $-1 -1 -1 $-1 $-1 $52 $22 T 0 7 0 0 10 1 unknown #
plane-surface $-1 -1 -1 $-1 0 -1 0 -1 0 -0 -0 0 1 forward_v I I I I #
coedge $-1 -1 -1 $-1 $53 $54 $55 $56 reversed $23 $-1 #
integer_attrib-name_attrib-gen-attrib $-1 -1 $-1 $-1 $26 2 1 1 1 1 1 1 1 1 1 1 1 1 1 0 1 1 1 @8 CUBIT_ID 9 #
face $57 -1 -1 $-1 $58 $59 $15 $-1 $60 reversed single T 5 0 0 7 0 1 F #
loop $-1 -1 -1 $-1 $-1 $61 $26 T 0 0 1 7 7 1 unknown #
plane-surface $-1 -1 -1 $-1 0 0 1 0 0 1 1 0 0 forward_v I I I I #
coedge $-1 -1 -1 $-1 $62 $63 $64 $65 reversed $27 $-1 #
integer_attrib-name_attrib-gen-attrib $-1 -1 $-1 $-1 $30 2 1 1 1 1 1 1 1 1 1 1 1 1 1 0 1 1 1 @8 CUBIT_ID 14 #
face $66 -1 -1 $-1 $67 $68 $17 $-1 $69 forward single T 0 0 0 5 5 0 F #
loop $-1 -1 -1 $-1 $-1 $70 $30 T 0 0 0 0 5 1 unknown #
plane-surface $-1 -1 -1 $-1 0 -1 0 -1 0 -0 -0 0 1 forward_v I I I I #
coedge $-1 -1 -1 $-1 $71 $72 $73 $74 forward $31 $-1 #
integer_attrib-name_attrib-gen-attrib $-1 -1 $-1 $-1 $34 2 1 1 1 1 1 1 1 1 1 1 1 1 1 0 1 1 1 @8 CUBIT_ID 4 #
face $75 -1 -1 $-1 $76 $77 $13 $-1 $78 reversed single T 7 0 0 10 0 1 F #
loop $-1 -1 -1 $-1 $-1 $79 $34 T 0 0 1 10 10 1 unknown #
plane-surface $-1 -1 -1 $-1 0 0 1 0 0 1 1 0 0 forward_v I I I I #
coedge $-1 -1 -1 $-1 $80 $81 $82 $83 forward $35 $-1 #
coedge $-1 -1 -1 $-1 $82 $37 $79 $84 reversed $23 $-1 #
coedge $-1 -1 -1 $-1 $37 $82 $85 $86 reversed $23 $-1 #
coedge $-1 -1 -1 $-1 $87 $88 $37 $56 forward $77 $-1 #
edge $89 -1 -1 $-1 $90 -1 $91 -0 $55 $92 forward @7 unknown T 7 0 0 7 0 1 #
integer_attrib-name_attrib-gen-attrib $-1 -1 $-1 $-1 $39 2 1 1 1 1 1 1 1 1 1 1 1 1 1 0 1 1 1 @8 CUBIT_ID 10 #
face $93 -1 -1 $-1 $94 $95 $15 $-1 $96 forward single T 0 0 0 7 7 1 F #
loop $-1 -1 -1 $-1 $-1 $97 $39 T 5 0 0 7 0 1 unknown #
plane-surface $-1 -1 -1 $-1 -1 0 0 0 1 0 0 0 1 forward_v I I I I #
coedge $-1 -1 -1 $-1 $98 $99 $100 $101 forward $40 $-1 #
coedge $-1 -1 -1 $-1 $100 $42 $97 $102 reversed $27 $-1 #
coedge $-1 -1 -1 $-1 $42 $100 $103 $104 reversed $27 $-1 #
coedge $-1 -1 -1 $-1 $105 $106 $42 $65 forward $107 $-1 #
edge $108 -1 -1 $-1 $109 0 $110 1.5707963267948966 $64 $111 forward @7 unknown T 0 0 0 5 5 0 #
integer_attrib-name_attrib-gen-attrib $-1 -1 $-1 $-1 $44 2 1 1 1 1 1 1 1 1 1 1 1 1 1 0 1 1 1 @8 CUBIT_ID 15 #
face $112 -1 -1 $-1 $113 $114 $17 $-1 $115 reversed single T 0 0 0 5 0 1 F #
loop $-1 -1 -1 $-1 $-1 $73 $44 T 0 0 0 5 5 0 unknown #
plane-surface $-1 -1 -1 $-1 0 0 0 0 0 -1 -1 0 0 forward_v I I I I #
coedge $-1 -1 -1 $-1 $116 $117 $71 $118 reversed $45 $-1 #
coedge $-1 -1 -1 $-1 $119 $47 $70 $118 forward $31 $-1 #
coedge $-1 -1 -1 $-1 $47 $119 $120 $121 forward $31 $-1 #
coedge $-1 -1 -1 $-1 $122 $123 $47 $74 reversed $68 $-1 #
edge $124 -1 -1 $-1 $125 0 $126 1.5707963267948966 $73 $127 forward @7 unknown T 0 0 0 5 5 0 #
integer_attrib-name_attrib-gen-attrib $-1 -1 $-1 $-1 $49 2 1 1 1 1 1 1 1 1 1 1 1 1 1 0 1 1 1 @8 CUBIT_ID 5 #
face $128 -1 -1 $-1 $129 $130 $13 $-1 $131 forward single T 0 0 0 10 10 0 F #
loop $-1 -1 -1 $-1 $-1 $55 $49 T 7 0 0 10 0 1 unknown #
plane-surface $-1 -1 -1 $-1 -1 0 0 0 1 0 0 0 1 forward_v I I I I #
coedge $-1 -1 -1 $-1 $132 $133 $53 $84 forward $50 $-1 #
coedge $-1 -1 -1 $-1 $134 $52 $133 $135 reversed $35 $-1 #
coedge $-1 -1 -1 $-1 $52 $134 $136 $137 reversed $35 $-1 #
coedge $-1 -1 -1 $-1 $54 $53 $52 $83 reversed $23 $-1 #
edge $138 -1 -1 $-1 $139 0 $140 1 $52 $141 forward @7 unknown T 0 7 0 0 7 1 #
edge $142 -1 -1 $-1 $140 -1.5707963267948966 $90 0 $79 $143 forward @7 unknown T 0 0 1 7 7 1 #
coedge $-1 -1 -1 $-1 $136 $144 $54 $86 forward $130 $-1 #
edge $145 -1 -1 $-1 $91 0 $139 1.5707963267948966 $85 $146 forward @7 unknown T 0 0 0 7 7 0 #
coedge $-1 -1 -1 $-1 $147 $55 $144 $148 forward $77 $-1 #
coedge $-1 -1 -1 $-1 $55 $147 $132 $149 forward $77 $-1 #
integer_attrib-name_attrib-gen-attrib $-1 -1 $-1 $-1 $56 2 1 1 1 1 1 1 1 1 1 1 1 1 1 0 1 1 1 @8 CUBIT_ID 6 #
vertex $150 -1 -1 $-1 $56 $151 #
vertex $152 -1 -1 $-1 $148 $153 #
straight-curve $-1 -1 -1 $-1 7 0 0 -0 -0 -1 I I #
integer_attrib-name_attrib-gen-attrib $-1 -1 $-1 $-1 $58 2 1 1 1 1 1 1 1 1 1 1 1 1 1 0 1 1 1 @8 CUBIT_ID 7 #
face $154 -1 -1 $-1 $155 $107 $15 $-1 $156 forward single T 0 0 0 7 7 0 F #
loop $-1 -1 -1 $-1 $-1 $157 $58 T 0 0 0 7 7 1 unknown #
cone-surface $-1 -1 -1 $-1 0 0 0 0 0 1 7 0 0 1 I I 0 1 7 forward I I I I #
coedge $-1 -1 -1 $-1 $158 $159 $62 $102 forward $59 $-1 #
coedge $-1 -1 -1 $-1 $160 $61 $159 $161 reversed $40 $-1 #
coedge $-1 -1 -1 $-1 $61 $160 $162 $163 forward $40 $-1 #
coedge $-1 -1 -1 $-1 $63 $62 $61 $101 reversed $27 $-1 #
edge $164 -1 -1 $-1 $165 -1.5707963267948966 $166 0 $61 $167 forward @7 unknown T 0 0 1 5 5 1 #
edge $168 -1 -1 $-1 $166 -1 $109 -0 $97 $169 forward @7 unknown T 5 0 0 5 0 1 #
coedge $-1 -1 -1 $-1 $162 $170 $63 $104 forward $171 $-1 #
edge $172 -1 -1 $-1 $110 0 $165 1 $103 $173 forward @7 unknown T 0 5 0 0 5 1 #
coedge $-1 -1 -1 $-1 $174 $64 $170 $175 forward $107 $-1 #
coedge $-1 -1 -1 $-1 $64 $174 $158 $176 reversed $107 $-1 #
loop $-1 -1 -1 $-1 $-1 $64 $94 T 0 0 0 7 7 0 unknown #
integer_attrib-name_attrib-gen-attrib $-1 -1 $-1 $-1 $65 2 1 1 1 1 1 1 1 1 1 1 1 1 1 0 1 1 1 @8 CUBIT_ID 18 #
vertex $177 -1 -1 $-1 $176 $178 #
vertex $179 -1 -1 $-1 $175 $180 #
ellipse-curve $-1 -1 -1 $-1 0 0 0 -0 -0 1 5 0 0 1 I I #
integer_attrib-name_attrib-gen-attrib $-1 -1 $-1 $-1 $67 2 1 1 1 1 1 1 1 1 1 1 1 1 1 0 1 1 1 @8 CUBIT_ID 16 #
face $181 -1 -1 $-1 $-1 $182 $17 $-1 $183 forward single T 0 0 1 5 5 1 F #
loop $-1 -1 -1 $-1 $-1 $120 $67 T 0 0 0 5 0 1 unknown #
plane-surface $-1 -1 -1 $-1 -1 0 0 0 1 0 0 0 1 forward_v I I I I #
coedge $-1 -1 -1 $-1 $184 $70 $123 $185 reversed $45 $-1 #
coedge $-1 -1 -1 $-1 $70 $184 $186 $187 reversed $45 $-1 #
edge $188 -1 -1 $-1 $126 0 $189 1 $70 $190 forward @7 unknown T 0 5 0 0 5 1 #
coedge $-1 -1 -1 $-1 $72 $71 $191 $192 forward $31 $-1 #
coedge $-1 -1 -1 $-1 $193 $194 $72 $121 reversed $114 $-1 #
edge $195 -1 -1 $-1 $196 -1 $125 -0 $120 $197 forward @7 unknown T 5 0 0 5 0 1 #
coedge $-1 -1 -1 $-1 $123 $73 $194 $198 reversed $68 $-1 #
coedge $-1 -1 -1 $-1 $73 $122 $116 $185 forward $68 $-1 #
integer_attrib-name_attrib-gen-attrib $-1 -1 $-1 $-1 $74 2 1 1 1 1 1 1 1 1 1 1 1 1 1 0 1 1 1 @8 CUBIT_ID 26 #
vertex $199 -1 -1 $-1 $74 $200 #
vertex $201 -1 -1 $-1 $74 $202 #
ellipse-curve $-1 -1 -1 $-1 0 0 0 -0 -0 1 5 0 0 1 I I #
integer_attrib-name_attrib-gen-attrib $-1 -1 $-1 $-1 $76 2 1 1 1 1 1 1 1 1 1 1 1 1 1 0 1 1 1 @8 CUBIT_ID 6 #
face $203 -1 -1 $-1 $-1 $204 $13 $-1 $205 forward single T 0 0 0 10 10 1 F #
loop $-1 -1 -1 $-1 $-1 $85 $76 T 0 0 0 10 10 0 unknown #
plane-surface $-1 -1 -1 $-1 0 0 0 0 0 -1 -1 0 0 forward_v I I I I #
coedge $-1 -1 -1 $-1 $206 $79 $88 $149 reversed $50 $-1 #
coedge $-1 -1 -1 $-1 $79 $206 $80 $135 forward $50 $-1 #
coedge $-1 -1 -1 $-1 $81 $80 $207 $208 reversed $35 $-1 #
edge $209 -1 -1 $-1 $210 -10.5 $140 -7.5 $133 $211 forward @7 unknown T 0 7 1 0 10 1 #
coedge $-1 -1 -1 $-1 $212 $85 $81 $137 forward $130 $-1 #
edge $213 -1 -1 $-1 $139 7.5 $214 10.5 $136 $215 forward @7 unknown T 0 7 0 0 10 0 #
integer_attrib-name_attrib-gen-attrib $-1 -1 $-1 $-1 $83 2 1 1 1 1 1 1 1 1 1 1 1 1 1 0 1 1 1 @8 CUBIT_ID 8 #
vertex $216 -1 -1 $-1 $137 $217 #
vertex $218 -1 -1 $-1 $84 $219 #
straight-curve $-1 -1 -1 $-1 0 7 0 0 0 1 I I #
integer_attrib-name_attrib-gen-attrib $-1 -1 $-1 $-1 $84 2 1 1 1 1 1 1 1 1 1 1 1 1 1 0 1 1 1 @8 CUBIT_ID 7 #
ellipse-curve $-1 -1 -1 $-1 0 0 1 -0 -0 -1 7 0 0 1 I I #
coedge $-1 -1 -1 $-1 $85 $212 $87 $148 reversed $130 $-1 #
integer_attrib-name_attrib-gen-attrib $-1 -1 $-1 $-1 $86 2 1 1 1 1 1 1 1 1 1 1 1 1 1 0 1 1 1 @8 CUBIT_ID 9 #
ellipse-curve $-1 -1 -1 $-1 0 0 0 -0 -0 1 7 0 0 1 I I #
coedge $-1 -1 -1 $-1 $88 $87 $220 $221 forward $77 $-1 #
edge $222 -1 -1 $-1 $91 7.5 $223 10.5 $144 $224 forward @7 unknown T 7 0 0 10 0 0 #
edge $225 -1 -1 $-1 $226 -10.5 $90 -7.5 $132 $227 forward @7 unknown T 7 0 1 10 0 1 #
integer_attrib-name_attrib-gen-attrib $-1 -1 $-1 $-1 $90 2 1 1 1 1 1 1 1 1 1 1 1 1 1 0 1 1 1 @8 CUBIT_ID 7 #
point $-1 -1 -1 $-1 7 0 1 #
integer_attrib-name_attrib-gen-attrib $-1 -1 $-1 $-1 $91 2 1 1 1 1 1 1 1 1 1 1 1 1 1 0 1 1 1 @8 CUBIT_ID 8 #
point $-1 -1 -1 $-1 7 0 0 #
integer_attrib-name_attrib-gen-attrib $-1 -1 $-1 $-1 $94 2 1 1 1 1 1 1 1 1 1 1 1 1 1 0 1 1 1 @8 CUBIT_ID 11 #
face $228 -1 -1 $-1 $-1 $171 $15 $-1 $229 forward single T 0 5 0 0 7 1 F #
plane-surface $-1 -1 -1 $-1 0 0 0 0 0 -1 -1 0 0 forward_v I I I I #
coedge $-1 -1 -1 $-1 $230 $231 $232 $233 forward $95 $-1 #
coedge $-1 -1 -1 $-1 $232 $97 $106 $176 forward $59 $-1 #
coedge $-1 -1 -1 $-1 $97 $232 $98 $161 forward $59 $-1 #
coedge $-1 -1 -1 $-1 $99 $98 $231 $234 reversed $40 $-1 #
edge $235 -1 -1 $-1 $236 -7.5 $166 -5.5 $98 $237 forward @7 unknown T 5 0 1 7 0 1 #
coedge $-1 -1 -1 $-1 $238 $103 $99 $163 reversed $171 $-1 #
edge $239 -1 -1 $-1 $240 -7.5 $165 -5.5 $99 $241 forward @7 unknown T 0 5 1 0 7 1 #
integer_attrib-name_attrib-gen-attrib $-1 -1 $-1 $-1 $101 2 1 1 1 1 1 1 1 1 1 1 1 1 1 0 1 1 1 @8 CUBIT_ID 20 #
vertex $242 -1 -1 $-1 $104 $243 #
vertex $244 -1 -1 $-1 $102 $245 #
ellipse-curve $-1 -1 -1 $-1 0 0 1 -0 -0 -1 5 0 0 1 I I #
integer_attrib-name_attrib-gen-attrib $-1 -1 $-1 $-1 $102 2 1 1 1 1 1 1 1 1 1 1 1 1 1 0 1 1 1 @8 CUBIT_ID 19 #
straight-curve $-1 -1 -1 $-1 5 0 0 -0 -0 -1 I I #
coedge $-1 -1 -1 $-1 $103 $238 $105 $175 reversed $171 $-1 #
loop $-1 -1 -1 $-1 $-1 $103 $155 T 0 5 0 0 7 1 unknown #
integer_attrib-name_attrib-gen-attrib $-1 -1 $-1 $-1 $104 2 1 1 1 1 1 1 1 1 1 1 1 1 1 0 1 1 1 @8 CUBIT_ID 21 #
straight-curve $-1 -1 -1 $-1 0 5 0 0 0 1 I I #
coedge $-1 -1 -1 $-1 $106 $105 $230 $246 reversed $107 $-1 #
edge $247 -1 -1 $-1 $110 5.5 $248 7.5 $105 $249 forward @7 unknown T 0 5 0 0 7 0 #
edge $250 -1 -1 $-1 $109 5.5 $251 7.5 $106 $252 forward @7 unknown T 5 0 0 7 0 0 #
integer_attrib-name_attrib-gen-attrib $-1 -1 $-1 $-1 $109 2 1 1 1 1 1 1 1 1 1 1 1 1 1 0 1 1 1 @8 CUBIT_ID 15 #
point $-1 -1 -1 $-1 5 0 0 #
integer_attrib-name_attrib-gen-attrib $-1 -1 $-1 $-1 $110 2 1 1 1 1 1 1 1 1 1 1 1 1 1 0 1 1 1 @8 CUBIT_ID 16 #
point $-1 -1 -1 $-1 0 5 0 #
integer_attrib-name_attrib-gen-attrib $-1 -1 $-1 $-1 $113 2 1 1 1 1 1 1 1 1 1 1 1 1 1 0 1 1 1 @8 CUBIT_ID 17 #
loop $-1 -1 -1 $-1 $-1 $191 $113 T 0 0 1 5 5 1 unknown #
plane-surface $-1 -1 -1 $-1 0 0 1 0 0 1 1 0 0 forward_v I I I I #
coedge $-1 -1 -1 $-1 $117 $116 $253 $254 reversed $45 $-1 #
edge $255 -1 -1 $-1 $256 0.5 $126 5.5 $123 $257 forward @7 unknown T 0 0 0 0 5 0 #
coedge $-1 -1 -1 $-1 $258 $191 $117 $187 forward $182 $-1 #
edge $259 -1 -1 $-1 $189 -5.5 $260 -0.5 $186 $261 forward @7 unknown T 0 0 1 0 5 1 #
integer_attrib-name_attrib-gen-attrib $-1 -1 $-1 $-1 $118 2 1 1 1 1 1 1 1 1 1 1 1 1 1 0 1 1 1 @8 CUBIT_ID 27 #
vertex $262 -1 -1 $-1 $187 $263 #
straight-curve $-1 -1 -1 $-1 0 5 0 0 0 1 I I #
coedge $-1 -1 -1 $-1 $186 $258 $119 $192 reversed $182 $-1 #
edge $264 -1 -1 $-1 $189 -1.5707963267948966 $196 0 $191 $265 forward @7 unknown T 0 0 1 5 5 1 #
coedge $-1 -1 -1 $-1 $253 $120 $258 $266 forward $114 $-1 #
coedge $-1 -1 -1 $-1 $120 $253 $122 $198 forward $114 $-1 #
integer_attrib-name_attrib-gen-attrib $-1 -1 $-1 $-1 $121 2 1 1 1 1 1 1 1 1 1 1 1 1 1 0 1 1 1 @8 CUBIT_ID 29 #
vertex $267 -1 -1 $-1 $266 $268 #
straight-curve $-1 -1 -1 $-1 5 0 0 -0 -0 -1 I I #
edge $269 -1 -1 $-1 $256 0.5 $125 5.5 $122 $270 forward @7 unknown T 0 0 0 5 0 0 #
integer_attrib-name_attrib-gen-attrib $-1 -1 $-1 $-1 $125 2 1 1 1 1 1 1 1 1 1 1 1 1 1 0 1 1 1 @8 CUBIT_ID 19 #
point $-1 -1 -1 $-1 5 0 0 #
integer_attrib-name_attrib-gen-attrib $-1 -1 $-1 $-1 $126 2 1 1 1 1 1 1 1 1 1 1 1 1 1 0 1 1 1 @8 CUBIT_ID 20 #
point $-1 -1 -1 $-1 0 5 0 #
integer_attrib-name_attrib-gen-attrib $-1 -1 $-1 $-1 $129 2 1 1 1 1 1 1 1 1 1 1 1 1 1 0 1 1 1 @8 CUBIT_ID 1 #
loop $-1 -1 -1 $-1 $-1 $220 $129 T 0 0 0 10 10 1 unknown #
cone-surface $-1 -1 -1 $-1 0 0 0.5 0 0 1 10 0 0 1 I I 0 1 10 forward I I I I #
coedge $-1 -1 -1 $-1 $133 $132 $271 $272 forward $50 $-1 #
coedge $-1 -1 -1 $-1 $271 $273 $134 $208 forward $204 $-1 #
edge $274 -1 -1 $-1 $214 -0.5 $210 0.5 $207 $275 forward @7 unknown T 0 10 0 0 10 1 #
integer_attrib-name_attrib-gen-attrib $-1 -1 $-1 $-1 $135 2 1 1 1 1 1 1 1 1 1 1 1 1 1 0 1 1 1 @8 CUBIT_ID 10 #
vertex $276 -1 -1 $-1 $135 $277 #
straight-curve $-1 -1 -1 $-1 0 -0.5 1 -0 -1 0 I I #
coedge $-1 -1 -1 $-1 $144 $136 $273 $278 forward $130 $-1 #
integer_attrib-name_attrib-gen-attrib $-1 -1 $-1 $-1 $137 2 1 1 1 1 1 1 1 1 1 1 1 1 1 0 1 1 1 @8 CUBIT_ID 11 #
vertex $279 -1 -1 $-1 $278 $280 #
straight-curve $-1 -1 -1 $-1 0 -0.5 0 0 1 0 I I #
integer_attrib-name_attrib-gen-attrib $-1 -1 $-1 $-1 $139 2 1 1 1 1 1 1 1 1 1 1 1 1 1 0 1 1 1 @8 CUBIT_ID 10 #
point $-1 -1 -1 $-1 0 7 0 #
integer_attrib-name_attrib-gen-attrib $-1 -1 $-1 $-1 $140 2 1 1 1 1 1 1 1 1 1 1 1 1 1 0 1 1 1 @8 CUBIT_ID 9 #
point $-1 -1 -1 $-1 0 7 1 #
coedge $-1 -1 -1 $-1 $273 $271 $147 $221 reversed $204 $-1 #
edge $281 -1 -1 $-1 $223 -0.5 $226 0.5 $220 $282 forward @7 unknown T 10 0 0 10 0 1 #
integer_attrib-name_attrib-gen-attrib $-1 -1 $-1 $-1 $148 2 1 1 1 1 1 1 1 1 1 1 1 1 1 0 1 1 1 @8 CUBIT_ID 13 #
vertex $283 -1 -1 $-1 $148 $284 #
straight-curve $-1 -1 -1 $-1 -0.5 0 0 1 -0 0 I I #
integer_attrib-name_attrib-gen-attrib $-1 -1 $-1 $-1 $149 2 1 1 1 1 1 1 1 1 1 1 1 1 1 0 1 1 1 @8 CUBIT_ID 12 #
vertex $285 -1 -1 $-1 $272 $286 #
straight-curve $-1 -1 -1 $-1 -0.5 0 1 -1 0 0 I I #
integer_attrib-name_attrib-gen-attrib $-1 -1 $-1 $-1 $155 2 1 1 1 1 1 1 1 1 1 1 1 1 1 0 1 1 1 @8 CUBIT_ID 12 #
plane-surface $-1 -1 -1 $-1 0 -1 0 -1 0 -0 -0 0 1 forward_v I I I I #
coedge $-1 -1 -1 $-1 $287 $157 $174 $246 forward $95 $-1 #
coedge $-1 -1 -1 $-1 $157 $287 $160 $234 forward $95 $-1 #
coedge $-1 -1 -1 $-1 $159 $158 $157 $233 reversed $59 $-1 #
edge $288 -1 -1 $-1 $236 -1 $251 -0 $232 $289 forward @7 unknown T 7 0 0 7 0 1 #
edge $290 -1 -1 $-1 $240 -1.5707963267948966 $236 0 $160 $291 forward @7 unknown T 0 0 1 7 7 1 #
integer_attrib-name_attrib-gen-attrib $-1 -1 $-1 $-1 $161 2 1 1 1 1 1 1 1 1 1 1 1 1 1 0 1 1 1 @8 CUBIT_ID 22 #
vertex $292 -1 -1 $-1 $161 $293 #
straight-curve $-1 -1 -1 $-1 -0.5 0 1 -1 0 0 I I #
coedge $-1 -1 -1 $-1 $170 $162 $287 $294 reversed $171 $-1 #
integer_attrib-name_attrib-gen-attrib $-1 -1 $-1 $-1 $163 2 1 1 1 1 1 1 1 1 1 1 1 1 1 0 1 1 1 @8 CUBIT_ID 23 #
vertex $295 -1 -1 $-1 $163 $296 #
straight-curve $-1 -1 -1 $-1 0 -0.5 1 -0 -1 0 I I #
integer_attrib-name_attrib-gen-attrib $-1 -1 $-1 $-1 $165 2 1 1 1 1 1 1 1 1 1 1 1 1 1 0 1 1 1 @8 CUBIT_ID 18 #
point $-1 -1 -1 $-1 0 5 1 #
integer_attrib-name_attrib-gen-attrib $-1 -1 $-1 $-1 $166 2 1 1 1 1 1 1 1 1 1 1 1 1 1 0 1 1 1 @8 CUBIT_ID 17 #
point $-1 -1 -1 $-1 5 0 1 #
edge $297 -1 -1 $-1 $251 0 $248 1.5707963267948966 $174 $298 forward @7 unknown T 0 0 0 7 7 0 #
integer_attrib-name_attrib-gen-attrib $-1 -1 $-1 $-1 $175 2 1 1 1 1 1 1 1 1 1 1 1 1 1 0 1 1 1 @8 CUBIT_ID 25 #
vertex $299 -1 -1 $-1 $246 $300 #
straight-curve $-1 -1 -1 $-1 0 -0.5 0 0 1 0 I I #
integer_attrib-name_attrib-gen-attrib $-1 -1 $-1 $-1 $176 2 1 1 1 1 1 1 1 1 1 1 1 1 1 0 1 1 1 @8 CUBIT_ID 24 #
vertex $301 -1 -1 $-1 $233 $302 #
straight-curve $-1 -1 -1 $-1 -0.5 0 0 1 -0 0 I I #
coedge $-1 -1 -1 $-1 $194 $193 $184 $254 forward $114 $-1 #
edge $303 -1 -1 $-1 $260 -1 $256 0 $184 $304 forward @7 unknown T 0 0 0 0 0 1 #
integer_attrib-name_attrib-gen-attrib $-1 -1 $-1 $-1 $185 2 1 1 1 1 1 1 1 1 1 1 1 1 1 0 1 1 1 @8 CUBIT_ID 30 #
vertex $305 -1 -1 $-1 $185 $306 #
straight-curve $-1 -1 -1 $-1 0 -0.5 0 0 1 0 I I #
coedge $-1 -1 -1 $-1 $191 $186 $193 $266 reversed $182 $-1 #
integer_attrib-name_attrib-gen-attrib $-1 -1 $-1 $-1 $187 2 1 1 1 1 1 1 1 1 1 1 1 1 1 0 1 1 1 @8 CUBIT_ID 31 #
vertex $307 -1 -1 $-1 $254 $308 #
straight-curve $-1 -1 -1 $-1 0 -0.5 1 -0 -1 0 I I #
integer_attrib-name_attrib-gen-attrib $-1 -1 $-1 $-1 $189 2 1 1 1 1 1 1 1 1 1 1 1 1 1 0 1 1 1 @8 CUBIT_ID 21 #
point $-1 -1 -1 $-1 0 5 1 #
integer_attrib-name_attrib-gen-attrib $-1 -1 $-1 $-1 $192 2 1 1 1 1 1 1 1 1 1 1 1 1 1 0 1 1 1 @8 CUBIT_ID 28 #
ellipse-curve $-1 -1 -1 $-1 0 0 1 -0 -0 -1 5 0 0 1 I I #
edge $309 -1 -1 $-1 $196 -5.5 $260 -0.5 $258 $310 forward @7 unknown T 0 0 1 5 0 1 #
integer_attrib-name_attrib-gen-attrib $-1 -1 $-1 $-1 $196 2 1 1 1 1 1 1 1 1 1 1 1 1 1 0 1 1 1 @8 CUBIT_ID 22 #
point $-1 -1 -1 $-1 5 0 1 #
integer_attrib-name_attrib-gen-attrib $-1 -1 $-1 $-1 $198 2 1 1 1 1 1 1 1 1 1 1 1 1 1 0 1 1 1 @8 CUBIT_ID 32 #
straight-curve $-1 -1 -1 $-1 -0.5 0 0 1 -0 0 I I #
coedge $-1 -1 -1 $-1 $220 $207 $206 $272 reversed $204 $-1 #
edge $311 -1 -1 $-1 $226 0 $210 1.5707963267948966 $206 $312 forward @7 unknown T 0 0 1 10 10 1 #
coedge $-1 -1 -1 $-1 $207 $220 $212 $278 reversed $204 $-1 #
integer_attrib-name_attrib-gen-attrib $-1 -1 $-1 $-1 $208 2 1 1 1 1 1 1 1 1 1 1 1 1 1 0 1 1 1 @8 CUBIT_ID 1 #
straight-curve $-1 -1 -1 $-1 0 10 0.5 0 0 1 I I #
integer_attrib-name_attrib-gen-attrib $-1 -1 $-1 $-1 $210 2 1 1 1 1 1 1 1 1 1 1 1 1 1 0 1 1 1 @8 CUBIT_ID 1 #
point $-1 -1 -1 $-1 0 10 1 #
edge $313 -1 -1 $-1 $214 -1.5707963267948966 $223 0 $212 $314 forward @7 unknown T 0 0 0 10 10 0 #
integer_attrib-name_attrib-gen-attrib $-1 -1 $-1 $-1 $214 2 1 1 1 1 1 1 1 1 1 1 1 1 1 0 1 1 1 @8 CUBIT_ID 2 #
point $-1 -1 -1 $-1 0 10 0 #
integer_attrib-name_attrib-gen-attrib $-1 -1 $-1 $-1 $221 2 1 1 1 1 1 1 1 1 1 1 1 1 1 0 1 1 1 @8 CUBIT_ID 3 #
straight-curve $-1 -1 -1 $-1 10 0 0.5 0 0 1 I I #
integer_attrib-name_attrib-gen-attrib $-1 -1 $-1 $-1 $223 2 1 1 1 1 1 1 1 1 1 1 1 1 1 0 1 1 1 @8 CUBIT_ID 5 #
point $-1 -1 -1 $-1 10 0 0 #
integer_attrib-name_attrib-gen-attrib $-1 -1 $-1 $-1 $226 2 1 1 1 1 1 1 1 1 1 1 1 1 1 0 1 1 1 @8 CUBIT_ID 6 #
point $-1 -1 -1 $-1 10 0 1 #
coedge $-1 -1 -1 $-1 $231 $230 $238 $294 forward $95 $-1 #
integer_attrib-name_attrib-gen-attrib $-1 -1 $-1 $-1 $233 2 1 1 1 1 1 1 1 1 1 1 1 1 1 0 1 1 1 @8 CUBIT_ID 14 #
straight-curve $-1 -1 -1 $-1 7 0 0 -0 -0 -1 I I #
integer_attrib-name_attrib-gen-attrib $-1 -1 $-1 $-1 $234 2 1 1 1 1 1 1 1 1 1 1 1 1 1 0 1 1 1 @8 CUBIT_ID 17 #
ellipse-curve $-1 -1 -1 $-1 0 0 1 -0 -0 -1 7 0 0 1 I I #
integer_attrib-name_attrib-gen-attrib $-1 -1 $-1 $-1 $236 2 1 1 1 1 1 1 1 1 1 1 1 1 1 0 1 1 1 @8 CUBIT_ID 11 #
point $-1 -1 -1 $-1 7 0 1 #
edge $315 -1 -1 $-1 $248 0 $240 1 $238 $316 forward @7 unknown T 0 7 0 0 7 1 #
integer_attrib-name_attrib-gen-attrib $-1 -1 $-1 $-1 $240 2 1 1 1 1 1 1 1 1 1 1 1 1 1 0 1 1 1 @8 CUBIT_ID 14 #
point $-1 -1 -1 $-1 0 7 1 #
integer_attrib-name_attrib-gen-attrib $-1 -1 $-1 $-1 $246 2 1 1 1 1 1 1 1 1 1 1 1 1 1 0 1 1 1 @8 CUBIT_ID 15 #
ellipse-curve $-1 -1 -1 $-1 0 0 0 -0 -0 1 7 0 0 1 I I #
integer_attrib-name_attrib-gen-attrib $-1 -1 $-1 $-1 $248 2 1 1 1 1 1 1 1 1 1 1 1 1 1 0 1 1 1 @8 CUBIT_ID 13 #
point $-1 -1 -1 $-1 0 7 0 #
integer_attrib-name_attrib-gen-attrib $-1 -1 $-1 $-1 $251 2 1 1 1 1 1 1 1 1 1 1 1 1 1 0 1 1 1 @8 CUBIT_ID 12 #
point $-1 -1 -1 $-1 7 0 0 #
integer_attrib-name_attrib-gen-attrib $-1 -1 $-1 $-1 $254 2 1 1 1 1 1 1 1 1 1 1 1 1 1 0 1 1 1 @8 CUBIT_ID 2 #
straight-curve $-1 -1 -1 $-1 0 0 0 0 0 -1 I I #
integer_attrib-name_attrib-gen-attrib $-1 -1 $-1 $-1 $256 2 1 1 1 1 1 1 1 1 1 1 1 1 1 0 1 1 1 @8 CUBIT_ID 4 #
point $-1 -1 -1 $-1 0 0 0 #
integer_attrib-name_attrib-gen-attrib $-1 -1 $-1 $-1 $260 2 1 1 1 1 1 1 1 1 1 1 1 1 1 0 1 1 1 @8 CUBIT_ID 3 #
point $-1 -1 -1 $-1 0 0 1 #
integer_attrib-name_attrib-gen-attrib $-1 -1 $-1 $-1 $266 2 1 1 1 1 1 1 1 1 1 1 1 1 1 0 1 1 1 @8 CUBIT_ID 33 #
straight-curve $-1 -1 -1 $-1 -0.5 0 1 -1 0 0 I I #
integer_attrib-name_attrib-gen-attrib $-1 -1 $-1 $-1 $272 2 1 1 1 1 1 1 1 1 1 1 1 1 1 0 1 1 1 @8 CUBIT_ID 5 #
ellipse-curve $-1 -1 -1 $-1 0 0 1 0 0 1 10 0 0 1 I I #
integer_attrib-name_attrib-gen-attrib $-1 -1 $-1 $-1 $278 2 1 1 1 1 1 1 1 1 1 1 1 1 1 0 1 1 1 @8 CUBIT_ID 4 #
ellipse-curve $-1 -1 -1 $-1 0 0 0 0 0 -1 10 0 0 1 I I #
integer_attrib-name_attrib-gen-attrib $-1 -1 $-1 $-1 $294 2 1 1 1 1 1 1 1 1 1 1 1 1 1 0 1 1 1 @8 CUBIT_ID 16 #
straight-curve $-1 -1 -1 $-1 0 7 0 0 0 1 I I #
End-of-ACIS-data 