<svg version="1.1" viewBox="0.0 0.0 1139.7716535433071 705.3097112860893" fill="none" stroke="none" stroke-linecap="square" stroke-miterlimit="10" xmlns:xlink="http://www.w3.org/1999/xlink" xmlns="http://www.w3.org/2000/svg"><clipPath id="p.0"><path d="m0 0l1139.7716 0l0 705.3097l-1139.7716 0l0 -705.3097z" clip-rule="nonzero"/></clipPath><g clip-path="url(#p.0)"><path fill="#000000" fill-opacity="0.0" d="m0 0l1139.7716 0l0 705.3097l-1139.7716 0z" fill-rule="evenodd"/><path fill="#f3f3f3" d="m492.24155 69.89263l28.029694 -54.740158l75.15143 0l-28.029724 54.740158z" fill-rule="evenodd"/><path stroke="#000000" stroke-width="2.0" stroke-linejoin="round" stroke-linecap="butt" d="m492.24155 69.89263l28.029694 -54.740158l75.15143 0l-28.029724 54.740158z" fill-rule="evenodd"/><path fill="#f3f3f3" d="m567.57935 69.89263l28.029724 -54.740158l75.15137 0l-28.029663 54.740158z" fill-rule="evenodd"/><path stroke="#000000" stroke-width="2.0" stroke-linejoin="round" stroke-linecap="butt" d="m567.57935 69.89263l28.029724 -54.740158l75.15137 0l-28.029663 54.740158z" fill-rule="evenodd"/><path fill="#f3f3f3" d="m642.79895 69.89263l28.029724 -54.740158l75.15137 0l-28.029663 54.740158z" fill-rule="evenodd"/><path stroke="#000000" stroke-width="2.0" stroke-linejoin="round" stroke-linecap="butt" d="m642.79895 69.89263l28.029724 -54.740158l75.15137 0l-28.029663 54.740158z" fill-rule="evenodd"/><path fill="#f3f3f3" d="m718.13837 69.89263l28.029724 -54.740158l75.15137 0l-28.029663 54.740158z" fill-rule="evenodd"/><path stroke="#000000" stroke-width="2.0" stroke-linejoin="round" stroke-linecap="butt" d="m718.13837 69.89263l28.029724 -54.740158l75.15137 0l-28.029663 54.740158z" fill-rule="evenodd"/><path fill="#f3f3f3" d="m464.36905 124.621605l28.029694 -54.740158l75.15143 0l-28.029724 54.740158z" fill-rule="evenodd"/><path stroke="#000000" stroke-width="2.0" stroke-linejoin="round" stroke-linecap="butt" d="m464.36905 124.621605l28.029694 -54.740158l75.15143 0l-28.029724 54.740158z" fill-rule="evenodd"/><path fill="#f3f3f3" d="m539.70685 124.621605l28.029724 -54.740158l75.15143 0l-28.029724 54.740158z" fill-rule="evenodd"/><path stroke="#000000" stroke-width="2.0" stroke-linejoin="round" stroke-linecap="butt" d="m539.70685 124.621605l28.029724 -54.740158l75.15143 0l-28.029724 54.740158z" fill-rule="evenodd"/><path fill="#f3f3f3" d="m614.92645 124.621605l28.029724 -54.740158l75.15143 0l-28.029724 54.740158z" fill-rule="evenodd"/><path stroke="#000000" stroke-width="2.0" stroke-linejoin="round" stroke-linecap="butt" d="m614.92645 124.621605l28.029724 -54.740158l75.15143 0l-28.029724 54.740158z" fill-rule="evenodd"/><path fill="#f3f3f3" d="m690.26587 124.621605l28.029724 -54.740158l75.15143 0l-28.029724 54.740158z" fill-rule="evenodd"/><path stroke="#000000" stroke-width="2.0" stroke-linejoin="round" stroke-linecap="butt" d="m690.26587 124.621605l28.029724 -54.740158l75.15143 0l-28.029724 54.740158z" fill-rule="evenodd"/><path fill="#f3f3f3" d="m436.31924 179.35059l28.029724 -54.740158l75.1514 0l-28.029694 54.740158z" fill-rule="evenodd"/><path stroke="#000000" stroke-width="2.0" stroke-linejoin="round" stroke-linecap="butt" d="m436.31924 179.35059l28.029724 -54.740158l75.1514 0l-28.029694 54.740158z" fill-rule="evenodd"/><path fill="#f3f3f3" d="m511.65707 179.35059l28.029694 -54.740158l75.15143 0l-28.029724 54.740158z" fill-rule="evenodd"/><path stroke="#000000" stroke-width="2.0" stroke-linejoin="round" stroke-linecap="butt" d="m511.65707 179.35059l28.029694 -54.740158l75.15143 0l-28.029724 54.740158z" fill-rule="evenodd"/><path fill="#f4cccc" d="m586.87665 179.35059l28.029724 -54.740158l75.15143 0l-28.029724 54.740158z" fill-rule="evenodd"/><path stroke="#000000" stroke-width="2.0" stroke-linejoin="round" stroke-linecap="butt" d="m586.87665 179.35059l28.029724 -54.740158l75.15143 0l-28.029724 54.740158z" fill-rule="evenodd"/><path fill="#f4cccc" d="m662.21606 179.35059l28.029724 -54.740158l75.15143 0l-28.029724 54.740158z" fill-rule="evenodd"/><path stroke="#000000" stroke-width="2.0" stroke-linejoin="round" stroke-linecap="butt" d="m662.21606 179.35059l28.029724 -54.740158l75.15143 0l-28.029724 54.740158z" fill-rule="evenodd"/><path fill="#f3f3f3" d="m408.44678 234.07956l28.029694 -54.740158l75.1514 0l-28.029694 54.740158z" fill-rule="evenodd"/><path stroke="#000000" stroke-width="2.0" stroke-linejoin="round" stroke-linecap="butt" d="m408.44678 234.07956l28.029694 -54.740158l75.1514 0l-28.029694 54.740158z" fill-rule="evenodd"/><path fill="#f3f3f3" d="m483.78458 234.07956l28.029724 -54.740158l75.1514 0l-28.029724 54.740158z" fill-rule="evenodd"/><path stroke="#000000" stroke-width="2.0" stroke-linejoin="round" stroke-linecap="butt" d="m483.78458 234.07956l28.029724 -54.740158l75.1514 0l-28.029724 54.740158z" fill-rule="evenodd"/><path fill="#f4cccc" d="m559.0042 234.07956l28.029663 -54.740158l75.15143 0l-28.029724 54.740158z" fill-rule="evenodd"/><path stroke="#000000" stroke-width="2.0" stroke-linejoin="round" stroke-linecap="butt" d="m559.0042 234.07956l28.029663 -54.740158l75.15143 0l-28.029724 54.740158z" fill-rule="evenodd"/><path fill="#f4cccc" d="m634.3436 234.07956l28.029663 -54.740158l75.15143 0l-28.029724 54.740158z" fill-rule="evenodd"/><path stroke="#000000" stroke-width="2.0" stroke-linejoin="round" stroke-linecap="butt" d="m634.3436 234.07956l28.029663 -54.740158l75.15143 0l-28.029724 54.740158z" fill-rule="evenodd"/><path fill="#f3f3f3" d="m793.1771 69.89263l28.029724 -54.740158l75.15137 0l-28.029663 54.740158z" fill-rule="evenodd"/><path stroke="#000000" stroke-width="2.0" stroke-linejoin="round" stroke-linecap="butt" d="m793.1771 69.89263l28.029724 -54.740158l75.15137 0l-28.029663 54.740158z" fill-rule="evenodd"/><path fill="#f3f3f3" d="m868.51495 69.89263l28.029663 -54.740158l75.15143 0l-28.029724 54.740158z" fill-rule="evenodd"/><path stroke="#000000" stroke-width="2.0" stroke-linejoin="round" stroke-linecap="butt" d="m868.51495 69.89263l28.029663 -54.740158l75.15143 0l-28.029724 54.740158z" fill-rule="evenodd"/><path fill="#f3f3f3" d="m765.3046 124.621605l28.029724 -54.740158l75.15137 0l-28.029663 54.740158z" fill-rule="evenodd"/><path stroke="#000000" stroke-width="2.0" stroke-linejoin="round" stroke-linecap="butt" d="m765.3046 124.621605l28.029724 -54.740158l75.15137 0l-28.029663 54.740158z" fill-rule="evenodd"/><path fill="#f3f3f3" d="m840.64246 124.621605l28.029724 -54.740158l75.15137 0l-28.029663 54.740158z" fill-rule="evenodd"/><path stroke="#000000" stroke-width="2.0" stroke-linejoin="round" stroke-linecap="butt" d="m840.64246 124.621605l28.029724 -54.740158l75.15137 0l-28.029663 54.740158z" fill-rule="evenodd"/><path fill="#f3f3f3" d="m737.2548 179.35059l28.029724 -54.740158l75.15137 0l-28.029663 54.740158z" fill-rule="evenodd"/><path stroke="#000000" stroke-width="2.0" stroke-linejoin="round" stroke-linecap="butt" d="m737.2548 179.35059l28.029724 -54.740158l75.15137 0l-28.029663 54.740158z" fill-rule="evenodd"/><path fill="#f3f3f3" d="m812.59265 179.35059l28.029724 -54.740158l75.15137 0l-28.029663 54.740158z" fill-rule="evenodd"/><path stroke="#000000" stroke-width="2.0" stroke-linejoin="round" stroke-linecap="butt" d="m812.59265 179.35059l28.029724 -54.740158l75.15137 0l-28.029663 54.740158z" fill-rule="evenodd"/><path fill="#f3f3f3" d="m709.3824 234.07956l28.029663 -54.740158l75.15143 0l-28.029724 54.740158z" fill-rule="evenodd"/><path stroke="#000000" stroke-width="2.0" stroke-linejoin="round" stroke-linecap="butt" d="m709.3824 234.07956l28.029663 -54.740158l75.15143 0l-28.029724 54.740158z" fill-rule="evenodd"/><path fill="#f3f3f3" d="m784.72015 234.07956l28.029724 -54.740158l75.15137 0l-28.029663 54.740158z" fill-rule="evenodd"/><path stroke="#000000" stroke-width="2.0" stroke-linejoin="round" stroke-linecap="butt" d="m784.72015 234.07956l28.029724 -54.740158l75.15137 0l-28.029663 54.740158z" fill-rule="evenodd"/><path fill="#f3f3f3" d="m380.3313 288.8069l28.029694 -54.740173l75.1514 0l-28.029694 54.740173z" fill-rule="evenodd"/><path stroke="#000000" stroke-width="2.0" stroke-linejoin="round" stroke-linecap="butt" d="m380.3313 288.8069l28.029694 -54.740173l75.1514 0l-28.029694 54.740173z" fill-rule="evenodd"/><path fill="#f3f3f3" d="m455.6691 288.8069l28.029724 -54.740173l75.1514 0l-28.029724 54.740173z" fill-rule="evenodd"/><path stroke="#000000" stroke-width="2.0" stroke-linejoin="round" stroke-linecap="butt" d="m455.6691 288.8069l28.029724 -54.740173l75.1514 0l-28.029724 54.740173z" fill-rule="evenodd"/><path fill="#f3f3f3" d="m530.88873 288.8069l28.029663 -54.740173l75.15143 0l-28.029724 54.740173z" fill-rule="evenodd"/><path stroke="#000000" stroke-width="2.0" stroke-linejoin="round" stroke-linecap="butt" d="m530.88873 288.8069l28.029663 -54.740173l75.15143 0l-28.029724 54.740173z" fill-rule="evenodd"/><path fill="#f3f3f3" d="m606.22815 288.8069l28.029663 -54.740173l75.15143 0l-28.029724 54.740173z" fill-rule="evenodd"/><path stroke="#000000" stroke-width="2.0" stroke-linejoin="round" stroke-linecap="butt" d="m606.22815 288.8069l28.029663 -54.740173l75.15143 0l-28.029724 54.740173z" fill-rule="evenodd"/><path fill="#f3f3f3" d="m352.4588 343.53586l28.029724 -54.740173l75.1514 0l-28.029694 54.740173z" fill-rule="evenodd"/><path stroke="#000000" stroke-width="2.0" stroke-linejoin="round" stroke-linecap="round" d="m352.4588 343.53586l28.029724 -54.740173l75.1514 0l-28.029694 54.740173z" fill-rule="evenodd"/><path fill="#f3f3f3" d="m427.79663 343.53586l28.029694 -54.740173l75.1514 0l-28.029694 54.740173z" fill-rule="evenodd"/><path stroke="#000000" stroke-width="2.0" stroke-linejoin="round" stroke-linecap="butt" d="m427.79663 343.53586l28.029694 -54.740173l75.1514 0l-28.029694 54.740173z" fill-rule="evenodd"/><path fill="#f3f3f3" d="m503.01624 343.53586l28.029724 -54.740173l75.15137 0l-28.029663 54.740173z" fill-rule="evenodd"/><path stroke="#000000" stroke-width="2.0" stroke-linejoin="round" stroke-linecap="butt" d="m503.01624 343.53586l28.029724 -54.740173l75.15137 0l-28.029663 54.740173z" fill-rule="evenodd"/><path fill="#f3f3f3" d="m578.35565 343.53586l28.029663 -54.740173l75.15143 0l-28.029724 54.740173z" fill-rule="evenodd"/><path stroke="#000000" stroke-width="2.0" stroke-linejoin="round" stroke-linecap="butt" d="m578.35565 343.53586l28.029663 -54.740173l75.15143 0l-28.029724 54.740173z" fill-rule="evenodd"/><path fill="#f3f3f3" d="m681.2669 288.8069l28.029663 -54.740173l75.15143 0l-28.029724 54.740173z" fill-rule="evenodd"/><path stroke="#000000" stroke-width="2.0" stroke-linejoin="round" stroke-linecap="butt" d="m681.2669 288.8069l28.029663 -54.740173l75.15143 0l-28.029724 54.740173z" fill-rule="evenodd"/><path fill="#f3f3f3" d="m756.6047 288.8069l28.029724 -54.740173l75.15137 0l-28.029663 54.740173z" fill-rule="evenodd"/><path stroke="#000000" stroke-width="2.0" stroke-linejoin="round" stroke-linecap="butt" d="m756.6047 288.8069l28.029724 -54.740173l75.15137 0l-28.029663 54.740173z" fill-rule="evenodd"/><path fill="#f3f3f3" d="m653.3944 343.53586l28.029663 -54.740173l75.15143 0l-28.029724 54.740173z" fill-rule="evenodd"/><path stroke="#000000" stroke-width="2.0" stroke-linejoin="round" stroke-linecap="butt" d="m653.3944 343.53586l28.029663 -54.740173l75.15143 0l-28.029724 54.740173z" fill-rule="evenodd"/><path fill="#f3f3f3" d="m728.73224 343.53586l28.029663 -54.740173l75.15143 0l-28.029724 54.740173z" fill-rule="evenodd"/><path stroke="#000000" stroke-width="2.0" stroke-linejoin="round" stroke-linecap="butt" d="m728.73224 343.53586l28.029663 -54.740173l75.15143 0l-28.029724 54.740173z" fill-rule="evenodd"/><path fill="#f4cccc" d="m656.8976 179.34468l0 0c0 -2.635315 2.3337402 -4.771652 5.2125854 -4.771652l0 0c2.8788452 0 5.2125854 2.1363373 5.2125854 4.771652l0 0c0 2.635315 -2.3337402 4.771652 -5.2125854 4.771652l0 0c-2.8788452 0 -5.2125854 -2.1363373 -5.2125854 -4.771652z" fill-rule="evenodd"/><path stroke="#000000" stroke-width="2.0" stroke-linejoin="round" stroke-linecap="butt" d="m656.8976 179.34468l0 0c0 -2.635315 2.3337402 -4.771652 5.2125854 -4.771652l0 0c2.8788452 0 5.2125854 2.1363373 5.2125854 4.771652l0 0c0 2.635315 -2.3337402 4.771652 -5.2125854 4.771652l0 0c-2.8788452 0 -5.2125854 -2.1363373 -5.2125854 -4.771652z" fill-rule="evenodd"/><path fill="#b7b7b7" d="m581.0629 179.34468l0 0c0 -2.635315 2.3337402 -4.771652 5.2125854 -4.771652l0 0c2.8788452 0 5.2125854 2.1363373 5.2125854 4.771652l0 0c0 2.635315 -2.3337402 4.771652 -5.2125854 4.771652l0 0c-2.8788452 0 -5.2125854 -2.1363373 -5.2125854 -4.771652z" fill-rule="evenodd"/><path stroke="#000000" stroke-width="2.0" stroke-linejoin="round" stroke-linecap="butt" d="m581.0629 179.34468l0 0c0 -2.635315 2.3337402 -4.771652 5.2125854 -4.771652l0 0c2.8788452 0 5.2125854 2.1363373 5.2125854 4.771652l0 0c0 2.635315 -2.3337402 4.771652 -5.2125854 4.771652l0 0c-2.8788452 0 -5.2125854 -2.1363373 -5.2125854 -4.771652z" fill-rule="evenodd"/><path fill="#000000" fill-opacity="0.0" d="m561.6076 153.34294l30.330688 0l0 26.551178l-30.330688 0z" fill-rule="evenodd"/><path fill="#000000" d="m578.5607 174.09853l-1.875 0l0 -11.9375q-0.6875 0.640625 -1.78125 1.28125q-1.09375 0.640625 -1.96875 0.96875l0 -1.8125q1.5625 -0.734375 2.734375 -1.78125q1.1875 -1.0625 1.671875 -2.046875l1.21875 0l0 15.328125z" fill-rule="nonzero"/><path fill="#6fa8dc" d="m506.0708 179.34337l0 0c0 -2.635315 2.3337708 -4.771652 5.212616 -4.771652l0 0c2.8788147 0 5.212616 2.1363373 5.212616 4.771652l0 0c0 2.635315 -2.3338013 4.771652 -5.212616 4.771652l0 0c-2.8788452 0 -5.212616 -2.1363373 -5.212616 -4.771652z" fill-rule="evenodd"/><path stroke="#000000" stroke-width="2.0" stroke-linejoin="round" stroke-linecap="butt" d="m506.0708 179.34337l0 0c0 -2.635315 2.3337708 -4.771652 5.212616 -4.771652l0 0c2.8788147 0 5.212616 2.1363373 5.212616 4.771652l0 0c0 2.635315 -2.3338013 4.771652 -5.212616 4.771652l0 0c-2.8788452 0 -5.212616 -2.1363373 -5.212616 -4.771652z" fill-rule="evenodd"/><path fill="#000000" fill-opacity="0.0" d="m486.61548 153.34163l30.330688 0l0 26.551178l-30.330688 0z" fill-rule="evenodd"/><path fill="#000000" d="m506.34985 172.30034l0 1.796875l-10.09375 0q-0.015625 -0.671875 0.21875 -1.296875q0.390625 -1.03125 1.234375 -2.03125q0.859375 -1.0 2.453125 -2.3125q2.5 -2.046875 3.375 -3.234375q0.875 -1.203125 0.875 -2.25q0 -1.125 -0.796875 -1.890625q-0.796875 -0.765625 -2.078125 -0.765625q-1.359375 0 -2.171875 0.8125q-0.8125 0.8125 -0.828125 2.25l-1.921875 -0.1875q0.203125 -2.15625 1.484375 -3.28125q1.296875 -1.140625 3.46875 -1.140625q2.203125 0 3.484375 1.21875q1.28125 1.21875 1.28125 3.015625q0 0.921875 -0.375 1.8125q-0.375 0.875 -1.25 1.859375q-0.859375 0.96875 -2.890625 2.6875q-1.6875 1.40625 -2.171875 1.921875q-0.46875 0.5 -0.78125 1.015625l7.484375 0z" fill-rule="nonzero"/><path fill="#b7b7b7" d="m732.87524 179.34468l0 0c0 -2.635315 2.3338013 -4.771652 5.2126465 -4.771652l0 0c2.8787842 0 5.2125854 2.1363373 5.2125854 4.771652l0 0c0 2.635315 -2.3338013 4.771652 -5.2125854 4.771652l0 0c-2.8788452 0 -5.2126465 -2.1363373 -5.2126465 -4.771652z" fill-rule="evenodd"/><path stroke="#000000" stroke-width="2.0" stroke-linejoin="round" stroke-linecap="butt" d="m732.87524 179.34468l0 0c0 -2.635315 2.3338013 -4.771652 5.2126465 -4.771652l0 0c2.8787842 0 5.2125854 2.1363373 5.2125854 4.771652l0 0c0 2.635315 -2.3338013 4.771652 -5.2125854 4.771652l0 0c-2.8788452 0 -5.2126465 -2.1363373 -5.2126465 -4.771652z" fill-rule="evenodd"/><path fill="#000000" fill-opacity="0.0" d="m713.4199 153.34294l30.33075 0l0 26.551178l-30.33075 0z" fill-rule="evenodd"/><path fill="#000000" d="m730.37305 174.09853l-1.875 0l0 -11.9375q-0.6875 0.640625 -1.78125 1.28125q-1.09375 0.640625 -1.96875 0.96875l0 -1.8125q1.5625 -0.734375 2.734375 -1.78125q1.1875 -1.0625 1.671875 -2.046875l1.21875 0l0 15.328125z" fill-rule="nonzero"/><path fill="#6fa8dc" d="m806.8215 179.34468l0 0c0 -2.635315 2.3337402 -4.771652 5.2125854 -4.771652l0 0c2.8788452 0 5.2125854 2.1363373 5.2125854 4.771652l0 0c0 2.635315 -2.3337402 4.771652 -5.2125854 4.771652l0 0c-2.8788452 0 -5.2125854 -2.1363373 -5.2125854 -4.771652z" fill-rule="evenodd"/><path stroke="#000000" stroke-width="2.0" stroke-linejoin="round" stroke-linecap="butt" d="m806.8215 179.34468l0 0c0 -2.635315 2.3337402 -4.771652 5.2125854 -4.771652l0 0c2.8788452 0 5.2125854 2.1363373 5.2125854 4.771652l0 0c0 2.635315 -2.3337402 4.771652 -5.2125854 4.771652l0 0c-2.8788452 0 -5.2125854 -2.1363373 -5.2125854 -4.771652z" fill-rule="evenodd"/><path fill="#000000" fill-opacity="0.0" d="m787.36615 153.34294l30.330688 0l0 26.551178l-30.330688 0z" fill-rule="evenodd"/><path fill="#000000" d="m807.1005 172.30165l0 1.796875l-10.09375 0q-0.015625 -0.671875 0.21875 -1.296875q0.390625 -1.03125 1.234375 -2.03125q0.859375 -1.0 2.453125 -2.3125q2.5 -2.046875 3.375 -3.234375q0.875 -1.203125 0.875 -2.25q0 -1.125 -0.796875 -1.890625q-0.796875 -0.765625 -2.078125 -0.765625q-1.359375 0 -2.171875 0.8125q-0.8125 0.8125 -0.828125 2.25l-1.921875 -0.1875q0.203125 -2.15625 1.484375 -3.28125q1.296875 -1.140625 3.46875 -1.140625q2.203125 0 3.484375 1.21875q1.28125 1.21875 1.28125 3.015625q0 0.921875 -0.375 1.8125q-0.375 0.875 -1.25 1.859375q-0.859375 0.96875 -2.890625 2.6875q-1.6875 1.40625 -2.171875 1.921875q-0.46875 0.5 -0.78125 1.015625l7.484375 0z" fill-rule="nonzero"/><path fill="#b7b7b7" d="m553.74536 234.61502l0 0c0 -2.635315 2.3337402 -4.771652 5.2125854 -4.771652l0 0c2.8788452 0 5.2125854 2.1363373 5.2125854 4.771652l0 0c0 2.635315 -2.3337402 4.771652 -5.2125854 4.771652l0 0c-2.8788452 0 -5.2125854 -2.1363373 -5.2125854 -4.771652z" fill-rule="evenodd"/><path stroke="#000000" stroke-width="2.0" stroke-linejoin="round" stroke-linecap="butt" d="m553.74536 234.61502l0 0c0 -2.635315 2.3337402 -4.771652 5.2125854 -4.771652l0 0c2.8788452 0 5.2125854 2.1363373 5.2125854 4.771652l0 0c0 2.635315 -2.3337402 4.771652 -5.2125854 4.771652l0 0c-2.8788452 0 -5.2125854 -2.1363373 -5.2125854 -4.771652z" fill-rule="evenodd"/><path fill="#000000" fill-opacity="0.0" d="m534.29004 208.61328l30.330688 0l0 26.551178l-30.330688 0z" fill-rule="evenodd"/><path fill="#000000" d="m554.0244 227.57199l0 1.796875l-10.09375 0q-0.015625 -0.671875 0.21875 -1.296875q0.390625 -1.03125 1.234375 -2.03125q0.859375 -1.0 2.453125 -2.3125q2.5 -2.046875 3.375 -3.234375q0.875 -1.203125 0.875 -2.25q0 -1.125 -0.796875 -1.890625q-0.796875 -0.765625 -2.078125 -0.765625q-1.359375 0 -2.171875 0.8125q-0.8125 0.8125 -0.828125 2.25l-1.921875 -0.1875q0.203125 -2.15625 1.484375 -3.28125q1.296875 -1.140625 3.46875 -1.140625q2.203125 0 3.484375 1.21875q1.28125 1.21875 1.28125 3.015625q0 0.921875 -0.375 1.8125q-0.375 0.875 -1.25 1.859375q-0.859375 0.96875 -2.890625 2.6875q-1.6875 1.40625 -2.171875 1.921875q-0.46875 0.5 -0.78125 1.015625l7.484375 0z" fill-rule="nonzero"/><path fill="#b7b7b7" d="m629.1889 234.61371l0 0c0 -2.635315 2.3338013 -4.771652 5.2125854 -4.771652l0 0c2.8788452 0 5.2126465 2.1363373 5.2126465 4.771652l0 0c0 2.635315 -2.3338013 4.771652 -5.2126465 4.771652l0 0c-2.8787842 0 -5.2125854 -2.1363373 -5.2125854 -4.771652z" fill-rule="evenodd"/><path stroke="#000000" stroke-width="2.0" stroke-linejoin="round" stroke-linecap="butt" d="m629.1889 234.61371l0 0c0 -2.635315 2.3338013 -4.771652 5.2125854 -4.771652l0 0c2.8788452 0 5.2126465 2.1363373 5.2126465 4.771652l0 0c0 2.635315 -2.3338013 4.771652 -5.2126465 4.771652l0 0c-2.8787842 0 -5.2125854 -2.1363373 -5.2125854 -4.771652z" fill-rule="evenodd"/><path fill="#000000" fill-opacity="0.0" d="m609.7336 208.61197l30.330688 0l0 26.551178l-30.330688 0z" fill-rule="evenodd"/><path fill="#000000" d="m626.6867 229.36755l-1.875 0l0 -11.9375q-0.6875 0.640625 -1.78125 1.28125q-1.09375 0.640625 -1.96875 0.96875l0 -1.8125q1.5625 -0.734375 2.734375 -1.78125q1.1875 -1.0625 1.671875 -2.046875l1.21875 0l0 15.328125z" fill-rule="nonzero"/><path fill="#b7b7b7" d="m704.6325 234.61502l0 0c0 -2.635315 2.3337402 -4.771652 5.2125854 -4.771652l0 0c2.8788452 0 5.2125854 2.1363373 5.2125854 4.771652l0 0c0 2.635315 -2.3337402 4.771652 -5.2125854 4.771652l0 0c-2.8788452 0 -5.2125854 -2.1363373 -5.2125854 -4.771652z" fill-rule="evenodd"/><path stroke="#000000" stroke-width="2.0" stroke-linejoin="round" stroke-linecap="butt" d="m704.6325 234.61502l0 0c0 -2.635315 2.3337402 -4.771652 5.2125854 -4.771652l0 0c2.8788452 0 5.2125854 2.1363373 5.2125854 4.771652l0 0c0 2.635315 -2.3337402 4.771652 -5.2125854 4.771652l0 0c-2.8788452 0 -5.2125854 -2.1363373 -5.2125854 -4.771652z" fill-rule="evenodd"/><path fill="#000000" fill-opacity="0.0" d="m685.1772 208.61328l30.330688 0l0 26.551178l-30.330688 0z" fill-rule="evenodd"/><path fill="#000000" d="m704.91156 227.57199l0 1.796875l-10.09375 0q-0.015625 -0.671875 0.21875 -1.296875q0.390625 -1.03125 1.234375 -2.03125q0.859375 -1.0 2.453125 -2.3125q2.5 -2.046875 3.375 -3.234375q0.875 -1.203125 0.875 -2.25q0 -1.125 -0.796875 -1.890625q-0.796875 -0.765625 -2.078125 -0.765625q-1.359375 0 -2.171875 0.8125q-0.8125 0.8125 -0.828125 2.25l-1.921875 -0.1875q0.203125 -2.15625 1.484375 -3.28125q1.296875 -1.140625 3.46875 -1.140625q2.203125 0 3.484375 1.21875q1.28125 1.21875 1.28125 3.015625q0 0.921875 -0.375 1.8125q-0.375 0.875 -1.25 1.859375q-0.859375 0.96875 -2.890625 2.6875q-1.6875 1.40625 -2.171875 1.921875q-0.46875 0.5 -0.78125 1.015625l7.484375 0z" fill-rule="nonzero"/><path fill="#6fa8dc" d="m600.517 289.34467l0 0c0 -2.635315 2.3337402 -4.771637 5.2125854 -4.771637l0 0c2.8788452 0 5.2125854 2.136322 5.2125854 4.771637l0 0c0 2.635315 -2.3337402 4.7716675 -5.2125854 4.7716675l0 0c-2.8788452 0 -5.2125854 -2.1363525 -5.2125854 -4.7716675z" fill-rule="evenodd"/><path stroke="#000000" stroke-width="2.0" stroke-linejoin="round" stroke-linecap="butt" d="m600.517 289.34467l0 0c0 -2.635315 2.3337402 -4.771637 5.2125854 -4.771637l0 0c2.8788452 0 5.2125854 2.136322 5.2125854 4.771637l0 0c0 2.635315 -2.3337402 4.7716675 -5.2125854 4.7716675l0 0c-2.8788452 0 -5.2125854 -2.1363525 -5.2125854 -4.7716675z" fill-rule="evenodd"/><path fill="#000000" fill-opacity="0.0" d="m581.06165 263.34293l30.33075 0l0 26.551208l-30.33075 0z" fill-rule="evenodd"/><path fill="#000000" d="m600.796 282.30167l0 1.796875l-10.09375 0q-0.015625 -0.671875 0.21875 -1.296875q0.390625 -1.03125 1.234375 -2.03125q0.859375 -1.0 2.453125 -2.3125q2.5 -2.046875 3.375 -3.234375q0.875 -1.203125 0.875 -2.25q0 -1.125 -0.796875 -1.890625q-0.796875 -0.765625 -2.078125 -0.765625q-1.359375 0 -2.171875 0.8125q-0.8125 0.8125 -0.828125 2.25l-1.921875 -0.1875q0.203125 -2.15625 1.484375 -3.28125q1.296875 -1.140625 3.46875 -1.140625q2.203125 0 3.484375 1.21875q1.28125 1.21875 1.28125 3.015625q0 0.921875 -0.375 1.8125q-0.375 0.875 -1.25 1.859375q-0.859375 0.96875 -2.890625 2.6875q-1.6875 1.40625 -2.171875 1.921875q-0.46875 0.5 -0.78125 1.015625l7.484375 0z" fill-rule="nonzero"/><path fill="#b7b7b7" d="m610.0183 124.07302l0 0c0 -2.6353073 2.3337402 -4.771652 5.2125854 -4.771652l0 0c2.8788452 0 5.2125854 2.136345 5.2125854 4.771652l0 0c0 2.635315 -2.3337402 4.77166 -5.2125854 4.77166l0 0c-2.8788452 0 -5.2125854 -2.136345 -5.2125854 -4.77166z" fill-rule="evenodd"/><path stroke="#000000" stroke-width="2.0" stroke-linejoin="round" stroke-linecap="butt" d="m610.0183 124.07302l0 0c0 -2.6353073 2.3337402 -4.771652 5.2125854 -4.771652l0 0c2.8788452 0 5.2125854 2.136345 5.2125854 4.771652l0 0c0 2.635315 -2.3337402 4.77166 -5.2125854 4.77166l0 0c-2.8788452 0 -5.2125854 -2.136345 -5.2125854 -4.77166z" fill-rule="evenodd"/><path fill="#000000" fill-opacity="0.0" d="m590.563 98.07129l30.330688 0l0 26.551178l-30.330688 0z" fill-rule="evenodd"/><path fill="#000000" d="m610.29736 117.03001l0 1.796875l-10.09375 0q-0.015625 -0.671875 0.21875 -1.296875q0.390625 -1.03125 1.234375 -2.03125q0.859375 -1.0 2.453125 -2.3125q2.5 -2.046875 3.375 -3.234375q0.875 -1.203125 0.875 -2.25q0 -1.125 -0.796875 -1.890625q-0.796875 -0.765625 -2.078125 -0.765625q-1.359375 0 -2.171875 0.8125q-0.8125 0.8125 -0.828125 2.25l-1.921875 -0.1875q0.203125 -2.15625 1.484375 -3.28125q1.296875 -1.140625 3.46875 -1.140625q2.203125 0 3.484375 1.21875q1.28125 1.21875 1.28125 3.015625q0 0.921875 -0.375 1.8125q-0.375 0.875 -1.25 1.859375q-0.859375 0.96875 -2.890625 2.6875q-1.6875 1.40625 -2.171875 1.921875q-0.46875 0.5 -0.78125 1.015625l7.484375 0z" fill-rule="nonzero"/><path fill="#b7b7b7" d="m685.47235 124.07302l0 0c0 -2.6353073 2.3338013 -4.771652 5.2126465 -4.771652l0 0c2.8788452 0 5.2125854 2.136345 5.2125854 4.771652l0 0c0 2.635315 -2.3337402 4.77166 -5.2125854 4.77166l0 0c-2.8788452 0 -5.2126465 -2.136345 -5.2126465 -4.77166z" fill-rule="evenodd"/><path stroke="#000000" stroke-width="2.0" stroke-linejoin="round" stroke-linecap="butt" d="m685.47235 124.07302l0 0c0 -2.6353073 2.3338013 -4.771652 5.2126465 -4.771652l0 0c2.8788452 0 5.2125854 2.136345 5.2125854 4.771652l0 0c0 2.635315 -2.3337402 4.77166 -5.2125854 4.77166l0 0c-2.8788452 0 -5.2126465 -2.136345 -5.2126465 -4.77166z" fill-rule="evenodd"/><path fill="#000000" fill-opacity="0.0" d="m666.017 98.07129l30.33075 0l0 26.551178l-30.33075 0z" fill-rule="evenodd"/><path fill="#000000" d="m682.97015 118.82688l-1.875 0l0 -11.9375q-0.6875 0.640625 -1.78125 1.28125q-1.09375 0.640625 -1.96875 0.96875l0 -1.8125q1.5625 -0.734375 2.734375 -1.78125q1.1875 -1.0625 1.671875 -2.046875l1.21875 0l0 15.328125z" fill-rule="nonzero"/><path fill="#b7b7b7" d="m760.9251 124.07433l0 0c0 -2.6353073 2.3338013 -4.771652 5.2126465 -4.771652l0 0c2.8788452 0 5.2125854 2.136345 5.2125854 4.771652l0 0c0 2.635315 -2.3337402 4.77166 -5.2125854 4.77166l0 0c-2.8788452 0 -5.2126465 -2.136345 -5.2126465 -4.77166z" fill-rule="evenodd"/><path stroke="#000000" stroke-width="2.0" stroke-linejoin="round" stroke-linecap="butt" d="m760.9251 124.07433l0 0c0 -2.6353073 2.3338013 -4.771652 5.2126465 -4.771652l0 0c2.8788452 0 5.2125854 2.136345 5.2125854 4.771652l0 0c0 2.635315 -2.3337402 4.77166 -5.2125854 4.77166l0 0c-2.8788452 0 -5.2126465 -2.136345 -5.2126465 -4.77166z" fill-rule="evenodd"/><path fill="#000000" fill-opacity="0.0" d="m741.4698 98.0726l30.33075 0l0 26.551178l-30.33075 0z" fill-rule="evenodd"/><path fill="#000000" d="m761.20416 117.03132l0 1.796875l-10.09375 0q-0.015625 -0.671875 0.21875 -1.296875q0.390625 -1.03125 1.234375 -2.03125q0.859375 -1.0 2.453125 -2.3125q2.5 -2.046875 3.375 -3.234375q0.875 -1.203125 0.875 -2.25q0 -1.125 -0.796875 -1.890625q-0.796875 -0.765625 -2.078125 -0.765625q-1.359375 0 -2.171875 0.8125q-0.8125 0.8125 -0.828125 2.25l-1.921875 -0.1875q0.203125 -2.15625 1.484375 -3.28125q1.296875 -1.140625 3.46875 -1.140625q2.203125 0 3.484375 1.21875q1.28125 1.21875 1.28125 3.015625q0 0.921875 -0.375 1.8125q-0.375 0.875 -1.25 1.859375q-0.859375 0.96875 -2.890625 2.6875q-1.6875 1.40625 -2.171875 1.921875q-0.46875 0.5 -0.78125 1.015625l7.484375 0z" fill-rule="nonzero"/><path fill="#6fa8dc" d="m714.1338 69.34467l0 0c0 -2.6353073 2.3337402 -4.771652 5.2125854 -4.771652l0 0c2.8788452 0 5.2126465 2.136345 5.2126465 4.771652l0 0c0 2.635315 -2.3338013 4.77166 -5.2126465 4.77166l0 0c-2.8788452 0 -5.2125854 -2.136345 -5.2125854 -4.77166z" fill-rule="evenodd"/><path stroke="#000000" stroke-width="2.0" stroke-linejoin="round" stroke-linecap="butt" d="m714.1338 69.34467l0 0c0 -2.6353073 2.3337402 -4.771652 5.2125854 -4.771652l0 0c2.8788452 0 5.2126465 2.136345 5.2126465 4.771652l0 0c0 2.635315 -2.3338013 4.77166 -5.2126465 4.77166l0 0c-2.8788452 0 -5.2125854 -2.136345 -5.2125854 -4.77166z" fill-rule="evenodd"/><path fill="#000000" fill-opacity="0.0" d="m694.67847 43.34294l30.330688 0l0 26.551178l-30.330688 0z" fill-rule="evenodd"/><path fill="#000000" d="m714.41284 62.301655l0 1.7968788l-10.09375 0q-0.015625 -0.6718788 0.21875 -1.2968788q0.390625 -1.03125 1.234375 -2.03125q0.859375 -1.0 2.453125 -2.3125q2.5 -2.046875 3.375 -3.234375q0.875 -1.203125 0.875 -2.25q0 -1.125 -0.796875 -1.890625q-0.796875 -0.765625 -2.078125 -0.765625q-1.359375 0 -2.171875 0.8125q-0.8125 0.8125 -0.828125 2.25l-1.921875 -0.1875q0.203125 -2.15625 1.484375 -3.28125q1.296875 -1.140625 3.46875 -1.140625q2.203125 0 3.484375 1.21875q1.28125 1.21875 1.28125 3.015625q0 0.921875 -0.375 1.8125q-0.375 0.875 -1.25 1.859375q-0.859375 0.96875 -2.890625 2.6875q-1.6875 1.40625 -2.171875 1.921875q-0.46875 0.5 -0.78125 1.015625l7.484375 0z" fill-rule="nonzero"/><path fill="#f3f3f3" d="m150.66148 416.514l28.029709 -54.740143l75.1514 0l-28.029694 54.740143z" fill-rule="evenodd"/><path stroke="#000000" stroke-width="2.0" stroke-linejoin="round" stroke-linecap="butt" d="m150.66148 416.514l28.029709 -54.740143l75.1514 0l-28.029694 54.740143z" fill-rule="evenodd"/><path fill="#f3f3f3" d="m225.99931 416.514l28.029694 -54.740143l75.15141 0l-28.029724 54.740143z" fill-rule="evenodd"/><path stroke="#000000" stroke-width="2.0" stroke-linejoin="round" stroke-linecap="butt" d="m225.99931 416.514l28.029694 -54.740143l75.15141 0l-28.029724 54.740143z" fill-rule="evenodd"/><path fill="#f3f3f3" d="m301.2189 416.514l28.029694 -54.740143l75.15143 0l-28.029724 54.740143z" fill-rule="evenodd"/><path stroke="#000000" stroke-width="2.0" stroke-linejoin="round" stroke-linecap="butt" d="m301.2189 416.514l28.029694 -54.740143l75.15143 0l-28.029724 54.740143z" fill-rule="evenodd"/><path fill="#f3f3f3" d="m376.55832 416.514l28.029694 -54.740143l75.1514 0l-28.029694 54.740143z" fill-rule="evenodd"/><path stroke="#000000" stroke-width="2.0" stroke-linejoin="round" stroke-linecap="butt" d="m376.55832 416.514l28.029694 -54.740143l75.1514 0l-28.029694 54.740143z" fill-rule="evenodd"/><path fill="#f3f3f3" d="m122.78901 471.243l28.029701 -54.740173l75.1514 0l-28.029694 54.740173z" fill-rule="evenodd"/><path stroke="#000000" stroke-width="2.0" stroke-linejoin="round" stroke-linecap="butt" d="m122.78901 471.243l28.029701 -54.740173l75.1514 0l-28.029694 54.740173z" fill-rule="evenodd"/><path fill="#f3f3f3" d="m198.12682 471.243l28.029709 -54.740173l75.1514 0l-28.029694 54.740173z" fill-rule="evenodd"/><path stroke="#000000" stroke-width="2.0" stroke-linejoin="round" stroke-linecap="butt" d="m198.12682 471.243l28.029709 -54.740173l75.1514 0l-28.029694 54.740173z" fill-rule="evenodd"/><path fill="#b7b7b7" d="m273.34644 471.243l28.029694 -54.740173l75.1514 0l-28.029694 54.740173z" fill-rule="evenodd"/><path stroke="#000000" stroke-width="2.0" stroke-linejoin="round" stroke-linecap="butt" d="m273.34644 471.243l28.029694 -54.740173l75.1514 0l-28.029694 54.740173z" fill-rule="evenodd"/><path fill="#b7b7b7" d="m348.68585 471.243l28.029694 -54.740173l75.1514 0l-28.029694 54.740173z" fill-rule="evenodd"/><path stroke="#000000" stroke-width="2.0" stroke-linejoin="round" stroke-linecap="butt" d="m348.68585 471.243l28.029694 -54.740173l75.1514 0l-28.029694 54.740173z" fill-rule="evenodd"/><path fill="#f3f3f3" d="m94.739204 525.972l28.029701 -54.740173l75.1514 0l-28.029694 54.740173z" fill-rule="evenodd"/><path stroke="#000000" stroke-width="2.0" stroke-linejoin="round" stroke-linecap="butt" d="m94.739204 525.972l28.029701 -54.740173l75.1514 0l-28.029694 54.740173z" fill-rule="evenodd"/><path fill="#b7b7b7" d="m170.07703 525.972l28.029694 -54.740173l75.1514 0l-28.029694 54.740173z" fill-rule="evenodd"/><path stroke="#000000" stroke-width="2.0" stroke-linejoin="round" stroke-linecap="butt" d="m170.07703 525.972l28.029694 -54.740173l75.1514 0l-28.029694 54.740173z" fill-rule="evenodd"/><path fill="#f4cccc" d="m245.29663 525.972l28.029694 -54.740173l75.1514 0l-28.029694 54.740173z" fill-rule="evenodd"/><path stroke="#000000" stroke-width="2.0" stroke-linejoin="round" stroke-linecap="butt" d="m245.29663 525.972l28.029694 -54.740173l75.1514 0l-28.029694 54.740173z" fill-rule="evenodd"/><path fill="#f4cccc" d="m320.63605 525.972l28.029694 -54.740173l75.1514 0l-28.029694 54.740173z" fill-rule="evenodd"/><path stroke="#000000" stroke-width="2.0" stroke-linejoin="round" stroke-linecap="butt" d="m320.63605 525.972l28.029694 -54.740173l75.1514 0l-28.029694 54.740173z" fill-rule="evenodd"/><path fill="#f3f3f3" d="m66.86672 580.7009l28.029694 -54.740112l75.151405 0l-28.029694 54.740112z" fill-rule="evenodd"/><path stroke="#000000" stroke-width="2.0" stroke-linejoin="round" stroke-linecap="butt" d="m66.86672 580.7009l28.029694 -54.740112l75.151405 0l-28.029694 54.740112z" fill-rule="evenodd"/><path fill="#b7b7b7" d="m142.20454 580.7009l28.029694 -54.740112l75.1514 0l-28.029694 54.740112z" fill-rule="evenodd"/><path stroke="#000000" stroke-width="2.0" stroke-linejoin="round" stroke-linecap="butt" d="m142.20454 580.7009l28.029694 -54.740112l75.1514 0l-28.029694 54.740112z" fill-rule="evenodd"/><path fill="#f4cccc" d="m217.42413 580.7009l28.029709 -54.740112l75.15141 0l-28.029724 54.740112z" fill-rule="evenodd"/><path stroke="#000000" stroke-width="2.0" stroke-linejoin="round" stroke-linecap="butt" d="m217.42413 580.7009l28.029709 -54.740112l75.15141 0l-28.029724 54.740112z" fill-rule="evenodd"/><path fill="#f4cccc" d="m292.76355 580.7009l28.029694 -54.740112l75.1514 0l-28.029694 54.740112z" fill-rule="evenodd"/><path stroke="#000000" stroke-width="2.0" stroke-linejoin="round" stroke-linecap="butt" d="m292.76355 580.7009l28.029694 -54.740112l75.1514 0l-28.029694 54.740112z" fill-rule="evenodd"/><path fill="#f3f3f3" d="m451.59708 416.514l28.029694 -54.740143l75.15143 0l-28.029724 54.740143z" fill-rule="evenodd"/><path stroke="#000000" stroke-width="2.0" stroke-linejoin="round" stroke-linecap="butt" d="m451.59708 416.514l28.029694 -54.740143l75.15143 0l-28.029724 54.740143z" fill-rule="evenodd"/><path fill="#f3f3f3" d="m526.9349 416.514l28.029724 -54.740143l75.15137 0l-28.029663 54.740143z" fill-rule="evenodd"/><path stroke="#000000" stroke-width="2.0" stroke-linejoin="round" stroke-linecap="butt" d="m526.9349 416.514l28.029724 -54.740143l75.15137 0l-28.029663 54.740143z" fill-rule="evenodd"/><path fill="#f3f3f3" d="m423.72458 471.243l28.029694 -54.740173l75.15143 0l-28.029694 54.740173z" fill-rule="evenodd"/><path stroke="#000000" stroke-width="2.0" stroke-linejoin="round" stroke-linecap="butt" d="m423.72458 471.243l28.029694 -54.740173l75.15143 0l-28.029694 54.740173z" fill-rule="evenodd"/><path fill="#f3f3f3" d="m499.0624 471.243l28.029694 -54.740173l75.15143 0l-28.029724 54.740173z" fill-rule="evenodd"/><path stroke="#000000" stroke-width="2.0" stroke-linejoin="round" stroke-linecap="butt" d="m499.0624 471.243l28.029694 -54.740173l75.15143 0l-28.029724 54.740173z" fill-rule="evenodd"/><path fill="#b7b7b7" d="m395.67477 525.972l28.029724 -54.740173l75.1514 0l-28.029694 54.740173z" fill-rule="evenodd"/><path stroke="#000000" stroke-width="2.0" stroke-linejoin="round" stroke-linecap="butt" d="m395.67477 525.972l28.029724 -54.740173l75.1514 0l-28.029694 54.740173z" fill-rule="evenodd"/><path fill="#f3f3f3" d="m471.0126 525.972l28.029694 -54.740173l75.15143 0l-28.029724 54.740173z" fill-rule="evenodd"/><path stroke="#000000" stroke-width="2.0" stroke-linejoin="round" stroke-linecap="butt" d="m471.0126 525.972l28.029694 -54.740173l75.15143 0l-28.029724 54.740173z" fill-rule="evenodd"/><path fill="#b7b7b7" d="m367.8023 580.7009l28.029694 -54.740112l75.1514 0l-28.029694 54.740112z" fill-rule="evenodd"/><path stroke="#000000" stroke-width="2.0" stroke-linejoin="round" stroke-linecap="butt" d="m367.8023 580.7009l28.029694 -54.740112l75.1514 0l-28.029694 54.740112z" fill-rule="evenodd"/><path fill="#f3f3f3" d="m443.1401 580.7009l28.029724 -54.740112l75.1514 0l-28.029724 54.740112z" fill-rule="evenodd"/><path stroke="#000000" stroke-width="2.0" stroke-linejoin="round" stroke-linecap="butt" d="m443.1401 580.7009l28.029724 -54.740112l75.1514 0l-28.029724 54.740112z" fill-rule="evenodd"/><path fill="#f3f3f3" d="m38.751244 635.4283l28.029701 -54.740173l75.1514 0l-28.029694 54.740173z" fill-rule="evenodd"/><path stroke="#000000" stroke-width="2.0" stroke-linejoin="round" stroke-linecap="butt" d="m38.751244 635.4283l28.029701 -54.740173l75.1514 0l-28.029694 54.740173z" fill-rule="evenodd"/><path fill="#f3f3f3" d="m114.08906 635.4283l28.029701 -54.740173l75.1514 0l-28.029694 54.740173z" fill-rule="evenodd"/><path stroke="#000000" stroke-width="2.0" stroke-linejoin="round" stroke-linecap="butt" d="m114.08906 635.4283l28.029701 -54.740173l75.1514 0l-28.029694 54.740173z" fill-rule="evenodd"/><path fill="#b7b7b7" d="m189.30867 635.4283l28.029694 -54.740173l75.15141 0l-28.029724 54.740173z" fill-rule="evenodd"/><path stroke="#000000" stroke-width="2.0" stroke-linejoin="round" stroke-linecap="butt" d="m189.30867 635.4283l28.029694 -54.740173l75.15141 0l-28.029724 54.740173z" fill-rule="evenodd"/><path fill="#b7b7b7" d="m264.64807 635.4283l28.029694 -54.740173l75.15143 0l-28.029724 54.740173z" fill-rule="evenodd"/><path stroke="#000000" stroke-width="2.0" stroke-linejoin="round" stroke-linecap="butt" d="m264.64807 635.4283l28.029694 -54.740173l75.15143 0l-28.029724 54.740173z" fill-rule="evenodd"/><path fill="#f3f3f3" d="m10.878761 690.1572l28.029697 -54.740173l75.1514 0l-28.029694 54.740173z" fill-rule="evenodd"/><path stroke="#000000" stroke-width="2.0" stroke-linejoin="round" stroke-linecap="round" d="m10.878761 690.1572l28.029697 -54.740173l75.1514 0l-28.029694 54.740173z" fill-rule="evenodd"/><path fill="#f3f3f3" d="m86.216576 690.1572l28.029701 -54.740173l75.1514 0l-28.029694 54.740173z" fill-rule="evenodd"/><path stroke="#000000" stroke-width="2.0" stroke-linejoin="round" stroke-linecap="butt" d="m86.216576 690.1572l28.029701 -54.740173l75.1514 0l-28.029694 54.740173z" fill-rule="evenodd"/><path fill="#f3f3f3" d="m161.43617 690.1572l28.029709 -54.740173l75.1514 0l-28.029694 54.740173z" fill-rule="evenodd"/><path stroke="#000000" stroke-width="2.0" stroke-linejoin="round" stroke-linecap="butt" d="m161.43617 690.1572l28.029709 -54.740173l75.1514 0l-28.029694 54.740173z" fill-rule="evenodd"/><path fill="#f3f3f3" d="m236.77559 690.1572l28.029709 -54.740173l75.1514 0l-28.029694 54.740173z" fill-rule="evenodd"/><path stroke="#000000" stroke-width="2.0" stroke-linejoin="round" stroke-linecap="butt" d="m236.77559 690.1572l28.029709 -54.740173l75.1514 0l-28.029694 54.740173z" fill-rule="evenodd"/><path fill="#f3f3f3" d="m339.68683 635.4283l28.029694 -54.740173l75.1514 0l-28.029694 54.740173z" fill-rule="evenodd"/><path stroke="#000000" stroke-width="2.0" stroke-linejoin="round" stroke-linecap="butt" d="m339.68683 635.4283l28.029694 -54.740173l75.1514 0l-28.029694 54.740173z" fill-rule="evenodd"/><path fill="#f3f3f3" d="m415.02463 635.4283l28.029724 -54.740173l75.1514 0l-28.029694 54.740173z" fill-rule="evenodd"/><path stroke="#000000" stroke-width="2.0" stroke-linejoin="round" stroke-linecap="butt" d="m415.02463 635.4283l28.029724 -54.740173l75.1514 0l-28.029694 54.740173z" fill-rule="evenodd"/><path fill="#f3f3f3" d="m311.81433 690.1572l28.029694 -54.740173l75.15143 0l-28.029694 54.740173z" fill-rule="evenodd"/><path stroke="#000000" stroke-width="2.0" stroke-linejoin="round" stroke-linecap="butt" d="m311.81433 690.1572l28.029694 -54.740173l75.15143 0l-28.029694 54.740173z" fill-rule="evenodd"/><path fill="#f3f3f3" d="m387.15216 690.1572l28.029694 -54.740173l75.1514 0l-28.029694 54.740173z" fill-rule="evenodd"/><path stroke="#000000" stroke-width="2.0" stroke-linejoin="round" stroke-linecap="butt" d="m387.15216 690.1572l28.029694 -54.740173l75.1514 0l-28.029694 54.740173z" fill-rule="evenodd"/><path fill="#f4cccc" d="m315.31754 525.96606l0 0c0 -2.635315 2.3337402 -4.7716675 5.2125854 -4.7716675l0 0c2.8788452 0 5.2125854 2.1363525 5.2125854 4.7716675l0 0c0 2.635315 -2.3337402 4.7716675 -5.2125854 4.7716675l0 0c-2.8788452 0 -5.2125854 -2.1363525 -5.2125854 -4.7716675z" fill-rule="evenodd"/><path stroke="#000000" stroke-width="2.0" stroke-linejoin="round" stroke-linecap="butt" d="m315.31754 525.96606l0 0c0 -2.635315 2.3337402 -4.7716675 5.2125854 -4.7716675l0 0c2.8788452 0 5.2125854 2.1363525 5.2125854 4.7716675l0 0c0 2.635315 -2.3337402 4.7716675 -5.2125854 4.7716675l0 0c-2.8788452 0 -5.2125854 -2.1363525 -5.2125854 -4.7716675z" fill-rule="evenodd"/><path fill="#b7b7b7" d="m239.48288 525.96606l0 0c0 -2.635315 2.3337555 -4.7716675 5.2126007 -4.7716675l0 0c2.87883 0 5.2126007 2.1363525 5.2126007 4.7716675l0 0c0 2.635315 -2.3337708 4.7716675 -5.2126007 4.7716675l0 0c-2.8788452 0 -5.2126007 -2.1363525 -5.2126007 -4.7716675z" fill-rule="evenodd"/><path stroke="#000000" stroke-width="2.0" stroke-linejoin="round" stroke-linecap="butt" d="m239.48288 525.96606l0 0c0 -2.635315 2.3337555 -4.7716675 5.2126007 -4.7716675l0 0c2.87883 0 5.2126007 2.1363525 5.2126007 4.7716675l0 0c0 2.635315 -2.3337708 4.7716675 -5.2126007 4.7716675l0 0c-2.8788452 0 -5.2126007 -2.1363525 -5.2126007 -4.7716675z" fill-rule="evenodd"/><path fill="#000000" fill-opacity="0.0" d="m220.02756 499.96432l30.330704 0l0 26.551178l-30.330704 0z" fill-rule="evenodd"/><path fill="#000000" d="m236.98068 520.7199l-1.875 0l0 -11.9375q-0.6875 0.640625 -1.78125 1.28125q-1.09375 0.640625 -1.96875 0.96875l0 -1.8125q1.5625 -0.734375 2.734375 -1.78125q1.1875 -1.0625 1.671875 -2.046875l1.21875 0l0 15.328125z" fill-rule="nonzero"/><path fill="#b7b7b7" d="m391.29523 525.96606l0 0c0 -2.635315 2.3337402 -4.7716675 5.2125854 -4.7716675l0 0c2.8788452 0 5.2125854 2.1363525 5.2125854 4.7716675l0 0c0 2.635315 -2.3337402 4.7716675 -5.2125854 4.7716675l0 0c-2.8788452 0 -5.2125854 -2.1363525 -5.2125854 -4.7716675z" fill-rule="evenodd"/><path stroke="#000000" stroke-width="2.0" stroke-linejoin="round" stroke-linecap="butt" d="m391.29523 525.96606l0 0c0 -2.635315 2.3337402 -4.7716675 5.2125854 -4.7716675l0 0c2.8788452 0 5.2125854 2.1363525 5.2125854 4.7716675l0 0c0 2.635315 -2.3337402 4.7716675 -5.2125854 4.7716675l0 0c-2.8788452 0 -5.2125854 -2.1363525 -5.2125854 -4.7716675z" fill-rule="evenodd"/><path fill="#000000" fill-opacity="0.0" d="m371.83987 499.96432l30.330719 0l0 26.551178l-30.330719 0z" fill-rule="evenodd"/><path fill="#000000" d="m388.793 520.7199l-1.875 0l0 -11.9375q-0.6875 0.640625 -1.78125 1.28125q-1.09375 0.640625 -1.96875 0.96875l0 -1.8125q1.5625 -0.734375 2.734375 -1.78125q1.1875 -1.0625 1.671875 -2.046875l1.21875 0l0 15.328125z" fill-rule="nonzero"/><path fill="#b7b7b7" d="m287.60886 581.2351l0 0c0 -2.635315 2.3337708 -4.7716675 5.212616 -4.7716675l0 0c2.8788147 0 5.2125854 2.1363525 5.2125854 4.7716675l0 0c0 2.635315 -2.3337708 4.7716675 -5.2125854 4.7716675l0 0c-2.8788452 0 -5.212616 -2.1363525 -5.212616 -4.7716675z" fill-rule="evenodd"/><path stroke="#000000" stroke-width="2.0" stroke-linejoin="round" stroke-linecap="butt" d="m287.60886 581.2351l0 0c0 -2.635315 2.3337708 -4.7716675 5.212616 -4.7716675l0 0c2.8788147 0 5.2125854 2.1363525 5.2125854 4.7716675l0 0c0 2.635315 -2.3337708 4.7716675 -5.2125854 4.7716675l0 0c-2.8788452 0 -5.212616 -2.1363525 -5.212616 -4.7716675z" fill-rule="evenodd"/><path fill="#000000" fill-opacity="0.0" d="m268.15353 555.23334l30.330719 0l0 26.551208l-30.330719 0z" fill-rule="evenodd"/><path fill="#000000" d="m285.10666 575.98895l-1.875 0l0 -11.9375q-0.6875 0.640625 -1.78125 1.28125q-1.09375 0.640625 -1.96875 0.96875l0 -1.8125q1.5625 -0.734375 2.734375 -1.78125q1.1875 -1.0625 1.671875 -2.046875l1.21875 0l0 15.328125z" fill-rule="nonzero"/><path fill="#b7b7b7" d="m343.89233 470.69443l0 0c0 -2.635315 2.3337402 -4.7716675 5.2125854 -4.7716675l0 0c2.8788452 0 5.212616 2.1363525 5.212616 4.7716675l0 0c0 2.6352844 -2.3337708 4.771637 -5.212616 4.771637l0 0c-2.8788452 0 -5.2125854 -2.1363525 -5.2125854 -4.771637z" fill-rule="evenodd"/><path stroke="#000000" stroke-width="2.0" stroke-linejoin="round" stroke-linecap="butt" d="m343.89233 470.69443l0 0c0 -2.635315 2.3337402 -4.7716675 5.2125854 -4.7716675l0 0c2.8788452 0 5.212616 2.1363525 5.212616 4.7716675l0 0c0 2.6352844 -2.3337708 4.771637 -5.212616 4.771637l0 0c-2.8788452 0 -5.2125854 -2.1363525 -5.2125854 -4.771637z" fill-rule="evenodd"/><path fill="#000000" fill-opacity="0.0" d="m324.437 444.6927l30.330688 0l0 26.551178l-30.330688 0z" fill-rule="evenodd"/><path fill="#000000" d="m341.39014 465.44827l-1.875 0l0 -11.9375q-0.6875 0.640625 -1.78125 1.28125q-1.09375 0.640625 -1.96875 0.96875l0 -1.8125q1.5625 -0.734375 2.734375 -1.78125q1.1875 -1.0625 1.671875 -2.046875l1.21875 0l0 15.328125z" fill-rule="nonzero"/><path fill="#f3f3f3" d="m649.4384 416.514l28.029663 -54.740143l75.15143 0l-28.029724 54.740143z" fill-rule="evenodd"/><path stroke="#000000" stroke-width="2.0" stroke-linejoin="round" stroke-linecap="butt" d="m649.4384 416.514l28.029663 -54.740143l75.15143 0l-28.029724 54.740143z" fill-rule="evenodd"/><path fill="#f3f3f3" d="m724.7762 416.514l28.029724 -54.740143l75.15143 0l-28.029724 54.740143z" fill-rule="evenodd"/><path stroke="#000000" stroke-width="2.0" stroke-linejoin="round" stroke-linecap="butt" d="m724.7762 416.514l28.029724 -54.740143l75.15143 0l-28.029724 54.740143z" fill-rule="evenodd"/><path fill="#f3f3f3" d="m799.9958 416.514l28.029724 -54.740143l75.15143 0l-28.029724 54.740143z" fill-rule="evenodd"/><path stroke="#000000" stroke-width="2.0" stroke-linejoin="round" stroke-linecap="butt" d="m799.9958 416.514l28.029724 -54.740143l75.15143 0l-28.029724 54.740143z" fill-rule="evenodd"/><path fill="#f3f3f3" d="m875.3352 416.514l28.029724 -54.740143l75.15137 0l-28.029663 54.740143z" fill-rule="evenodd"/><path stroke="#000000" stroke-width="2.0" stroke-linejoin="round" stroke-linecap="butt" d="m875.3352 416.514l28.029724 -54.740143l75.15137 0l-28.029663 54.740143z" fill-rule="evenodd"/><path fill="#f3f3f3" d="m621.5659 471.243l28.029663 -54.740173l75.15143 0l-28.029724 54.740173z" fill-rule="evenodd"/><path stroke="#000000" stroke-width="2.0" stroke-linejoin="round" stroke-linecap="butt" d="m621.5659 471.243l28.029663 -54.740173l75.15143 0l-28.029724 54.740173z" fill-rule="evenodd"/><path fill="#f3f3f3" d="m696.90375 471.243l28.029663 -54.740173l75.15143 0l-28.029724 54.740173z" fill-rule="evenodd"/><path stroke="#000000" stroke-width="2.0" stroke-linejoin="round" stroke-linecap="butt" d="m696.90375 471.243l28.029663 -54.740173l75.15143 0l-28.029724 54.740173z" fill-rule="evenodd"/><path fill="#f3f3f3" d="m772.12335 471.243l28.029663 -54.740173l75.15143 0l-28.029724 54.740173z" fill-rule="evenodd"/><path stroke="#000000" stroke-width="2.0" stroke-linejoin="round" stroke-linecap="butt" d="m772.12335 471.243l28.029663 -54.740173l75.15143 0l-28.029724 54.740173z" fill-rule="evenodd"/><path fill="#b7b7b7" d="m847.46277 471.243l28.029663 -54.740173l75.15143 0l-28.029724 54.740173z" fill-rule="evenodd"/><path stroke="#000000" stroke-width="2.0" stroke-linejoin="round" stroke-linecap="butt" d="m847.46277 471.243l28.029663 -54.740173l75.15143 0l-28.029724 54.740173z" fill-rule="evenodd"/><path fill="#9fc5e8" d="m593.5161 525.972l28.029663 -54.740173l75.15143 0l-28.029663 54.740173z" fill-rule="evenodd"/><path stroke="#000000" stroke-width="2.0" stroke-linejoin="round" stroke-linecap="butt" d="m593.5161 525.972l28.029663 -54.740173l75.15143 0l-28.029663 54.740173z" fill-rule="evenodd"/><path fill="#9fc5e8" d="m668.85394 525.972l28.029663 -54.740173l75.15143 0l-28.029724 54.740173z" fill-rule="evenodd"/><path stroke="#000000" stroke-width="2.0" stroke-linejoin="round" stroke-linecap="butt" d="m668.85394 525.972l28.029663 -54.740173l75.15143 0l-28.029724 54.740173z" fill-rule="evenodd"/><path fill="#f4cccc" d="m744.07355 525.972l28.029663 -54.740173l75.15143 0l-28.029724 54.740173z" fill-rule="evenodd"/><path stroke="#000000" stroke-width="2.0" stroke-linejoin="round" stroke-linecap="butt" d="m744.07355 525.972l28.029663 -54.740173l75.15143 0l-28.029724 54.740173z" fill-rule="evenodd"/><path fill="#f4cccc" d="m819.41296 525.972l28.029663 -54.740173l75.15143 0l-28.029724 54.740173z" fill-rule="evenodd"/><path stroke="#000000" stroke-width="2.0" stroke-linejoin="round" stroke-linecap="butt" d="m819.41296 525.972l28.029663 -54.740173l75.15143 0l-28.029724 54.740173z" fill-rule="evenodd"/><path fill="#9fc5e8" d="m565.6436 580.7009l28.029724 -54.740112l75.15137 0l-28.029663 54.740112z" fill-rule="evenodd"/><path stroke="#000000" stroke-width="2.0" stroke-linejoin="round" stroke-linecap="butt" d="m565.6436 580.7009l28.029724 -54.740112l75.15137 0l-28.029663 54.740112z" fill-rule="evenodd"/><path fill="#9fc5e8" d="m640.98145 580.7009l28.029663 -54.740112l75.15143 0l-28.029663 54.740112z" fill-rule="evenodd"/><path stroke="#000000" stroke-width="2.0" stroke-linejoin="round" stroke-linecap="butt" d="m640.98145 580.7009l28.029663 -54.740112l75.15143 0l-28.029663 54.740112z" fill-rule="evenodd"/><path fill="#f4cccc" d="m716.20105 580.7009l28.029663 -54.740112l75.15143 0l-28.029663 54.740112z" fill-rule="evenodd"/><path stroke="#000000" stroke-width="2.0" stroke-linejoin="round" stroke-linecap="butt" d="m716.20105 580.7009l28.029663 -54.740112l75.15143 0l-28.029663 54.740112z" fill-rule="evenodd"/><path fill="#f4cccc" d="m791.54047 580.7009l28.029663 -54.740112l75.15143 0l-28.029724 54.740112z" fill-rule="evenodd"/><path stroke="#000000" stroke-width="2.0" stroke-linejoin="round" stroke-linecap="butt" d="m791.54047 580.7009l28.029663 -54.740112l75.15143 0l-28.029724 54.740112z" fill-rule="evenodd"/><path fill="#f3f3f3" d="m950.37396 416.514l28.029724 -54.740143l75.15137 0l-28.029663 54.740143z" fill-rule="evenodd"/><path stroke="#000000" stroke-width="2.0" stroke-linejoin="round" stroke-linecap="butt" d="m950.37396 416.514l28.029724 -54.740143l75.15137 0l-28.029663 54.740143z" fill-rule="evenodd"/><path fill="#f3f3f3" d="m1025.7118 416.514l28.029663 -54.740143l75.15149 0l-28.029785 54.740143z" fill-rule="evenodd"/><path stroke="#000000" stroke-width="2.0" stroke-linejoin="round" stroke-linecap="butt" d="m1025.7118 416.514l28.029663 -54.740143l75.15149 0l-28.029785 54.740143z" fill-rule="evenodd"/><path fill="#b7b7b7" d="m922.50146 471.243l28.029724 -54.740173l75.15143 0l-28.029724 54.740173z" fill-rule="evenodd"/><path stroke="#000000" stroke-width="2.0" stroke-linejoin="round" stroke-linecap="butt" d="m922.50146 471.243l28.029724 -54.740173l75.15143 0l-28.029724 54.740173z" fill-rule="evenodd"/><path fill="#f3f3f3" d="m997.8393 471.243l28.029724 -54.740173l75.15137 0l-28.029663 54.740173z" fill-rule="evenodd"/><path stroke="#000000" stroke-width="2.0" stroke-linejoin="round" stroke-linecap="butt" d="m997.8393 471.243l28.029724 -54.740173l75.15137 0l-28.029663 54.740173z" fill-rule="evenodd"/><path fill="#b7b7b7" d="m894.45166 525.972l28.029724 -54.740173l75.15143 0l-28.029724 54.740173z" fill-rule="evenodd"/><path stroke="#000000" stroke-width="2.0" stroke-linejoin="round" stroke-linecap="butt" d="m894.45166 525.972l28.029724 -54.740173l75.15143 0l-28.029724 54.740173z" fill-rule="evenodd"/><path fill="#f3f3f3" d="m969.7895 525.972l28.029724 -54.740173l75.15137 0l-28.029663 54.740173z" fill-rule="evenodd"/><path stroke="#000000" stroke-width="2.0" stroke-linejoin="round" stroke-linecap="butt" d="m969.7895 525.972l28.029724 -54.740173l75.15137 0l-28.029663 54.740173z" fill-rule="evenodd"/><path fill="#f3f3f3" d="m866.5792 580.7009l28.029663 -54.740112l75.15143 0l-28.029724 54.740112z" fill-rule="evenodd"/><path stroke="#000000" stroke-width="2.0" stroke-linejoin="round" stroke-linecap="butt" d="m866.5792 580.7009l28.029663 -54.740112l75.15143 0l-28.029724 54.740112z" fill-rule="evenodd"/><path fill="#f3f3f3" d="m941.917 580.7009l28.029724 -54.740112l75.15143 0l-28.029724 54.740112z" fill-rule="evenodd"/><path stroke="#000000" stroke-width="2.0" stroke-linejoin="round" stroke-linecap="butt" d="m941.917 580.7009l28.029724 -54.740112l75.15143 0l-28.029724 54.740112z" fill-rule="evenodd"/><path fill="#f3f3f3" d="m537.52814 635.4283l28.029724 -54.740173l75.15137 0l-28.029663 54.740173z" fill-rule="evenodd"/><path stroke="#000000" stroke-width="2.0" stroke-linejoin="round" stroke-linecap="butt" d="m537.52814 635.4283l28.029724 -54.740173l75.15137 0l-28.029663 54.740173z" fill-rule="evenodd"/><path fill="#f3f3f3" d="m612.86597 635.4283l28.029663 -54.740173l75.15143 0l-28.029663 54.740173z" fill-rule="evenodd"/><path stroke="#000000" stroke-width="2.0" stroke-linejoin="round" stroke-linecap="butt" d="m612.86597 635.4283l28.029663 -54.740173l75.15143 0l-28.029663 54.740173z" fill-rule="evenodd"/><path fill="#9fc5e8" d="m688.0856 635.4283l28.029663 -54.740173l75.15143 0l-28.029663 54.740173z" fill-rule="evenodd"/><path stroke="#000000" stroke-width="2.0" stroke-linejoin="round" stroke-linecap="butt" d="m688.0856 635.4283l28.029663 -54.740173l75.15143 0l-28.029663 54.740173z" fill-rule="evenodd"/><path fill="#9fc5e8" d="m763.425 635.4283l28.029663 -54.740173l75.15143 0l-28.029724 54.740173z" fill-rule="evenodd"/><path stroke="#000000" stroke-width="2.0" stroke-linejoin="round" stroke-linecap="butt" d="m763.425 635.4283l28.029663 -54.740173l75.15143 0l-28.029724 54.740173z" fill-rule="evenodd"/><path fill="#f3f3f3" d="m509.65567 690.1572l28.029694 -54.740173l75.15143 0l-28.029724 54.740173z" fill-rule="evenodd"/><path stroke="#000000" stroke-width="2.0" stroke-linejoin="round" stroke-linecap="round" d="m509.65567 690.1572l28.029694 -54.740173l75.15143 0l-28.029724 54.740173z" fill-rule="evenodd"/><path fill="#f3f3f3" d="m584.99347 690.1572l28.029724 -54.740173l75.15137 0l-28.029663 54.740173z" fill-rule="evenodd"/><path stroke="#000000" stroke-width="2.0" stroke-linejoin="round" stroke-linecap="butt" d="m584.99347 690.1572l28.029724 -54.740173l75.15137 0l-28.029663 54.740173z" fill-rule="evenodd"/><path fill="#9fc5e8" d="m660.2131 690.1572l28.029724 -54.740173l75.15137 0l-28.029663 54.740173z" fill-rule="evenodd"/><path stroke="#000000" stroke-width="2.0" stroke-linejoin="round" stroke-linecap="butt" d="m660.2131 690.1572l28.029724 -54.740173l75.15137 0l-28.029663 54.740173z" fill-rule="evenodd"/><path fill="#9fc5e8" d="m735.5525 690.1572l28.029724 -54.740173l75.15137 0l-28.029663 54.740173z" fill-rule="evenodd"/><path stroke="#000000" stroke-width="2.0" stroke-linejoin="round" stroke-linecap="butt" d="m735.5525 690.1572l28.029724 -54.740173l75.15137 0l-28.029663 54.740173z" fill-rule="evenodd"/><path fill="#f3f3f3" d="m838.46375 635.4283l28.029663 -54.740173l75.15143 0l-28.029724 54.740173z" fill-rule="evenodd"/><path stroke="#000000" stroke-width="2.0" stroke-linejoin="round" stroke-linecap="butt" d="m838.46375 635.4283l28.029663 -54.740173l75.15143 0l-28.029724 54.740173z" fill-rule="evenodd"/><path fill="#f3f3f3" d="m913.8015 635.4283l28.029724 -54.740173l75.15143 0l-28.029724 54.740173z" fill-rule="evenodd"/><path stroke="#000000" stroke-width="2.0" stroke-linejoin="round" stroke-linecap="butt" d="m913.8015 635.4283l28.029724 -54.740173l75.15143 0l-28.029724 54.740173z" fill-rule="evenodd"/><path fill="#f3f3f3" d="m810.59125 690.1572l28.029724 -54.740173l75.15137 0l-28.029663 54.740173z" fill-rule="evenodd"/><path stroke="#000000" stroke-width="2.0" stroke-linejoin="round" stroke-linecap="butt" d="m810.59125 690.1572l28.029724 -54.740173l75.15137 0l-28.029663 54.740173z" fill-rule="evenodd"/><path fill="#f3f3f3" d="m885.9291 690.1572l28.029663 -54.740173l75.15143 0l-28.029724 54.740173z" fill-rule="evenodd"/><path stroke="#000000" stroke-width="2.0" stroke-linejoin="round" stroke-linecap="butt" d="m885.9291 690.1572l28.029663 -54.740173l75.15143 0l-28.029724 54.740173z" fill-rule="evenodd"/><path fill="#f4cccc" d="m814.0944 525.96606l0 0c0 -2.635315 2.3337402 -4.7716675 5.2125854 -4.7716675l0 0c2.8788452 0 5.2126465 2.1363525 5.2126465 4.7716675l0 0c0 2.635315 -2.3338013 4.7716675 -5.2126465 4.7716675l0 0c-2.8788452 0 -5.2125854 -2.1363525 -5.2125854 -4.7716675z" fill-rule="evenodd"/><path stroke="#000000" stroke-width="2.0" stroke-linejoin="round" stroke-linecap="butt" d="m814.0944 525.96606l0 0c0 -2.635315 2.3337402 -4.7716675 5.2125854 -4.7716675l0 0c2.8788452 0 5.2126465 2.1363525 5.2126465 4.7716675l0 0c0 2.635315 -2.3338013 4.7716675 -5.2126465 4.7716675l0 0c-2.8788452 0 -5.2125854 -2.1363525 -5.2125854 -4.7716675z" fill-rule="evenodd"/><path fill="#6fa8dc" d="m663.26764 525.9648l0 0c0 -2.635315 2.3338013 -4.7716675 5.2125854 -4.7716675l0 0c2.8788452 0 5.2126465 2.1363525 5.2126465 4.7716675l0 0c0 2.635254 -2.3338013 4.7716064 -5.2126465 4.7716064l0 0c-2.8787842 0 -5.2125854 -2.1363525 -5.2125854 -4.7716064z" fill-rule="evenodd"/><path stroke="#000000" stroke-width="2.0" stroke-linejoin="round" stroke-linecap="butt" d="m663.26764 525.9648l0 0c0 -2.635315 2.3338013 -4.7716675 5.2125854 -4.7716675l0 0c2.8788452 0 5.2126465 2.1363525 5.2126465 4.7716675l0 0c0 2.635254 -2.3338013 4.7716064 -5.2126465 4.7716064l0 0c-2.8787842 0 -5.2125854 -2.1363525 -5.2125854 -4.7716064z" fill-rule="evenodd"/><path fill="#000000" fill-opacity="0.0" d="m643.8123 499.963l30.33075 0l0 26.551208l-30.33075 0z" fill-rule="evenodd"/><path fill="#000000" d="m663.5467 518.92175l0 1.796875l-10.09375 0q-0.015625 -0.671875 0.21875 -1.296875q0.390625 -1.03125 1.234375 -2.03125q0.859375 -1.0 2.453125 -2.3125q2.5 -2.046875 3.375 -3.2344055q0.875 -1.203125 0.875 -2.25q0 -1.125 -0.796875 -1.890625q-0.796875 -0.765625 -2.078125 -0.765625q-1.359375 0 -2.171875 0.8125q-0.8125 0.8125 -0.828125 2.25l-1.921875 -0.1875q0.203125 -2.15625 1.484375 -3.28125q1.296875 -1.140625 3.46875 -1.140625q2.203125 0 3.484375 1.21875q1.28125 1.21875 1.28125 3.015625q0 0.921875 -0.375 1.8125q-0.375 0.8750305 -1.25 1.8594055q-0.859375 0.96875 -2.890625 2.6875q-1.6875 1.40625 -2.171875 1.921875q-0.46875 0.5 -0.78125 1.015625l7.484375 0z" fill-rule="nonzero"/><path fill="#6fa8dc" d="m964.0183 525.96606l0 0c0 -2.635315 2.3337402 -4.7716675 5.2125854 -4.7716675l0 0c2.8788452 0 5.2125854 2.1363525 5.2125854 4.7716675l0 0c0 2.635315 -2.3337402 4.7716675 -5.2125854 4.7716675l0 0c-2.8788452 0 -5.2125854 -2.1363525 -5.2125854 -4.7716675z" fill-rule="evenodd"/><path stroke="#000000" stroke-width="2.0" stroke-linejoin="round" stroke-linecap="butt" d="m964.0183 525.96606l0 0c0 -2.635315 2.3337402 -4.7716675 5.2125854 -4.7716675l0 0c2.8788452 0 5.2125854 2.1363525 5.2125854 4.7716675l0 0c0 2.635315 -2.3337402 4.7716675 -5.2125854 4.7716675l0 0c-2.8788452 0 -5.2125854 -2.1363525 -5.2125854 -4.7716675z" fill-rule="evenodd"/><path fill="#000000" fill-opacity="0.0" d="m944.563 499.96432l30.330688 0l0 26.551178l-30.330688 0z" fill-rule="evenodd"/><path fill="#000000" d="m964.29736 518.92303l0 1.796875l-10.09375 0q-0.015625 -0.671875 0.21875 -1.296875q0.390625 -1.03125 1.234375 -2.03125q0.859375 -1.0 2.453125 -2.3125q2.5 -2.046875 3.375 -3.234375q0.875 -1.203125 0.875 -2.25q0 -1.125 -0.796875 -1.890625q-0.796875 -0.765625 -2.078125 -0.765625q-1.359375 0 -2.171875 0.8125q-0.8125 0.8125 -0.828125 2.25l-1.921875 -0.1875q0.203125 -2.15625 1.484375 -3.28125q1.296875 -1.140625 3.46875 -1.140625q2.203125 0 3.484375 1.21875q1.28125 1.21875 1.28125 3.015625q0 0.921875 -0.375 1.8125q-0.375 0.875 -1.25 1.859375q-0.859375 0.96875 -2.890625 2.6875q-1.6875 1.40625 -2.171875 1.921875q-0.46875 0.5 -0.78125 1.015625l7.484375 0z" fill-rule="nonzero"/><path fill="#b7b7b7" d="m710.9422 581.2364l0 0c0 -2.635315 2.3337402 -4.7716064 5.2125854 -4.7716064l0 0c2.8788452 0 5.2125854 2.1362915 5.2125854 4.7716064l0 0c0 2.635315 -2.3337402 4.7716675 -5.2125854 4.7716675l0 0c-2.8788452 0 -5.2125854 -2.1363525 -5.2125854 -4.7716675z" fill-rule="evenodd"/><path stroke="#000000" stroke-width="2.0" stroke-linejoin="round" stroke-linecap="butt" d="m710.9422 581.2364l0 0c0 -2.635315 2.3337402 -4.7716064 5.2125854 -4.7716064l0 0c2.8788452 0 5.2125854 2.1362915 5.2125854 4.7716064l0 0c0 2.635315 -2.3337402 4.7716675 -5.2125854 4.7716675l0 0c-2.8788452 0 -5.2125854 -2.1363525 -5.2125854 -4.7716675z" fill-rule="evenodd"/><path fill="#000000" fill-opacity="0.0" d="m691.4869 555.2347l30.330688 0l0 26.551147l-30.330688 0z" fill-rule="evenodd"/><path fill="#000000" d="m711.22125 574.19336l0 1.796875l-10.09375 0q-0.015625 -0.671875 0.21875 -1.296875q0.390625 -1.03125 1.234375 -2.03125q0.859375 -1.0 2.453125 -2.3125q2.5 -2.046875 3.375 -3.234375q0.875 -1.203125 0.875 -2.25q0 -1.125 -0.796875 -1.890625q-0.796875 -0.765625 -2.078125 -0.765625q-1.359375 0 -2.171875 0.8125q-0.8125 0.8125 -0.828125 2.25l-1.921875 -0.1875q0.203125 -2.15625 1.484375 -3.28125q1.296875 -1.140625 3.46875 -1.140625q2.203125 0 3.484375 1.21875q1.28125 1.21875 1.28125 3.015625q0 0.921875 -0.375 1.8125q-0.375 0.875 -1.25 1.859375q-0.859375 0.96875 -2.890625 2.6875q-1.6875 1.40625 -2.171875 1.921875q-0.46875 0.5 -0.78125 1.015625l7.484375 0z" fill-rule="nonzero"/><path fill="#b7b7b7" d="m861.82935 581.2364l0 0c0 -2.635315 2.3337402 -4.7716064 5.2125854 -4.7716064l0 0c2.8788452 0 5.2125854 2.1362915 5.2125854 4.7716064l0 0c0 2.635315 -2.3337402 4.7716675 -5.2125854 4.7716675l0 0c-2.8788452 0 -5.2125854 -2.1363525 -5.2125854 -4.7716675z" fill-rule="evenodd"/><path stroke="#000000" stroke-width="2.0" stroke-linejoin="round" stroke-linecap="butt" d="m861.82935 581.2364l0 0c0 -2.635315 2.3337402 -4.7716064 5.2125854 -4.7716064l0 0c2.8788452 0 5.2125854 2.1362915 5.2125854 4.7716064l0 0c0 2.635315 -2.3337402 4.7716675 -5.2125854 4.7716675l0 0c-2.8788452 0 -5.2125854 -2.1363525 -5.2125854 -4.7716675z" fill-rule="evenodd"/><path fill="#000000" fill-opacity="0.0" d="m842.374 555.2347l30.330688 0l0 26.551147l-30.330688 0z" fill-rule="evenodd"/><path fill="#000000" d="m862.1084 574.19336l0 1.796875l-10.09375 0q-0.015625 -0.671875 0.21875 -1.296875q0.390625 -1.03125 1.234375 -2.03125q0.859375 -1.0 2.453125 -2.3125q2.5 -2.046875 3.375 -3.234375q0.875 -1.203125 0.875 -2.25q0 -1.125 -0.796875 -1.890625q-0.796875 -0.765625 -2.078125 -0.765625q-1.359375 0 -2.171875 0.8125q-0.8125 0.8125 -0.828125 2.25l-1.921875 -0.1875q0.203125 -2.15625 1.484375 -3.28125q1.296875 -1.140625 3.46875 -1.140625q2.203125 0 3.484375 1.21875q1.28125 1.21875 1.28125 3.015625q0 0.921875 -0.375 1.8125q-0.375 0.875 -1.25 1.859375q-0.859375 0.96875 -2.890625 2.6875q-1.6875 1.40625 -2.171875 1.921875q-0.46875 0.5 -0.78125 1.015625l7.484375 0z" fill-rule="nonzero"/><path fill="#6fa8dc" d="m757.71387 635.96606l0 0c0 -2.635315 2.3337402 -4.7716675 5.2125854 -4.7716675l0 0c2.8788452 0 5.2125854 2.1363525 5.2125854 4.7716675l0 0c0 2.635315 -2.3337402 4.7716675 -5.2125854 4.7716675l0 0c-2.8788452 0 -5.2125854 -2.1363525 -5.2125854 -4.7716675z" fill-rule="evenodd"/><path stroke="#000000" stroke-width="2.0" stroke-linejoin="round" stroke-linecap="butt" d="m757.71387 635.96606l0 0c0 -2.635315 2.3337402 -4.7716675 5.2125854 -4.7716675l0 0c2.8788452 0 5.2125854 2.1363525 5.2125854 4.7716675l0 0c0 2.635315 -2.3337402 4.7716675 -5.2125854 4.7716675l0 0c-2.8788452 0 -5.2125854 -2.1363525 -5.2125854 -4.7716675z" fill-rule="evenodd"/><path fill="#000000" fill-opacity="0.0" d="m738.25854 609.96436l30.330688 0l0 26.551147l-30.330688 0z" fill-rule="evenodd"/><path fill="#000000" d="m757.9929 628.92303l0 1.796875l-10.09375 0q-0.015625 -0.671875 0.21875 -1.296875q0.390625 -1.03125 1.234375 -2.03125q0.859375 -1.0 2.453125 -2.3125q2.5 -2.046875 3.375 -3.234375q0.875 -1.203125 0.875 -2.25q0 -1.125 -0.796875 -1.890625q-0.796875 -0.765625 -2.078125 -0.765625q-1.359375 0 -2.171875 0.8125q-0.8125 0.8125 -0.828125 2.25l-1.921875 -0.1875q0.203125 -2.15625 1.484375 -3.28125q1.296875 -1.140625 3.46875 -1.140625q2.203125 0 3.484375 1.21875q1.28125 1.21875 1.28125 3.015625q0 0.921875 -0.375 1.8125q-0.375 0.875 -1.25 1.859375q-0.859375 0.96875 -2.890625 2.6875q-1.6875 1.40625 -2.171875 1.921875q-0.46875 0.5 -0.78125 1.015625l7.484375 0z" fill-rule="nonzero"/><path fill="#b7b7b7" d="m767.21515 470.69443l0 0c0 -2.635315 2.3338013 -4.7716675 5.2125854 -4.7716675l0 0c2.8788452 0 5.2126465 2.1363525 5.2126465 4.7716675l0 0c0 2.6352844 -2.3338013 4.771637 -5.2126465 4.771637l0 0c-2.8787842 0 -5.2125854 -2.1363525 -5.2125854 -4.771637z" fill-rule="evenodd"/><path stroke="#000000" stroke-width="2.0" stroke-linejoin="round" stroke-linecap="butt" d="m767.21515 470.69443l0 0c0 -2.635315 2.3338013 -4.7716675 5.2125854 -4.7716675l0 0c2.8788452 0 5.2126465 2.1363525 5.2126465 4.7716675l0 0c0 2.6352844 -2.3338013 4.771637 -5.2126465 4.771637l0 0c-2.8787842 0 -5.2125854 -2.1363525 -5.2125854 -4.771637z" fill-rule="evenodd"/><path fill="#000000" fill-opacity="0.0" d="m747.7598 444.6927l30.33075 0l0 26.551178l-30.33075 0z" fill-rule="evenodd"/><path fill="#000000" d="m767.4942 463.6514l0 1.796875l-10.09375 0q-0.015625 -0.671875 0.21875 -1.296875q0.390625 -1.03125 1.234375 -2.03125q0.859375 -1.0 2.453125 -2.3125q2.5 -2.046875 3.375 -3.234375q0.875 -1.203125 0.875 -2.25q0 -1.125 -0.796875 -1.890625q-0.796875 -0.765625 -2.078125 -0.765625q-1.359375 0 -2.171875 0.8125q-0.8125 0.8125 -0.828125 2.25l-1.921875 -0.1875q0.203125 -2.15625 1.484375 -3.28125q1.296875 -1.140625 3.46875 -1.140625q2.203125 0 3.484375 1.21875q1.28125 1.21875 1.28125 3.015625q0 0.921875 -0.375 1.8125q-0.375 0.875 -1.25 1.859375q-0.859375 0.96875 -2.890625 2.6875q-1.6875 1.40625 -2.171875 1.921875q-0.46875 0.5 -0.78125 1.015625l7.484375 0z" fill-rule="nonzero"/><path fill="#b7b7b7" d="m918.122 470.69574l0 0c0 -2.635315 2.3337402 -4.7716675 5.2125854 -4.7716675l0 0c2.8788452 0 5.2125854 2.1363525 5.2125854 4.7716675l0 0c0 2.6352844 -2.3337402 4.771637 -5.2125854 4.771637l0 0c-2.8788452 0 -5.2125854 -2.1363525 -5.2125854 -4.771637z" fill-rule="evenodd"/><path stroke="#000000" stroke-width="2.0" stroke-linejoin="round" stroke-linecap="butt" d="m918.122 470.69574l0 0c0 -2.635315 2.3337402 -4.7716675 5.2125854 -4.7716675l0 0c2.8788452 0 5.2125854 2.1363525 5.2125854 4.7716675l0 0c0 2.6352844 -2.3337402 4.771637 -5.2125854 4.771637l0 0c-2.8788452 0 -5.2125854 -2.1363525 -5.2125854 -4.771637z" fill-rule="evenodd"/><path fill="#000000" fill-opacity="0.0" d="m898.6667 444.694l30.330688 0l0 26.551178l-30.330688 0z" fill-rule="evenodd"/><path fill="#000000" d="m918.40106 463.6527l0 1.796875l-10.09375 0q-0.015625 -0.671875 0.21875 -1.296875q0.390625 -1.03125 1.234375 -2.03125q0.859375 -1.0 2.453125 -2.3125q2.5 -2.046875 3.375 -3.234375q0.875 -1.203125 0.875 -2.25q0 -1.125 -0.796875 -1.890625q-0.796875 -0.765625 -2.078125 -0.765625q-1.359375 0 -2.171875 0.8125q-0.8125 0.8125 -0.828125 2.25l-1.921875 -0.1875q0.203125 -2.15625 1.484375 -3.28125q1.296875 -1.140625 3.46875 -1.140625q2.203125 0 3.484375 1.21875q1.28125 1.21875 1.28125 3.015625q0 0.921875 -0.375 1.8125q-0.375 0.875 -1.25 1.859375q-0.859375 0.96875 -2.890625 2.6875q-1.6875 1.40625 -2.171875 1.921875q-0.46875 0.5 -0.78125 1.015625l7.484375 0z" fill-rule="nonzero"/><path fill="#6fa8dc" d="m871.3306 415.96606l0 0c0 -2.635315 2.3338013 -4.771637 5.2126465 -4.771637l0 0c2.8787842 0 5.2125854 2.136322 5.2125854 4.771637l0 0c0 2.635315 -2.3338013 4.7716675 -5.2125854 4.7716675l0 0c-2.8788452 0 -5.2126465 -2.1363525 -5.2126465 -4.7716675z" fill-rule="evenodd"/><path stroke="#000000" stroke-width="2.0" stroke-linejoin="round" stroke-linecap="butt" d="m871.3306 415.96606l0 0c0 -2.635315 2.3338013 -4.771637 5.2126465 -4.771637l0 0c2.8787842 0 5.2125854 2.136322 5.2125854 4.771637l0 0c0 2.635315 -2.3338013 4.7716675 -5.2125854 4.7716675l0 0c-2.8788452 0 -5.2126465 -2.1363525 -5.2126465 -4.7716675z" fill-rule="evenodd"/><path fill="#000000" fill-opacity="0.0" d="m851.8753 389.96432l30.33075 0l0 26.551178l-30.33075 0z" fill-rule="evenodd"/><path fill="#000000" d="m871.6097 408.92303l0 1.796875l-10.09375 0q-0.015625 -0.671875 0.21875 -1.296875q0.390625 -1.03125 1.234375 -2.03125q0.859375 -1.0 2.453125 -2.3125q2.5 -2.046875 3.375 -3.234375q0.875 -1.203125 0.875 -2.25q0 -1.125 -0.796875 -1.890625q-0.796875 -0.765625 -2.078125 -0.765625q-1.359375 0 -2.171875 0.8125q-0.8125 0.8125 -0.828125 2.25l-1.921875 -0.1875q0.203125 -2.15625 1.484375 -3.28125q1.296875 -1.140625 3.46875 -1.140625q2.203125 0 3.484375 1.21875q1.28125 1.21875 1.28125 3.015625q0 0.921875 -0.375 1.8125q-0.375 0.875 -1.25 1.859375q-0.859375 0.96875 -2.890625 2.6875q-1.6875 1.40625 -2.171875 1.921875q-0.46875 0.5 -0.78125 1.015625l7.484375 0z" fill-rule="nonzero"/></g></svg>