<svg version="1.1" viewBox="0.0 0.0 664.8425196850394 701.0813648293963" fill="none" stroke="none" stroke-linecap="square" stroke-miterlimit="10" xmlns:xlink="http://www.w3.org/1999/xlink" xmlns="http://www.w3.org/2000/svg"><clipPath id="p.0"><path d="m0 0l664.8425 0l0 701.08136l-664.8425 0l0 -701.08136z" clip-rule="nonzero"/></clipPath><g clip-path="url(#p.0)"><path fill="#000000" fill-opacity="0.0" d="m0 0l664.8425 0l0 701.08136l-664.8425 0z" fill-rule="evenodd"/><path fill="#f3f3f3" d="m25.199474 688.4093l33.411522 -65.700745l55.564854 65.700745z" fill-rule="evenodd"/><path stroke="#000000" stroke-width="2.0" stroke-linejoin="round" stroke-linecap="butt" d="m25.199474 688.4093l33.411522 -65.700745l55.564854 65.700745z" fill-rule="evenodd"/><path fill="#9fc5e8" d="m148.01761 622.69586l-33.41153 65.700806l-55.564854 -65.700806z" fill-rule="evenodd"/><path stroke="#000000" stroke-width="2.0" stroke-linejoin="round" stroke-linecap="butt" d="m148.01761 622.69586l-33.41153 65.700806l-55.564854 -65.700806z" fill-rule="evenodd"/><path fill="#9fc5e8" d="m114.17492 688.4093l33.411522 -65.700745l55.56485 65.700745z" fill-rule="evenodd"/><path stroke="#000000" stroke-width="2.0" stroke-linejoin="round" stroke-linecap="butt" d="m114.17492 688.4093l33.411522 -65.700745l55.56485 65.700745z" fill-rule="evenodd"/><path fill="#9fc5e8" d="m236.99304 622.69586l-33.411514 65.700806l-55.564865 -65.700806z" fill-rule="evenodd"/><path stroke="#000000" stroke-width="2.0" stroke-linejoin="round" stroke-linecap="butt" d="m236.99304 622.69586l-33.411514 65.700806l-55.564865 -65.700806z" fill-rule="evenodd"/><path fill="#f3f3f3" d="m203.51735 688.4093l33.41153 -65.700745l55.564865 65.700745z" fill-rule="evenodd"/><path stroke="#000000" stroke-width="2.0" stroke-linejoin="round" stroke-linecap="butt" d="m203.51735 688.4093l33.41153 -65.700745l55.564865 65.700745z" fill-rule="evenodd"/><path fill="#f3f3f3" d="m326.33548 622.69586l-33.41153 65.700806l-55.56485 -65.700806z" fill-rule="evenodd"/><path stroke="#000000" stroke-width="2.0" stroke-linejoin="round" stroke-linecap="butt" d="m326.33548 622.69586l-33.41153 65.700806l-55.56485 -65.700806z" fill-rule="evenodd"/><path fill="#f3f3f3" d="m292.4928 688.4093l33.41153 -65.700745l55.56485 65.700745z" fill-rule="evenodd"/><path stroke="#000000" stroke-width="2.0" stroke-linejoin="round" stroke-linecap="butt" d="m292.4928 688.4093l33.41153 -65.700745l55.56485 65.700745z" fill-rule="evenodd"/><path fill="#9fc5e8" d="m415.3109 622.69586l-33.4115 65.700806l-55.56488 -65.700806z" fill-rule="evenodd"/><path stroke="#000000" stroke-width="2.0" stroke-linejoin="round" stroke-linecap="butt" d="m415.3109 622.69586l-33.4115 65.700806l-55.56488 -65.700806z" fill-rule="evenodd"/><path fill="#9fc5e8" d="m381.83835 688.4093l33.41153 -65.700745l55.56485 65.700745z" fill-rule="evenodd"/><path stroke="#000000" stroke-width="2.0" stroke-linejoin="round" stroke-linecap="butt" d="m381.83835 688.4093l33.41153 -65.700745l55.56485 65.700745z" fill-rule="evenodd"/><path fill="#9fc5e8" d="m504.6565 622.69586l-33.41153 65.700806l-55.56485 -65.700806z" fill-rule="evenodd"/><path stroke="#000000" stroke-width="2.0" stroke-linejoin="round" stroke-linecap="butt" d="m504.6565 622.69586l-33.41153 65.700806l-55.56485 -65.700806z" fill-rule="evenodd"/><path fill="#9fc5e8" d="m58.662674 622.73694l33.411522 -65.700745l55.564857 65.700745z" fill-rule="evenodd"/><path stroke="#000000" stroke-width="2.0" stroke-linejoin="round" stroke-linecap="butt" d="m58.662674 622.73694l33.411522 -65.700745l55.564857 65.700745z" fill-rule="evenodd"/><path fill="#9fc5e8" d="m181.4808 557.0235l-33.41153 65.700806l-55.56485 -65.700806z" fill-rule="evenodd"/><path stroke="#000000" stroke-width="2.0" stroke-linejoin="round" stroke-linecap="butt" d="m181.4808 557.0235l-33.41153 65.700806l-55.56485 -65.700806z" fill-rule="evenodd"/><path fill="#9fc5e8" d="m147.63812 622.73694l33.411514 -65.700745l55.564865 65.700745z" fill-rule="evenodd"/><path stroke="#000000" stroke-width="2.0" stroke-linejoin="round" stroke-linecap="butt" d="m147.63812 622.73694l33.411514 -65.700745l55.564865 65.700745z" fill-rule="evenodd"/><path fill="#cfe2f3" d="m270.45624 557.0235l-33.411514 65.700806l-55.56485 -65.700806z" fill-rule="evenodd"/><path stroke="#000000" stroke-width="2.0" stroke-linejoin="round" stroke-linecap="butt" d="m270.45624 557.0235l-33.411514 65.700806l-55.56485 -65.700806z" fill-rule="evenodd"/><path fill="#cfe2f3" d="m236.98056 622.73694l33.4115 -65.700745l55.56488 65.700745z" fill-rule="evenodd"/><path stroke="#000000" stroke-width="2.0" stroke-linejoin="round" stroke-linecap="butt" d="m236.98056 622.73694l33.4115 -65.700745l55.56488 65.700745z" fill-rule="evenodd"/><path fill="#cfe2f3" d="m359.79868 557.0235l-33.41153 65.700806l-55.56485 -65.700806z" fill-rule="evenodd"/><path stroke="#000000" stroke-width="2.0" stroke-linejoin="round" stroke-linecap="butt" d="m359.79868 557.0235l-33.41153 65.700806l-55.56485 -65.700806z" fill-rule="evenodd"/><path fill="#9fc5e8" d="m325.956 622.73694l33.41153 -65.700745l55.56485 65.700745z" fill-rule="evenodd"/><path stroke="#000000" stroke-width="2.0" stroke-linejoin="round" stroke-linecap="butt" d="m325.956 622.73694l33.41153 -65.700745l55.56485 65.700745z" fill-rule="evenodd"/><path fill="#9fc5e8" d="m448.77414 557.0235l-33.41153 65.700806l-55.56485 -65.700806z" fill-rule="evenodd"/><path stroke="#000000" stroke-width="2.0" stroke-linejoin="round" stroke-linecap="butt" d="m448.77414 557.0235l-33.41153 65.700806l-55.56485 -65.700806z" fill-rule="evenodd"/><path fill="#9fc5e8" d="m415.30154 622.73694l33.41153 -65.700745l55.56485 65.700745z" fill-rule="evenodd"/><path stroke="#000000" stroke-width="2.0" stroke-linejoin="round" stroke-linecap="butt" d="m415.30154 622.73694l33.41153 -65.700745l55.56485 65.700745z" fill-rule="evenodd"/><path fill="#ffffff" d="m538.1197 557.0235l-33.41153 65.700806l-55.56485 -65.700806z" fill-rule="evenodd"/><path stroke="#000000" stroke-width="2.0" stroke-linejoin="round" stroke-linecap="butt" d="m538.1197 557.0235l-33.41153 65.700806l-55.56485 -65.700806z" fill-rule="evenodd"/><path fill="#f3f3f3" d="m92.5038 557.06146l33.411514 -65.700806l55.564865 65.700806z" fill-rule="evenodd"/><path stroke="#000000" stroke-width="2.0" stroke-linejoin="round" stroke-linecap="butt" d="m92.5038 557.06146l33.411514 -65.700806l55.564865 65.700806z" fill-rule="evenodd"/><path fill="#f3f3f3" d="m215.32193 491.348l-33.41153 65.700775l-55.564857 -65.700775z" fill-rule="evenodd"/><path stroke="#000000" stroke-width="2.0" stroke-linejoin="round" stroke-linecap="butt" d="m215.32193 491.348l-33.41153 65.700775l-55.564857 -65.700775z" fill-rule="evenodd"/><path fill="#cfe2f3" d="m181.47925 557.06146l33.411514 -65.700806l55.564865 65.700806z" fill-rule="evenodd"/><path stroke="#000000" stroke-width="2.0" stroke-linejoin="round" stroke-linecap="butt" d="m181.47925 557.06146l33.411514 -65.700806l55.564865 65.700806z" fill-rule="evenodd"/><path fill="#cfe2f3" d="m304.29736 491.348l-33.41153 65.700775l-55.56485 -65.700775z" fill-rule="evenodd"/><path stroke="#000000" stroke-width="2.0" stroke-linejoin="round" stroke-linecap="butt" d="m304.29736 491.348l-33.41153 65.700775l-55.56485 -65.700775z" fill-rule="evenodd"/><path fill="#cfe2f3" d="m270.8217 557.06146l33.4115 -65.700806l55.56488 65.700806z" fill-rule="evenodd"/><path stroke="#000000" stroke-width="2.0" stroke-linejoin="round" stroke-linecap="butt" d="m270.8217 557.06146l33.4115 -65.700806l55.56488 65.700806z" fill-rule="evenodd"/><path fill="#bbd8f2" d="m393.6398 491.348l-33.41153 65.700775l-55.56485 -65.700775z" fill-rule="evenodd"/><path stroke="#000000" stroke-width="2.0" stroke-linejoin="round" stroke-linecap="butt" d="m393.6398 491.348l-33.41153 65.700775l-55.56485 -65.700775z" fill-rule="evenodd"/><path fill="#bbd8f2" d="m359.79712 557.06146l33.41153 -65.700806l55.56485 65.700806z" fill-rule="evenodd"/><path stroke="#000000" stroke-width="2.0" stroke-linejoin="round" stroke-linecap="butt" d="m359.79712 557.06146l33.41153 -65.700806l55.56485 65.700806z" fill-rule="evenodd"/><path fill="#bbd8f2" d="m482.61523 491.348l-33.4115 65.700775l-55.56488 -65.700775z" fill-rule="evenodd"/><path stroke="#000000" stroke-width="2.0" stroke-linejoin="round" stroke-linecap="butt" d="m482.61523 491.348l-33.4115 65.700775l-55.56488 -65.700775z" fill-rule="evenodd"/><path fill="#ffffff" d="m449.14267 557.06146l33.41153 -65.700806l55.56488 65.700806z" fill-rule="evenodd"/><path stroke="#000000" stroke-width="2.0" stroke-linejoin="round" stroke-linecap="butt" d="m449.14267 557.06146l33.41153 -65.700806l55.56488 65.700806z" fill-rule="evenodd"/><path fill="#ffffff" d="m571.9608 491.348l-33.41156 65.700775l-55.56482 -65.700775z" fill-rule="evenodd"/><path stroke="#000000" stroke-width="2.0" stroke-linejoin="round" stroke-linecap="butt" d="m571.9608 491.348l-33.41156 65.700775l-55.56482 -65.700775z" fill-rule="evenodd"/><path fill="#f3f3f3" d="m126.34492 491.3891l33.411522 -65.700775l55.56485 65.700775z" fill-rule="evenodd"/><path stroke="#000000" stroke-width="2.0" stroke-linejoin="round" stroke-linecap="butt" d="m126.34492 491.3891l33.411522 -65.700775l55.56485 65.700775z" fill-rule="evenodd"/><path fill="#ea9999" d="m249.16304 425.67563l-33.411514 65.700806l-55.564865 -65.700806z" fill-rule="evenodd"/><path stroke="#000000" stroke-width="2.0" stroke-linejoin="round" stroke-linecap="butt" d="m249.16304 425.67563l-33.411514 65.700806l-55.564865 -65.700806z" fill-rule="evenodd"/><path fill="#ea9999" d="m215.32036 491.3891l33.41153 -65.700775l55.564865 65.700775z" fill-rule="evenodd"/><path stroke="#000000" stroke-width="2.0" stroke-linejoin="round" stroke-linecap="butt" d="m215.32036 491.3891l33.41153 -65.700775l55.564865 65.700775z" fill-rule="evenodd"/><path fill="#ea9999" d="m338.1385 425.67563l-33.41153 65.700806l-55.56485 -65.700806z" fill-rule="evenodd"/><path stroke="#000000" stroke-width="2.0" stroke-linejoin="round" stroke-linecap="butt" d="m338.1385 425.67563l-33.41153 65.700806l-55.56485 -65.700806z" fill-rule="evenodd"/><path fill="#bbd8f2" d="m304.66278 491.3891l33.41153 -65.700775l55.56485 65.700775z" fill-rule="evenodd"/><path stroke="#000000" stroke-width="2.0" stroke-linejoin="round" stroke-linecap="butt" d="m304.66278 491.3891l33.41153 -65.700775l55.56485 65.700775z" fill-rule="evenodd"/><path fill="#bbd8f2" d="m427.48093 425.67563l-33.41153 65.700806l-55.56485 -65.700806z" fill-rule="evenodd"/><path stroke="#000000" stroke-width="2.0" stroke-linejoin="round" stroke-linecap="butt" d="m427.48093 425.67563l-33.41153 65.700806l-55.56485 -65.700806z" fill-rule="evenodd"/><path fill="#bbd8f2" d="m393.63824 491.3891l33.41153 -65.700775l55.56485 65.700775z" fill-rule="evenodd"/><path stroke="#000000" stroke-width="2.0" stroke-linejoin="round" stroke-linecap="butt" d="m393.63824 491.3891l33.41153 -65.700775l55.56485 65.700775z" fill-rule="evenodd"/><path fill="#9fc5e8" d="m516.45636 425.67563l-33.4115 65.700806l-55.56488 -65.700806z" fill-rule="evenodd"/><path stroke="#000000" stroke-width="2.0" stroke-linejoin="round" stroke-linecap="butt" d="m516.45636 425.67563l-33.4115 65.700806l-55.56488 -65.700806z" fill-rule="evenodd"/><path fill="#9fc5e8" d="m482.9838 491.3891l33.41153 -65.700775l55.56482 65.700775z" fill-rule="evenodd"/><path stroke="#000000" stroke-width="2.0" stroke-linejoin="round" stroke-linecap="butt" d="m482.9838 491.3891l33.41153 -65.700775l55.56482 65.700775z" fill-rule="evenodd"/><path fill="#9fc5e8" d="m605.80194 425.67563l-33.41156 65.700806l-55.56482 -65.700806z" fill-rule="evenodd"/><path stroke="#000000" stroke-width="2.0" stroke-linejoin="round" stroke-linecap="butt" d="m605.80194 425.67563l-33.41156 65.700806l-55.56482 -65.700806z" fill-rule="evenodd"/><path fill="#ea9999" d="m160.18604 425.7136l33.41153 -65.700775l55.56485 65.700775z" fill-rule="evenodd"/><path stroke="#000000" stroke-width="2.0" stroke-linejoin="round" stroke-linecap="butt" d="m160.18604 425.7136l33.41153 -65.700775l55.56485 65.700775z" fill-rule="evenodd"/><path fill="#ea9999" d="m283.00415 360.00012l-33.4115 65.700806l-55.564865 -65.700806z" fill-rule="evenodd"/><path stroke="#000000" stroke-width="2.0" stroke-linejoin="round" stroke-linecap="butt" d="m283.00415 360.00012l-33.4115 65.700806l-55.564865 -65.700806z" fill-rule="evenodd"/><path fill="#ea9999" d="m249.16148 425.7136l33.411514 -65.700775l55.56485 65.700775z" fill-rule="evenodd"/><path stroke="#000000" stroke-width="2.0" stroke-linejoin="round" stroke-linecap="butt" d="m249.16148 425.7136l33.411514 -65.700775l55.56485 65.700775z" fill-rule="evenodd"/><path fill="#f3f3f3" d="m371.9796 360.00012l-33.41153 65.700806l-55.56485 -65.700806z" fill-rule="evenodd"/><path stroke="#000000" stroke-width="2.0" stroke-linejoin="round" stroke-linecap="butt" d="m371.9796 360.00012l-33.41153 65.700806l-55.56485 -65.700806z" fill-rule="evenodd"/><path fill="#f3f3f3" d="m338.5039 425.7136l33.41153 -65.700775l55.56485 65.700775z" fill-rule="evenodd"/><path stroke="#000000" stroke-width="2.0" stroke-linejoin="round" stroke-linecap="butt" d="m338.5039 425.7136l33.41153 -65.700775l55.56485 65.700775z" fill-rule="evenodd"/><path fill="#f3f3f3" d="m461.32205 360.00012l-33.41153 65.700806l-55.56485 -65.700806z" fill-rule="evenodd"/><path stroke="#000000" stroke-width="2.0" stroke-linejoin="round" stroke-linecap="butt" d="m461.32205 360.00012l-33.41153 65.700806l-55.56485 -65.700806z" fill-rule="evenodd"/><path fill="#9fc5e8" d="m427.47937 425.7136l33.4115 -65.700775l55.56488 65.700775z" fill-rule="evenodd"/><path stroke="#000000" stroke-width="2.0" stroke-linejoin="round" stroke-linecap="butt" d="m427.47937 425.7136l33.4115 -65.700775l55.56488 65.700775z" fill-rule="evenodd"/><path fill="#9fc5e8" d="m550.2975 360.00012l-33.4115 65.700806l-55.56488 -65.700806z" fill-rule="evenodd"/><path stroke="#000000" stroke-width="2.0" stroke-linejoin="round" stroke-linecap="butt" d="m550.2975 360.00012l-33.4115 65.700806l-55.56488 -65.700806z" fill-rule="evenodd"/><path fill="#9fc5e8" d="m516.8249 425.7136l33.41156 -65.700775l55.56482 65.700775z" fill-rule="evenodd"/><path stroke="#000000" stroke-width="2.0" stroke-linejoin="round" stroke-linecap="butt" d="m516.8249 425.7136l33.41156 -65.700775l55.56482 65.700775z" fill-rule="evenodd"/><path fill="#f3f3f3" d="m639.64307 360.00012l-33.41156 65.700806l-55.56482 -65.700806z" fill-rule="evenodd"/><path stroke="#000000" stroke-width="2.0" stroke-linejoin="round" stroke-linecap="butt" d="m639.64307 360.00012l-33.41156 65.700806l-55.56482 -65.700806z" fill-rule="evenodd"/><path fill="#d9d9d9" d="m27.755905 344.45132l33.411522 -65.700806l55.564857 65.700806z" fill-rule="evenodd"/><path stroke="#000000" stroke-width="2.0" stroke-linejoin="round" stroke-linecap="butt" d="m27.755905 344.45132l33.411522 -65.700806l55.564857 65.700806z" fill-rule="evenodd"/><path fill="#d9d9d9" d="m150.57404 278.73785l-33.411522 65.700775l-55.564857 -65.700775z" fill-rule="evenodd"/><path stroke="#000000" stroke-width="2.0" stroke-linejoin="round" stroke-linecap="butt" d="m150.57404 278.73785l-33.411522 65.700775l-55.564857 -65.700775z" fill-rule="evenodd"/><path fill="#d9d9d9" d="m116.731346 344.45132l33.411522 -65.700806l55.564865 65.700806z" fill-rule="evenodd"/><path stroke="#000000" stroke-width="2.0" stroke-linejoin="round" stroke-linecap="butt" d="m116.731346 344.45132l33.411522 -65.700806l55.564865 65.700806z" fill-rule="evenodd"/><path fill="#cfe2f3" d="m239.54948 278.73785l-33.41153 65.700775l-55.56485 -65.700775z" fill-rule="evenodd"/><path stroke="#000000" stroke-width="2.0" stroke-linejoin="round" stroke-linecap="butt" d="m239.54948 278.73785l-33.41153 65.700775l-55.56485 -65.700775z" fill-rule="evenodd"/><path fill="#cfe2f3" d="m206.07378 344.45132l33.41153 -65.700806l55.564865 65.700806z" fill-rule="evenodd"/><path stroke="#000000" stroke-width="2.0" stroke-linejoin="round" stroke-linecap="butt" d="m206.07378 344.45132l33.41153 -65.700806l55.564865 65.700806z" fill-rule="evenodd"/><path fill="#cfe2f3" d="m328.8919 278.73785l-33.41153 65.700775l-55.56485 -65.700775z" fill-rule="evenodd"/><path stroke="#000000" stroke-width="2.0" stroke-linejoin="round" stroke-linecap="butt" d="m328.8919 278.73785l-33.41153 65.700775l-55.56485 -65.700775z" fill-rule="evenodd"/><path fill="#d9d9d9" d="m295.04922 344.45132l33.41153 -65.700806l55.56485 65.700806z" fill-rule="evenodd"/><path stroke="#000000" stroke-width="2.0" stroke-linejoin="round" stroke-linecap="butt" d="m295.04922 344.45132l33.41153 -65.700806l55.56485 65.700806z" fill-rule="evenodd"/><path fill="#d9d9d9" d="m417.86734 278.73785l-33.4115 65.700775l-55.56485 -65.700775z" fill-rule="evenodd"/><path stroke="#000000" stroke-width="2.0" stroke-linejoin="round" stroke-linecap="butt" d="m417.86734 278.73785l-33.4115 65.700775l-55.56485 -65.700775z" fill-rule="evenodd"/><path fill="#d9d9d9" d="m384.39478 344.45132l33.41153 -65.700806l55.56485 65.700806z" fill-rule="evenodd"/><path stroke="#000000" stroke-width="2.0" stroke-linejoin="round" stroke-linecap="butt" d="m384.39478 344.45132l33.41153 -65.700806l55.56485 65.700806z" fill-rule="evenodd"/><path fill="#f3f3f3" d="m507.21292 278.73785l-33.41153 65.700775l-55.56485 -65.700775z" fill-rule="evenodd"/><path stroke="#000000" stroke-width="2.0" stroke-linejoin="round" stroke-linecap="butt" d="m507.21292 278.73785l-33.41153 65.700775l-55.56485 -65.700775z" fill-rule="evenodd"/><path fill="#f3f3f3" d="m61.219105 278.77896l33.41152 -65.70079l55.564857 65.70079z" fill-rule="evenodd"/><path stroke="#000000" stroke-width="2.0" stroke-linejoin="round" stroke-linecap="butt" d="m61.219105 278.77896l33.41152 -65.70079l55.564857 65.70079z" fill-rule="evenodd"/><path fill="#f3f3f3" d="m184.03723 213.06549l-33.411514 65.700775l-55.564865 -65.700775z" fill-rule="evenodd"/><path stroke="#000000" stroke-width="2.0" stroke-linejoin="round" stroke-linecap="butt" d="m184.03723 213.06549l-33.411514 65.700775l-55.564865 -65.700775z" fill-rule="evenodd"/><path fill="#cfe2f3" d="m150.19455 278.77896l33.411514 -65.70079l55.564865 65.70079z" fill-rule="evenodd"/><path stroke="#000000" stroke-width="2.0" stroke-linejoin="round" stroke-linecap="butt" d="m150.19455 278.77896l33.411514 -65.70079l55.564865 65.70079z" fill-rule="evenodd"/><path fill="#cfe2f3" d="m273.01266 213.06549l-33.411514 65.700775l-55.56485 -65.700775z" fill-rule="evenodd"/><path stroke="#000000" stroke-width="2.0" stroke-linejoin="round" stroke-linecap="butt" d="m273.01266 213.06549l-33.411514 65.700775l-55.56485 -65.700775z" fill-rule="evenodd"/><path fill="#cfe2f3" d="m239.53699 278.77896l33.41153 -65.70079l55.56485 65.70079z" fill-rule="evenodd"/><path stroke="#000000" stroke-width="2.0" stroke-linejoin="round" stroke-linecap="butt" d="m239.53699 278.77896l33.41153 -65.70079l55.56485 65.70079z" fill-rule="evenodd"/><path fill="#bbd8f2" d="m362.3551 213.06549l-33.4115 65.700775l-55.56488 -65.700775z" fill-rule="evenodd"/><path stroke="#000000" stroke-width="2.0" stroke-linejoin="round" stroke-linecap="butt" d="m362.3551 213.06549l-33.4115 65.700775l-55.56488 -65.700775z" fill-rule="evenodd"/><path fill="#bbd8f2" d="m328.51242 278.77896l33.41153 -65.70079l55.56485 65.70079z" fill-rule="evenodd"/><path stroke="#000000" stroke-width="2.0" stroke-linejoin="round" stroke-linecap="butt" d="m328.51242 278.77896l33.41153 -65.70079l55.56485 65.70079z" fill-rule="evenodd"/><path fill="#bbd8f2" d="m451.33057 213.06549l-33.41153 65.700775l-55.56485 -65.700775z" fill-rule="evenodd"/><path stroke="#000000" stroke-width="2.0" stroke-linejoin="round" stroke-linecap="butt" d="m451.33057 213.06549l-33.41153 65.700775l-55.56485 -65.700775z" fill-rule="evenodd"/><path fill="#f3f3f3" d="m417.85797 278.77896l33.41153 -65.70079l55.56485 65.70079z" fill-rule="evenodd"/><path stroke="#000000" stroke-width="2.0" stroke-linejoin="round" stroke-linecap="butt" d="m417.85797 278.77896l33.41153 -65.70079l55.56485 65.70079z" fill-rule="evenodd"/><path fill="#f3f3f3" d="m540.6761 213.06549l-33.4115 65.700775l-55.56485 -65.700775z" fill-rule="evenodd"/><path stroke="#000000" stroke-width="2.0" stroke-linejoin="round" stroke-linecap="butt" d="m540.6761 213.06549l-33.4115 65.700775l-55.56485 -65.700775z" fill-rule="evenodd"/><path fill="#f3f3f3" d="m95.06023 213.10345l33.411514 -65.70079l55.564865 65.70079z" fill-rule="evenodd"/><path stroke="#000000" stroke-width="2.0" stroke-linejoin="round" stroke-linecap="butt" d="m95.06023 213.10345l33.411514 -65.70079l55.564865 65.70079z" fill-rule="evenodd"/><path fill="#ea9999" d="m217.87836 147.38998l-33.41153 65.70079l-55.56485 -65.70079z" fill-rule="evenodd"/><path stroke="#000000" stroke-width="2.0" stroke-linejoin="round" stroke-linecap="butt" d="m217.87836 147.38998l-33.41153 65.70079l-55.56485 -65.70079z" fill-rule="evenodd"/><path fill="#ea9999" d="m184.03568 213.10345l33.411514 -65.70079l55.564865 65.70079z" fill-rule="evenodd"/><path stroke="#000000" stroke-width="2.0" stroke-linejoin="round" stroke-linecap="butt" d="m184.03568 213.10345l33.411514 -65.70079l55.564865 65.70079z" fill-rule="evenodd"/><path fill="#ea9999" d="m306.8538 147.38998l-33.4115 65.70079l-55.564865 -65.70079z" fill-rule="evenodd"/><path stroke="#000000" stroke-width="2.0" stroke-linejoin="round" stroke-linecap="butt" d="m306.8538 147.38998l-33.4115 65.70079l-55.564865 -65.70079z" fill-rule="evenodd"/><path fill="#bbd8f2" d="m273.3781 213.10345l33.4115 -65.70079l55.56488 65.70079z" fill-rule="evenodd"/><path stroke="#000000" stroke-width="2.0" stroke-linejoin="round" stroke-linecap="butt" d="m273.3781 213.10345l33.4115 -65.70079l55.56488 65.70079z" fill-rule="evenodd"/><path fill="#bbd8f2" d="m396.19623 147.38998l-33.41153 65.70079l-55.56485 -65.70079z" fill-rule="evenodd"/><path stroke="#000000" stroke-width="2.0" stroke-linejoin="round" stroke-linecap="butt" d="m396.19623 147.38998l-33.41153 65.70079l-55.56485 -65.70079z" fill-rule="evenodd"/><path fill="#bbd8f2" d="m362.35355 213.10345l33.41153 -65.70079l55.56485 65.70079z" fill-rule="evenodd"/><path stroke="#000000" stroke-width="2.0" stroke-linejoin="round" stroke-linecap="butt" d="m362.35355 213.10345l33.41153 -65.70079l55.56485 65.70079z" fill-rule="evenodd"/><path fill="#9fc5e8" d="m485.17166 147.38998l-33.4115 65.70079l-55.56485 -65.70079z" fill-rule="evenodd"/><path stroke="#000000" stroke-width="2.0" stroke-linejoin="round" stroke-linecap="butt" d="m485.17166 147.38998l-33.4115 65.70079l-55.56485 -65.70079z" fill-rule="evenodd"/><path fill="#9fc5e8" d="m451.6991 213.10345l33.41153 -65.70079l55.56485 65.70079z" fill-rule="evenodd"/><path stroke="#000000" stroke-width="2.0" stroke-linejoin="round" stroke-linecap="butt" d="m451.6991 213.10345l33.41153 -65.70079l55.56485 65.70079z" fill-rule="evenodd"/><path fill="#9fc5e8" d="m574.5172 147.38998l-33.4115 65.70079l-55.56485 -65.70079z" fill-rule="evenodd"/><path stroke="#000000" stroke-width="2.0" stroke-linejoin="round" stroke-linecap="butt" d="m574.5172 147.38998l-33.4115 65.70079l-55.56485 -65.70079z" fill-rule="evenodd"/><path fill="#ea9999" d="m128.90135 147.43109l33.411514 -65.70078l55.564865 65.70078z" fill-rule="evenodd"/><path stroke="#000000" stroke-width="2.0" stroke-linejoin="round" stroke-linecap="butt" d="m128.90135 147.43109l33.411514 -65.70078l55.564865 65.70078z" fill-rule="evenodd"/><path fill="#ea9999" d="m251.71947 81.71763l-33.411514 65.70078l-55.56485 -65.70078z" fill-rule="evenodd"/><path stroke="#000000" stroke-width="2.0" stroke-linejoin="round" stroke-linecap="butt" d="m251.71947 81.71763l-33.411514 65.70078l-55.56485 -65.70078z" fill-rule="evenodd"/><path fill="#ea9999" d="m217.87679 147.43109l33.41153 -65.70078l55.564865 65.70078z" fill-rule="evenodd"/><path stroke="#000000" stroke-width="2.0" stroke-linejoin="round" stroke-linecap="butt" d="m217.87679 147.43109l33.41153 -65.70078l55.564865 65.70078z" fill-rule="evenodd"/><path fill="#cfe2f3" d="m340.69492 81.71763l-33.41153 65.70078l-55.56485 -65.70078z" fill-rule="evenodd"/><path stroke="#000000" stroke-width="2.0" stroke-linejoin="round" stroke-linecap="butt" d="m340.69492 81.71763l-33.41153 65.70078l-55.56485 -65.70078z" fill-rule="evenodd"/><path fill="#cfe2f3" d="m307.21924 147.43109l33.4115 -65.70078l55.56488 65.70078z" fill-rule="evenodd"/><path stroke="#000000" stroke-width="2.0" stroke-linejoin="round" stroke-linecap="butt" d="m307.21924 147.43109l33.4115 -65.70078l55.56488 65.70078z" fill-rule="evenodd"/><path fill="#cfe2f3" d="m430.03735 81.71763l-33.41153 65.70078l-55.56485 -65.70078z" fill-rule="evenodd"/><path stroke="#000000" stroke-width="2.0" stroke-linejoin="round" stroke-linecap="butt" d="m430.03735 81.71763l-33.41153 65.70078l-55.56485 -65.70078z" fill-rule="evenodd"/><path fill="#9fc5e8" d="m396.19467 147.43109l33.41153 -65.70078l55.56485 65.70078z" fill-rule="evenodd"/><path stroke="#000000" stroke-width="2.0" stroke-linejoin="round" stroke-linecap="butt" d="m396.19467 147.43109l33.41153 -65.70078l55.56485 65.70078z" fill-rule="evenodd"/><path fill="#9fc5e8" d="m519.0128 81.71763l-33.41153 65.70078l-55.56488 -65.70078z" fill-rule="evenodd"/><path stroke="#000000" stroke-width="2.0" stroke-linejoin="round" stroke-linecap="butt" d="m519.0128 81.71763l-33.41153 65.70078l-55.56488 -65.70078z" fill-rule="evenodd"/><path fill="#9fc5e8" d="m485.54022 147.43109l33.4115 -65.70078l55.56488 65.70078z" fill-rule="evenodd"/><path stroke="#000000" stroke-width="2.0" stroke-linejoin="round" stroke-linecap="butt" d="m485.54022 147.43109l33.4115 -65.70078l55.56488 65.70078z" fill-rule="evenodd"/><path fill="#d9d9d9" d="m608.35834 81.71763l-33.4115 65.70078l-55.56488 -65.70078z" fill-rule="evenodd"/><path stroke="#000000" stroke-width="2.0" stroke-linejoin="round" stroke-linecap="butt" d="m608.35834 81.71763l-33.4115 65.70078l-55.56488 -65.70078z" fill-rule="evenodd"/><path fill="#f3f3f3" d="m162.74246 81.75559l33.41153 -65.70079l55.56485 65.70079z" fill-rule="evenodd"/><path stroke="#000000" stroke-width="2.0" stroke-linejoin="round" stroke-linecap="butt" d="m162.74246 81.75559l33.41153 -65.70079l55.56485 65.70079z" fill-rule="evenodd"/><path fill="#f3f3f3" d="m285.5606 16.04212l-33.41153 65.70078l-55.564865 -65.70078z" fill-rule="evenodd"/><path stroke="#000000" stroke-width="2.0" stroke-linejoin="round" stroke-linecap="butt" d="m285.5606 16.04212l-33.41153 65.70078l-55.564865 -65.70078z" fill-rule="evenodd"/><path fill="#cfe2f3" d="m251.71791 81.75559l33.411514 -65.70079l55.56488 65.70079z" fill-rule="evenodd"/><path stroke="#000000" stroke-width="2.0" stroke-linejoin="round" stroke-linecap="butt" d="m251.71791 81.75559l33.411514 -65.70079l55.56488 65.70079z" fill-rule="evenodd"/><path fill="#cfe2f3" d="m374.53604 16.04212l-33.41153 65.70078l-55.56485 -65.70078z" fill-rule="evenodd"/><path stroke="#000000" stroke-width="2.0" stroke-linejoin="round" stroke-linecap="butt" d="m374.53604 16.04212l-33.41153 65.70078l-55.56485 -65.70078z" fill-rule="evenodd"/><path fill="#cfe2f3" d="m341.06033 81.75559l33.41153 -65.70079l55.56485 65.70079z" fill-rule="evenodd"/><path stroke="#000000" stroke-width="2.0" stroke-linejoin="round" stroke-linecap="butt" d="m341.06033 81.75559l33.41153 -65.70079l55.56485 65.70079z" fill-rule="evenodd"/><path fill="#f3f3f3" d="m463.87848 16.04212l-33.41153 65.70078l-55.56485 -65.70078z" fill-rule="evenodd"/><path stroke="#000000" stroke-width="2.0" stroke-linejoin="round" stroke-linecap="butt" d="m463.87848 16.04212l-33.41153 65.70078l-55.56485 -65.70078z" fill-rule="evenodd"/><path fill="#f3f3f3" d="m430.0358 81.75559l33.4115 -65.70079l55.56485 65.70079z" fill-rule="evenodd"/><path stroke="#000000" stroke-width="2.0" stroke-linejoin="round" stroke-linecap="butt" d="m430.0358 81.75559l33.4115 -65.70079l55.56485 65.70079z" fill-rule="evenodd"/><path fill="#f3f3f3" d="m552.85394 16.04212l-33.41156 65.70078l-55.56485 -65.70078z" fill-rule="evenodd"/><path stroke="#000000" stroke-width="2.0" stroke-linejoin="round" stroke-linecap="butt" d="m552.85394 16.04212l-33.41156 65.70078l-55.56485 -65.70078z" fill-rule="evenodd"/><path fill="#d9d9d9" d="m519.38135 81.75559l33.4115 -65.70079l55.56488 65.70079z" fill-rule="evenodd"/><path stroke="#000000" stroke-width="2.0" stroke-linejoin="round" stroke-linecap="butt" d="m519.38135 81.75559l33.4115 -65.70079l55.56488 65.70079z" fill-rule="evenodd"/><path fill="#d9d9d9" d="m642.19946 16.04212l-33.4115 65.70078l-55.56488 -65.70078z" fill-rule="evenodd"/><path stroke="#000000" stroke-width="2.0" stroke-linejoin="round" stroke-linecap="butt" d="m642.19946 16.04212l-33.4115 65.70078l-55.56488 -65.70078z" fill-rule="evenodd"/></g></svg>