<svg version="1.1" viewBox="0.0 0.0 664.8425196850394 701.0813648293963" fill="none" stroke="none" stroke-linecap="square" stroke-miterlimit="10" xmlns:xlink="http://www.w3.org/1999/xlink" xmlns="http://www.w3.org/2000/svg"><clipPath id="p.0"><path d="m0 0l664.8425 0l0 701.08136l-664.8425 0l0 -701.08136z" clip-rule="nonzero"/></clipPath><g clip-path="url(#p.0)"><path fill="#000000" fill-opacity="0.0" d="m0 0l664.8425 0l0 701.08136l-664.8425 0z" fill-rule="evenodd"/><path fill="#f3f3f3" d="m166.16412 70.78197l28.029694 -54.740158l75.1514 0l-28.029694 54.740158z" fill-rule="evenodd"/><path stroke="#000000" stroke-width="2.0" stroke-linejoin="round" stroke-linecap="butt" d="m166.16412 70.78197l28.029694 -54.740158l75.1514 0l-28.029694 54.740158z" fill-rule="evenodd"/><path fill="#ea9999" d="m241.50194 70.78197l28.029709 -54.740158l75.1514 0l-28.029694 54.740158z" fill-rule="evenodd"/><path stroke="#000000" stroke-width="2.0" stroke-linejoin="round" stroke-linecap="butt" d="m241.50194 70.78197l28.029709 -54.740158l75.1514 0l-28.029694 54.740158z" fill-rule="evenodd"/><path fill="#ea9999" d="m316.72153 70.78197l28.029724 -54.740158l75.1514 0l-28.029694 54.740158z" fill-rule="evenodd"/><path stroke="#000000" stroke-width="2.0" stroke-linejoin="round" stroke-linecap="butt" d="m316.72153 70.78197l28.029724 -54.740158l75.1514 0l-28.029694 54.740158z" fill-rule="evenodd"/><path fill="#cfe2f3" d="m392.06094 70.78197l28.029694 -54.740158l75.15143 0l-28.029724 54.740158z" fill-rule="evenodd"/><path stroke="#000000" stroke-width="2.0" stroke-linejoin="round" stroke-linecap="butt" d="m392.06094 70.78197l28.029694 -54.740158l75.15143 0l-28.029724 54.740158z" fill-rule="evenodd"/><path fill="#f3f3f3" d="m138.29164 125.51094l28.029694 -54.740158l75.1514 0l-28.029694 54.740158z" fill-rule="evenodd"/><path stroke="#000000" stroke-width="2.0" stroke-linejoin="round" stroke-linecap="butt" d="m138.29164 125.51094l28.029694 -54.740158l75.1514 0l-28.029694 54.740158z" fill-rule="evenodd"/><path fill="#ea9999" d="m213.62946 125.51094l28.029694 -54.740158l75.1514 0l-28.029694 54.740158z" fill-rule="evenodd"/><path stroke="#000000" stroke-width="2.0" stroke-linejoin="round" stroke-linecap="butt" d="m213.62946 125.51094l28.029694 -54.740158l75.1514 0l-28.029694 54.740158z" fill-rule="evenodd"/><path fill="#ea9999" d="m288.84906 125.51094l28.029694 -54.740158l75.1514 0l-28.029694 54.740158z" fill-rule="evenodd"/><path stroke="#000000" stroke-width="2.0" stroke-linejoin="round" stroke-linecap="butt" d="m288.84906 125.51094l28.029694 -54.740158l75.1514 0l-28.029694 54.740158z" fill-rule="evenodd"/><path fill="#cfe2f3" d="m364.18848 125.51094l28.029694 -54.740158l75.1514 0l-28.029694 54.740158z" fill-rule="evenodd"/><path stroke="#000000" stroke-width="2.0" stroke-linejoin="round" stroke-linecap="butt" d="m364.18848 125.51094l28.029694 -54.740158l75.1514 0l-28.029694 54.740158z" fill-rule="evenodd"/><path fill="#d9d9d9" d="m110.24184 180.23991l28.029694 -54.740158l75.15141 0l-28.029709 54.740158z" fill-rule="evenodd"/><path stroke="#000000" stroke-width="2.0" stroke-linejoin="round" stroke-linecap="butt" d="m110.24184 180.23991l28.029694 -54.740158l75.15141 0l-28.029709 54.740158z" fill-rule="evenodd"/><path fill="#cfe2f3" d="m185.57965 180.23991l28.029694 -54.740158l75.1514 0l-28.029694 54.740158z" fill-rule="evenodd"/><path stroke="#000000" stroke-width="2.0" stroke-linejoin="round" stroke-linecap="butt" d="m185.57965 180.23991l28.029694 -54.740158l75.1514 0l-28.029694 54.740158z" fill-rule="evenodd"/><path fill="#cfe2f3" d="m260.79926 180.23991l28.029694 -54.740158l75.1514 0l-28.029694 54.740158z" fill-rule="evenodd"/><path stroke="#000000" stroke-width="2.0" stroke-linejoin="round" stroke-linecap="butt" d="m260.79926 180.23991l28.029694 -54.740158l75.1514 0l-28.029694 54.740158z" fill-rule="evenodd"/><path fill="#9fc5e8" d="m336.13867 180.23991l28.029694 -54.740158l75.1514 0l-28.029694 54.740158z" fill-rule="evenodd"/><path stroke="#000000" stroke-width="2.0" stroke-linejoin="round" stroke-linecap="butt" d="m336.13867 180.23991l28.029694 -54.740158l75.1514 0l-28.029694 54.740158z" fill-rule="evenodd"/><path fill="#d9d9d9" d="m82.369354 234.96889l28.029694 -54.740158l75.15141 0l-28.029709 54.740158z" fill-rule="evenodd"/><path stroke="#000000" stroke-width="2.0" stroke-linejoin="round" stroke-linecap="butt" d="m82.369354 234.96889l28.029694 -54.740158l75.15141 0l-28.029709 54.740158z" fill-rule="evenodd"/><path fill="#cfe2f3" d="m157.70717 234.96889l28.029694 -54.740158l75.15141 0l-28.029709 54.740158z" fill-rule="evenodd"/><path stroke="#000000" stroke-width="2.0" stroke-linejoin="round" stroke-linecap="butt" d="m157.70717 234.96889l28.029694 -54.740158l75.15141 0l-28.029709 54.740158z" fill-rule="evenodd"/><path fill="#cfe2f3" d="m232.92677 234.96889l28.029709 -54.740158l75.1514 0l-28.029694 54.740158z" fill-rule="evenodd"/><path stroke="#000000" stroke-width="2.0" stroke-linejoin="round" stroke-linecap="butt" d="m232.92677 234.96889l28.029709 -54.740158l75.1514 0l-28.029694 54.740158z" fill-rule="evenodd"/><path fill="#9fc5e8" d="m308.26617 234.96889l28.029694 -54.740158l75.15143 0l-28.029694 54.740158z" fill-rule="evenodd"/><path stroke="#000000" stroke-width="2.0" stroke-linejoin="round" stroke-linecap="butt" d="m308.26617 234.96889l28.029694 -54.740158l75.15143 0l-28.029694 54.740158z" fill-rule="evenodd"/><path fill="#cfe2f3" d="m467.0997 70.78197l28.029694 -54.740158l75.15143 0l-28.029724 54.740158z" fill-rule="evenodd"/><path stroke="#000000" stroke-width="2.0" stroke-linejoin="round" stroke-linecap="butt" d="m467.0997 70.78197l28.029694 -54.740158l75.15143 0l-28.029724 54.740158z" fill-rule="evenodd"/><path fill="#f3f3f3" d="m542.4375 70.78197l28.029724 -54.740158l75.15137 0l-28.029663 54.740158z" fill-rule="evenodd"/><path stroke="#000000" stroke-width="2.0" stroke-linejoin="round" stroke-linecap="butt" d="m542.4375 70.78197l28.029724 -54.740158l75.15137 0l-28.029663 54.740158z" fill-rule="evenodd"/><path fill="#cfe2f3" d="m439.2272 125.51094l28.029724 -54.740158l75.1514 0l-28.029724 54.740158z" fill-rule="evenodd"/><path stroke="#000000" stroke-width="2.0" stroke-linejoin="round" stroke-linecap="butt" d="m439.2272 125.51094l28.029724 -54.740158l75.1514 0l-28.029724 54.740158z" fill-rule="evenodd"/><path fill="#f3f3f3" d="m514.56506 125.51094l28.029663 -54.740158l75.15143 0l-28.029724 54.740158z" fill-rule="evenodd"/><path stroke="#000000" stroke-width="2.0" stroke-linejoin="round" stroke-linecap="butt" d="m514.56506 125.51094l28.029663 -54.740158l75.15143 0l-28.029724 54.740158z" fill-rule="evenodd"/><path fill="#9fc5e8" d="m411.17743 180.23991l28.029694 -54.740158l75.1514 0l-28.029694 54.740158z" fill-rule="evenodd"/><path stroke="#000000" stroke-width="2.0" stroke-linejoin="round" stroke-linecap="butt" d="m411.17743 180.23991l28.029694 -54.740158l75.1514 0l-28.029694 54.740158z" fill-rule="evenodd"/><path fill="#d9d9d9" d="m486.51523 180.23991l28.029694 -54.740158l75.15143 0l-28.029724 54.740158z" fill-rule="evenodd"/><path stroke="#000000" stroke-width="2.0" stroke-linejoin="round" stroke-linecap="butt" d="m486.51523 180.23991l28.029694 -54.740158l75.15143 0l-28.029724 54.740158z" fill-rule="evenodd"/><path fill="#9fc5e8" d="m383.30493 234.96889l28.029694 -54.740158l75.1514 0l-28.029694 54.740158z" fill-rule="evenodd"/><path stroke="#000000" stroke-width="2.0" stroke-linejoin="round" stroke-linecap="butt" d="m383.30493 234.96889l28.029694 -54.740158l75.1514 0l-28.029694 54.740158z" fill-rule="evenodd"/><path fill="#d9d9d9" d="m458.64276 234.96889l28.029694 -54.740158l75.1514 0l-28.029724 54.740158z" fill-rule="evenodd"/><path stroke="#000000" stroke-width="2.0" stroke-linejoin="round" stroke-linecap="butt" d="m458.64276 234.96889l28.029694 -54.740158l75.1514 0l-28.029724 54.740158z" fill-rule="evenodd"/><path fill="#f3f3f3" d="m54.253876 289.6962l28.029694 -54.740158l75.15141 0l-28.029709 54.740158z" fill-rule="evenodd"/><path stroke="#000000" stroke-width="2.0" stroke-linejoin="round" stroke-linecap="butt" d="m54.253876 289.6962l28.029694 -54.740158l75.15141 0l-28.029709 54.740158z" fill-rule="evenodd"/><path fill="#9fc5e8" d="m129.59169 289.6962l28.029694 -54.740158l75.15141 0l-28.029709 54.740158z" fill-rule="evenodd"/><path stroke="#000000" stroke-width="2.0" stroke-linejoin="round" stroke-linecap="butt" d="m129.59169 289.6962l28.029694 -54.740158l75.15141 0l-28.029709 54.740158z" fill-rule="evenodd"/><path fill="#9fc5e8" d="m204.8113 289.6962l28.029694 -54.740158l75.15141 0l-28.029694 54.740158z" fill-rule="evenodd"/><path stroke="#000000" stroke-width="2.0" stroke-linejoin="round" stroke-linecap="butt" d="m204.8113 289.6962l28.029694 -54.740158l75.15141 0l-28.029694 54.740158z" fill-rule="evenodd"/><path fill="#cfe2f3" d="m280.1507 289.6962l28.029694 -54.740158l75.15143 0l-28.029694 54.740158z" fill-rule="evenodd"/><path stroke="#000000" stroke-width="2.0" stroke-linejoin="round" stroke-linecap="butt" d="m280.1507 289.6962l28.029694 -54.740158l75.15143 0l-28.029694 54.740158z" fill-rule="evenodd"/><path fill="#f3f3f3" d="m26.381392 344.42517l28.0297 -54.740143l75.15141 0l-28.029701 54.740143z" fill-rule="evenodd"/><path stroke="#000000" stroke-width="2.0" stroke-linejoin="round" stroke-linecap="butt" d="m26.381392 344.42517l28.0297 -54.740143l75.15141 0l-28.029701 54.740143z" fill-rule="evenodd"/><path fill="#9fc5e8" d="m101.71921 344.42517l28.029694 -54.740143l75.15141 0l-28.029709 54.740143z" fill-rule="evenodd"/><path stroke="#000000" stroke-width="2.0" stroke-linejoin="round" stroke-linecap="butt" d="m101.71921 344.42517l28.029694 -54.740143l75.15141 0l-28.029709 54.740143z" fill-rule="evenodd"/><path fill="#9fc5e8" d="m176.93881 344.42517l28.029694 -54.740143l75.1514 0l-28.029694 54.740143z" fill-rule="evenodd"/><path stroke="#000000" stroke-width="2.0" stroke-linejoin="round" stroke-linecap="butt" d="m176.93881 344.42517l28.029694 -54.740143l75.1514 0l-28.029694 54.740143z" fill-rule="evenodd"/><path fill="#cfe2f3" d="m252.27823 344.42517l28.029694 -54.740143l75.1514 0l-28.029694 54.740143z" fill-rule="evenodd"/><path stroke="#000000" stroke-width="2.0" stroke-linejoin="round" stroke-linecap="butt" d="m252.27823 344.42517l28.029694 -54.740143l75.1514 0l-28.029694 54.740143z" fill-rule="evenodd"/><path fill="#cfe2f3" d="m355.18945 289.6962l28.029694 -54.740158l75.1514 0l-28.029694 54.740158z" fill-rule="evenodd"/><path stroke="#000000" stroke-width="2.0" stroke-linejoin="round" stroke-linecap="butt" d="m355.18945 289.6962l28.029694 -54.740158l75.1514 0l-28.029694 54.740158z" fill-rule="evenodd"/><path fill="#f3f3f3" d="m430.52728 289.6962l28.029694 -54.740158l75.1514 0l-28.029694 54.740158z" fill-rule="evenodd"/><path stroke="#000000" stroke-width="2.0" stroke-linejoin="round" stroke-linecap="butt" d="m430.52728 289.6962l28.029694 -54.740158l75.1514 0l-28.029694 54.740158z" fill-rule="evenodd"/><path fill="#cfe2f3" d="m327.317 344.42517l28.029694 -54.740143l75.1514 0l-28.029694 54.740143z" fill-rule="evenodd"/><path stroke="#000000" stroke-width="2.0" stroke-linejoin="round" stroke-linecap="butt" d="m327.317 344.42517l28.029694 -54.740143l75.1514 0l-28.029694 54.740143z" fill-rule="evenodd"/><path fill="#f3f3f3" d="m402.6548 344.42517l28.029694 -54.740143l75.1514 0l-28.029694 54.740143z" fill-rule="evenodd"/><path stroke="#000000" stroke-width="2.0" stroke-linejoin="round" stroke-linecap="butt" d="m402.6548 344.42517l28.029694 -54.740143l75.1514 0l-28.029694 54.740143z" fill-rule="evenodd"/><path fill="#ea9999" d="m166.16412 425.60086l28.029694 -54.740143l75.1514 0l-28.029694 54.740143z" fill-rule="evenodd"/><path stroke="#000000" stroke-width="2.0" stroke-linejoin="round" stroke-linecap="butt" d="m166.16412 425.60086l28.029694 -54.740143l75.1514 0l-28.029694 54.740143z" fill-rule="evenodd"/><path fill="#ea9999" d="m241.50194 425.60086l28.029709 -54.740143l75.1514 0l-28.029694 54.740143z" fill-rule="evenodd"/><path stroke="#000000" stroke-width="2.0" stroke-linejoin="round" stroke-linecap="butt" d="m241.50194 425.60086l28.029709 -54.740143l75.1514 0l-28.029694 54.740143z" fill-rule="evenodd"/><path fill="#cfe2f3" d="m316.72153 425.60086l28.029724 -54.740143l75.1514 0l-28.029694 54.740143z" fill-rule="evenodd"/><path stroke="#000000" stroke-width="2.0" stroke-linejoin="round" stroke-linecap="butt" d="m316.72153 425.60086l28.029724 -54.740143l75.1514 0l-28.029694 54.740143z" fill-rule="evenodd"/><path fill="#cfe2f3" d="m392.06094 425.60086l28.029694 -54.740143l75.15143 0l-28.029724 54.740143z" fill-rule="evenodd"/><path stroke="#000000" stroke-width="2.0" stroke-linejoin="round" stroke-linecap="butt" d="m392.06094 425.60086l28.029694 -54.740143l75.15143 0l-28.029724 54.740143z" fill-rule="evenodd"/><path fill="#ea9999" d="m138.29164 480.32983l28.029694 -54.740143l75.1514 0l-28.029694 54.740143z" fill-rule="evenodd"/><path stroke="#000000" stroke-width="2.0" stroke-linejoin="round" stroke-linecap="butt" d="m138.29164 480.32983l28.029694 -54.740143l75.1514 0l-28.029694 54.740143z" fill-rule="evenodd"/><path fill="#ea9999" d="m213.62946 480.32983l28.029694 -54.740143l75.1514 0l-28.029694 54.740143z" fill-rule="evenodd"/><path stroke="#000000" stroke-width="2.0" stroke-linejoin="round" stroke-linecap="butt" d="m213.62946 480.32983l28.029694 -54.740143l75.1514 0l-28.029694 54.740143z" fill-rule="evenodd"/><path fill="#cfe2f3" d="m288.84906 480.32983l28.029694 -54.740143l75.1514 0l-28.029694 54.740143z" fill-rule="evenodd"/><path stroke="#000000" stroke-width="2.0" stroke-linejoin="round" stroke-linecap="butt" d="m288.84906 480.32983l28.029694 -54.740143l75.1514 0l-28.029694 54.740143z" fill-rule="evenodd"/><path fill="#cfe2f3" d="m364.18848 480.32983l28.029694 -54.740143l75.1514 0l-28.029694 54.740143z" fill-rule="evenodd"/><path stroke="#000000" stroke-width="2.0" stroke-linejoin="round" stroke-linecap="butt" d="m364.18848 480.32983l28.029694 -54.740143l75.1514 0l-28.029694 54.740143z" fill-rule="evenodd"/><path fill="#cfe2f3" d="m110.24184 535.05884l28.029694 -54.740173l75.15141 0l-28.029709 54.740173z" fill-rule="evenodd"/><path stroke="#000000" stroke-width="2.0" stroke-linejoin="round" stroke-linecap="butt" d="m110.24184 535.05884l28.029694 -54.740173l75.15141 0l-28.029709 54.740173z" fill-rule="evenodd"/><path fill="#cfe2f3" d="m185.57965 535.05884l28.029694 -54.740173l75.1514 0l-28.029694 54.740173z" fill-rule="evenodd"/><path stroke="#000000" stroke-width="2.0" stroke-linejoin="round" stroke-linecap="butt" d="m185.57965 535.05884l28.029694 -54.740173l75.1514 0l-28.029694 54.740173z" fill-rule="evenodd"/><path fill="#9fc5e8" d="m260.79926 535.05884l28.029694 -54.740173l75.1514 0l-28.029694 54.740173z" fill-rule="evenodd"/><path stroke="#000000" stroke-width="2.0" stroke-linejoin="round" stroke-linecap="butt" d="m260.79926 535.05884l28.029694 -54.740173l75.1514 0l-28.029694 54.740173z" fill-rule="evenodd"/><path fill="#9fc5e8" d="m336.13867 535.05884l28.029694 -54.740173l75.1514 0l-28.029694 54.740173z" fill-rule="evenodd"/><path stroke="#000000" stroke-width="2.0" stroke-linejoin="round" stroke-linecap="butt" d="m336.13867 535.05884l28.029694 -54.740173l75.1514 0l-28.029694 54.740173z" fill-rule="evenodd"/><path fill="#cfe2f3" d="m82.369354 589.7878l28.029694 -54.740173l75.15141 0l-28.029709 54.740173z" fill-rule="evenodd"/><path stroke="#000000" stroke-width="2.0" stroke-linejoin="round" stroke-linecap="butt" d="m82.369354 589.7878l28.029694 -54.740173l75.15141 0l-28.029709 54.740173z" fill-rule="evenodd"/><path fill="#cfe2f3" d="m157.70717 589.7878l28.029694 -54.740173l75.15141 0l-28.029709 54.740173z" fill-rule="evenodd"/><path stroke="#000000" stroke-width="2.0" stroke-linejoin="round" stroke-linecap="butt" d="m157.70717 589.7878l28.029694 -54.740173l75.15141 0l-28.029709 54.740173z" fill-rule="evenodd"/><path fill="#9fc5e8" d="m232.92677 589.7878l28.029709 -54.740173l75.1514 0l-28.029694 54.740173z" fill-rule="evenodd"/><path stroke="#000000" stroke-width="2.0" stroke-linejoin="round" stroke-linecap="butt" d="m232.92677 589.7878l28.029709 -54.740173l75.1514 0l-28.029694 54.740173z" fill-rule="evenodd"/><path fill="#9fc5e8" d="m308.26617 589.7878l28.029694 -54.740173l75.15143 0l-28.029694 54.740173z" fill-rule="evenodd"/><path stroke="#000000" stroke-width="2.0" stroke-linejoin="round" stroke-linecap="butt" d="m308.26617 589.7878l28.029694 -54.740173l75.15143 0l-28.029694 54.740173z" fill-rule="evenodd"/><path fill="#9fc5e8" d="m467.0997 425.60086l28.029694 -54.740143l75.15143 0l-28.029724 54.740143z" fill-rule="evenodd"/><path stroke="#000000" stroke-width="2.0" stroke-linejoin="round" stroke-linecap="butt" d="m467.0997 425.60086l28.029694 -54.740143l75.15143 0l-28.029724 54.740143z" fill-rule="evenodd"/><path fill="#9fc5e8" d="m542.4375 425.60086l28.029724 -54.740143l75.15137 0l-28.029663 54.740143z" fill-rule="evenodd"/><path stroke="#000000" stroke-width="2.0" stroke-linejoin="round" stroke-linecap="butt" d="m542.4375 425.60086l28.029724 -54.740143l75.15137 0l-28.029663 54.740143z" fill-rule="evenodd"/><path fill="#9fc5e8" d="m439.2272 480.32983l28.029724 -54.740143l75.1514 0l-28.029724 54.740143z" fill-rule="evenodd"/><path stroke="#000000" stroke-width="2.0" stroke-linejoin="round" stroke-linecap="butt" d="m439.2272 480.32983l28.029724 -54.740143l75.1514 0l-28.029724 54.740143z" fill-rule="evenodd"/><path fill="#9fc5e8" d="m514.56506 480.32983l28.029663 -54.740143l75.15143 0l-28.029724 54.740143z" fill-rule="evenodd"/><path stroke="#000000" stroke-width="2.0" stroke-linejoin="round" stroke-linecap="butt" d="m514.56506 480.32983l28.029663 -54.740143l75.15143 0l-28.029724 54.740143z" fill-rule="evenodd"/><path fill="#cfe2f3" d="m411.17743 535.05884l28.029694 -54.740173l75.1514 0l-28.029694 54.740173z" fill-rule="evenodd"/><path stroke="#000000" stroke-width="2.0" stroke-linejoin="round" stroke-linecap="butt" d="m411.17743 535.05884l28.029694 -54.740173l75.1514 0l-28.029694 54.740173z" fill-rule="evenodd"/><path fill="#cfe2f3" d="m486.51523 535.05884l28.029694 -54.740173l75.15143 0l-28.029724 54.740173z" fill-rule="evenodd"/><path stroke="#000000" stroke-width="2.0" stroke-linejoin="round" stroke-linecap="butt" d="m486.51523 535.05884l28.029694 -54.740173l75.15143 0l-28.029724 54.740173z" fill-rule="evenodd"/><path fill="#cfe2f3" d="m383.30493 589.7878l28.029694 -54.740173l75.1514 0l-28.029694 54.740173z" fill-rule="evenodd"/><path stroke="#000000" stroke-width="2.0" stroke-linejoin="round" stroke-linecap="butt" d="m383.30493 589.7878l28.029694 -54.740173l75.1514 0l-28.029694 54.740173z" fill-rule="evenodd"/><path fill="#cfe2f3" d="m458.64276 589.7878l28.029694 -54.740173l75.1514 0l-28.029724 54.740173z" fill-rule="evenodd"/><path stroke="#000000" stroke-width="2.0" stroke-linejoin="round" stroke-linecap="butt" d="m458.64276 589.7878l28.029694 -54.740173l75.1514 0l-28.029724 54.740173z" fill-rule="evenodd"/><path fill="#9fc5e8" d="m54.253876 644.5151l28.029694 -54.740112l75.15141 0l-28.029709 54.740112z" fill-rule="evenodd"/><path stroke="#000000" stroke-width="2.0" stroke-linejoin="round" stroke-linecap="butt" d="m54.253876 644.5151l28.029694 -54.740112l75.15141 0l-28.029709 54.740112z" fill-rule="evenodd"/><path fill="#9fc5e8" d="m129.59169 644.5151l28.029694 -54.740112l75.15141 0l-28.029709 54.740112z" fill-rule="evenodd"/><path stroke="#000000" stroke-width="2.0" stroke-linejoin="round" stroke-linecap="butt" d="m129.59169 644.5151l28.029694 -54.740112l75.15141 0l-28.029709 54.740112z" fill-rule="evenodd"/><path fill="#cfe2f3" d="m204.8113 644.5151l28.029694 -54.740112l75.15141 0l-28.029694 54.740112z" fill-rule="evenodd"/><path stroke="#000000" stroke-width="2.0" stroke-linejoin="round" stroke-linecap="butt" d="m204.8113 644.5151l28.029694 -54.740112l75.15141 0l-28.029694 54.740112z" fill-rule="evenodd"/><path fill="#cfe2f3" d="m280.1507 644.5151l28.029694 -54.740112l75.15143 0l-28.029694 54.740112z" fill-rule="evenodd"/><path stroke="#000000" stroke-width="2.0" stroke-linejoin="round" stroke-linecap="butt" d="m280.1507 644.5151l28.029694 -54.740112l75.15143 0l-28.029694 54.740112z" fill-rule="evenodd"/><path fill="#9fc5e8" d="m26.381392 699.2441l28.0297 -54.740173l75.15141 0l-28.029701 54.740173z" fill-rule="evenodd"/><path stroke="#000000" stroke-width="2.0" stroke-linejoin="round" stroke-linecap="butt" d="m26.381392 699.2441l28.0297 -54.740173l75.15141 0l-28.029701 54.740173z" fill-rule="evenodd"/><path fill="#9fc5e8" d="m101.71921 699.2441l28.029694 -54.740173l75.15141 0l-28.029709 54.740173z" fill-rule="evenodd"/><path stroke="#000000" stroke-width="2.0" stroke-linejoin="round" stroke-linecap="butt" d="m101.71921 699.2441l28.029694 -54.740173l75.15141 0l-28.029709 54.740173z" fill-rule="evenodd"/><path fill="#cfe2f3" d="m176.93881 699.2441l28.029694 -54.740173l75.1514 0l-28.029694 54.740173z" fill-rule="evenodd"/><path stroke="#000000" stroke-width="2.0" stroke-linejoin="round" stroke-linecap="butt" d="m176.93881 699.2441l28.029694 -54.740173l75.1514 0l-28.029694 54.740173z" fill-rule="evenodd"/><path fill="#cfe2f3" d="m252.27823 699.2441l28.029694 -54.740173l75.1514 0l-28.029694 54.740173z" fill-rule="evenodd"/><path stroke="#000000" stroke-width="2.0" stroke-linejoin="round" stroke-linecap="butt" d="m252.27823 699.2441l28.029694 -54.740173l75.1514 0l-28.029694 54.740173z" fill-rule="evenodd"/><path fill="#9fc5e8" d="m355.18945 644.5151l28.029694 -54.740112l75.1514 0l-28.029694 54.740112z" fill-rule="evenodd"/><path stroke="#000000" stroke-width="2.0" stroke-linejoin="round" stroke-linecap="butt" d="m355.18945 644.5151l28.029694 -54.740112l75.1514 0l-28.029694 54.740112z" fill-rule="evenodd"/><path fill="#9fc5e8" d="m430.52728 644.5151l28.029694 -54.740112l75.1514 0l-28.029694 54.740112z" fill-rule="evenodd"/><path stroke="#000000" stroke-width="2.0" stroke-linejoin="round" stroke-linecap="butt" d="m430.52728 644.5151l28.029694 -54.740112l75.1514 0l-28.029694 54.740112z" fill-rule="evenodd"/><path fill="#9fc5e8" d="m327.317 699.2441l28.029694 -54.740173l75.1514 0l-28.029694 54.740173z" fill-rule="evenodd"/><path stroke="#000000" stroke-width="2.0" stroke-linejoin="round" stroke-linecap="butt" d="m327.317 699.2441l28.029694 -54.740173l75.1514 0l-28.029694 54.740173z" fill-rule="evenodd"/><path fill="#9fc5e8" d="m402.6548 699.2441l28.029694 -54.740173l75.1514 0l-28.029694 54.740173z" fill-rule="evenodd"/><path stroke="#000000" stroke-width="2.0" stroke-linejoin="round" stroke-linecap="butt" d="m402.6548 699.2441l28.029694 -54.740173l75.1514 0l-28.029694 54.740173z" fill-rule="evenodd"/></g></svg>