<svg version="1.1" viewBox="0.0 0.0 515.7454068241469 496.8608923884514" fill="none" stroke="none" stroke-linecap="square" stroke-miterlimit="10" xmlns:xlink="http://www.w3.org/1999/xlink" xmlns="http://www.w3.org/2000/svg"><clipPath id="p.0"><path d="m0 0l515.7454 0l0 496.8609l-515.7454 0l0 -496.8609z" clip-rule="nonzero"/></clipPath><g clip-path="url(#p.0)"><path fill="#000000" fill-opacity="0.0" d="m0 0l515.7454 0l0 496.8609l-515.7454 0z" fill-rule="evenodd"/><path fill="#9fc5e8" d="m9.233309 118.00505l5.8741436 56.02446l76.551056 3.6290894l-5.8741455 -56.02446z" fill-rule="evenodd"/><path stroke="#000000" stroke-width="2.0" stroke-linejoin="round" stroke-linecap="butt" d="m9.233309 118.00505l5.8741436 56.02446l76.551056 3.6290894l-5.8741455 -56.02446z" fill-rule="evenodd"/><path fill="#9fc5e8" d="m85.05425 121.5871l5.8741455 56.02446l76.55105 3.6290894l-5.8741455 -56.02446z" fill-rule="evenodd"/><path stroke="#000000" stroke-width="2.0" stroke-linejoin="round" stroke-linecap="butt" d="m85.05425 121.5871l5.8741455 56.02446l76.55105 3.6290894l-5.8741455 -56.02446z" fill-rule="evenodd"/><path fill="#b7b7b7" d="m161.91321 124.950714l21.315582 -53.79161l76.542694 3.6183777l-21.315598 53.79161z" fill-rule="evenodd"/><path stroke="#000000" stroke-width="2.0" stroke-linejoin="round" stroke-linecap="butt" d="m161.91321 124.950714l21.315582 -53.79161l76.542694 3.6183777l-21.315598 53.79161z" fill-rule="evenodd"/><path fill="#cccccc" d="m161.89767 125.217445l5.8741455 56.024467l76.551056 3.629074l-5.8741455 -56.024445z" fill-rule="evenodd"/><path stroke="#000000" stroke-width="2.0" stroke-linejoin="round" stroke-linecap="butt" d="m161.89767 125.217445l5.8741455 56.024467l76.551056 3.629074l-5.8741455 -56.024445z" fill-rule="evenodd"/><path fill="#b7b7b7" d="m237.73283 128.79654l21.315598 -53.79161l76.54266 3.6183777l-21.315582 53.79161z" fill-rule="evenodd"/><path stroke="#000000" stroke-width="2.0" stroke-linejoin="round" stroke-linecap="butt" d="m237.73283 128.79654l21.315598 -53.79161l76.54266 3.6183777l-21.315582 53.79161z" fill-rule="evenodd"/><path fill="#cccccc" d="m237.71863 128.7995l5.8741455 56.02446l76.551056 3.629074l-5.8741455 -56.024445z" fill-rule="evenodd"/><path stroke="#000000" stroke-width="2.0" stroke-linejoin="round" stroke-linecap="butt" d="m237.71863 128.7995l5.8741455 56.02446l76.551056 3.629074l-5.8741455 -56.024445z" fill-rule="evenodd"/><path fill="#cfe2f3" d="m314.57626 132.4269l21.315582 -53.79162l76.542694 3.6183853l-21.315613 53.79161z" fill-rule="evenodd"/><path stroke="#000000" stroke-width="2.0" stroke-linejoin="round" stroke-linecap="butt" d="m314.57626 132.4269l21.315582 -53.79162l76.542694 3.6183853l-21.315613 53.79161z" fill-rule="evenodd"/><path fill="#cfe2f3" d="m390.39722 136.00894l21.315582 -53.79162l76.54266 3.6183853l-21.315582 53.79161z" fill-rule="evenodd"/><path stroke="#000000" stroke-width="2.0" stroke-linejoin="round" stroke-linecap="butt" d="m390.39722 136.00894l21.315582 -53.79162l76.54266 3.6183853l-21.315582 53.79161z" fill-rule="evenodd"/><path fill="#f3f3f3" d="m183.20917 71.41943l21.315582 -53.791607l76.54266 3.6183815l-21.315582 53.79161z" fill-rule="evenodd"/><path stroke="#000000" stroke-width="2.0" stroke-linejoin="round" stroke-linecap="butt" d="m183.20917 71.41943l21.315582 -53.791607l76.54266 3.6183815l-21.315582 53.79161z" fill-rule="evenodd"/><path fill="#f3f3f3" d="m259.0301 75.00148l21.315613 -53.791607l76.54266 3.6183815l-21.315582 53.79161z" fill-rule="evenodd"/><path stroke="#000000" stroke-width="2.0" stroke-linejoin="round" stroke-linecap="butt" d="m259.0301 75.00148l21.315613 -53.791607l76.54266 3.6183815l-21.315582 53.79161z" fill-rule="evenodd"/><path fill="#cfe2f3" d="m335.87354 78.631836l21.315582 -53.79161l76.542694 3.6183815l-21.315613 53.791607z" fill-rule="evenodd"/><path stroke="#000000" stroke-width="2.0" stroke-linejoin="round" stroke-linecap="butt" d="m335.87354 78.631836l21.315582 -53.79161l76.542694 3.6183815l-21.315613 53.791607z" fill-rule="evenodd"/><path fill="#cfe2f3" d="m411.6945 82.21388l21.315582 -53.79161l76.54266 3.6183815l-21.315582 53.791607z" fill-rule="evenodd"/><path stroke="#000000" stroke-width="2.0" stroke-linejoin="round" stroke-linecap="butt" d="m411.6945 82.21388l21.315582 -53.79161l76.54266 3.6183815l-21.315582 53.791607z" fill-rule="evenodd"/><path fill="#9fc5e8" d="m15.122231 174.03041l5.8741436 56.02446l76.55105 3.6290894l-5.874138 -56.02446z" fill-rule="evenodd"/><path stroke="#000000" stroke-width="2.0" stroke-linejoin="round" stroke-linecap="butt" d="m15.122231 174.03041l5.8741436 56.02446l76.55105 3.6290894l-5.874138 -56.02446z" fill-rule="evenodd"/><path fill="#9fc5e8" d="m90.94318 177.61246l5.8741455 56.02446l76.551056 3.6290894l-5.8741455 -56.02446z" fill-rule="evenodd"/><path stroke="#000000" stroke-width="2.0" stroke-linejoin="round" stroke-linecap="butt" d="m90.94318 177.61246l5.8741455 56.02446l76.551056 3.6290894l-5.8741455 -56.02446z" fill-rule="evenodd"/><path fill="#f3f3f3" d="m167.7866 181.24281l5.8741455 56.02446l76.55104 3.629074l-5.8741302 -56.024445z" fill-rule="evenodd"/><path stroke="#000000" stroke-width="2.0" stroke-linejoin="round" stroke-linecap="butt" d="m167.7866 181.24281l5.8741455 56.02446l76.55104 3.629074l-5.8741302 -56.024445z" fill-rule="evenodd"/><path fill="#f3f3f3" d="m243.60754 184.82486l5.8741455 56.02446l76.551056 3.629074l-5.8741455 -56.024445z" fill-rule="evenodd"/><path stroke="#000000" stroke-width="2.0" stroke-linejoin="round" stroke-linecap="butt" d="m243.60754 184.82486l5.8741455 56.02446l76.551056 3.629074l-5.8741455 -56.024445z" fill-rule="evenodd"/><path fill="#ff0000" d="m234.39107 128.42651l0 0c0.07827759 -2.1569595 2.010147 -3.8350143 4.3149567 -3.7480392l0 0c2.3048096 0.0869751 4.1097717 1.9060364 4.031494 4.062996l0 0c-0.07827759 2.156952 -2.010147 3.8350067 -4.3149567 3.7480316l0 0c-2.3048096 -0.0869751 -4.1097717 -1.9060364 -4.031494 -4.0629883z" fill-rule="evenodd"/><path stroke="#000000" stroke-width="1.0" stroke-linejoin="round" stroke-linecap="butt" d="m234.39107 128.42651l0 0c0.07827759 -2.1569595 2.010147 -3.8350143 4.3149567 -3.7480392l0 0c2.3048096 0.0869751 4.1097717 1.9060364 4.031494 4.062996l0 0c-0.07827759 2.156952 -2.010147 3.8350067 -4.3149567 3.7480316l0 0c-2.3048096 -0.0869751 -4.1097717 -1.9060364 -4.031494 -4.0629883z" fill-rule="evenodd"/><path fill="#000000" fill-opacity="0.0" d="m187.94487 142.0726l30.330719 0l0 26.551178l-30.330719 0z" fill-rule="evenodd"/><path fill="#000000" d="m207.67924 161.03131l0 1.796875l-10.09375 0q-0.015625 -0.671875 0.21875 -1.296875q0.390625 -1.03125 1.234375 -2.03125q0.859375 -1.0 2.453125 -2.3125q2.5 -2.046875 3.375 -3.234375q0.875 -1.203125 0.875 -2.25q0 -1.125 -0.796875 -1.890625q-0.796875 -0.765625 -2.078125 -0.765625q-1.359375 0 -2.171875 0.8125q-0.8125 0.8125 -0.828125 2.25l-1.921875 -0.1875q0.203125 -2.15625 1.484375 -3.28125q1.296875 -1.140625 3.46875 -1.140625q2.203125 0 3.484375 1.21875q1.28125 1.21875 1.28125 3.015625q0 0.921875 -0.375 1.8125q-0.375 0.875 -1.25 1.859375q-0.859375 0.96875 -2.890625 2.6875q-1.6875 1.40625 -2.171875 1.921875q-0.46875 0.5 -0.78125 1.015625l7.484375 0z" fill-rule="nonzero"/><path fill="#000000" fill-opacity="0.0" d="m263.7664 145.11066l30.330719 0l0 26.551178l-30.330719 0z" fill-rule="evenodd"/><path fill="#000000" d="m283.50076 164.06937l0 1.796875l-10.09375 0q-0.015625 -0.671875 0.21875 -1.296875q0.390625 -1.03125 1.234375 -2.03125q0.859375 -1.0 2.453125 -2.3125q2.5 -2.046875 3.375 -3.234375q0.875 -1.203125 0.875 -2.25q0 -1.125 -0.796875 -1.890625q-0.796875 -0.765625 -2.078125 -0.765625q-1.359375 0 -2.171875 0.8125q-0.8125 0.8125 -0.828125 2.25l-1.921875 -0.1875q0.203125 -2.15625 1.484375 -3.28125q1.296875 -1.140625 3.46875 -1.140625q2.203125 0 3.484375 1.21875q1.28125 1.21875 1.28125 3.015625q0 0.921875 -0.375 1.8125q-0.375 0.875 -1.25 1.859375q-0.859375 0.96875 -2.890625 2.6875q-1.6875 1.40625 -2.171875 1.921875q-0.46875 0.5 -0.78125 1.015625l7.484375 0z" fill-rule="nonzero"/><path fill="#000000" fill-opacity="0.0" d="m195.67584 85.47942l30.330719 0l0 26.551178l-30.330719 0z" fill-rule="evenodd"/><path fill="#000000" d="m212.62897 106.235016l-1.875 0l0 -11.9375q-0.6875 0.640625 -1.78125 1.28125q-1.09375 0.640625 -1.96875 0.96875l0 -1.8125q1.5625 -0.734375 2.734375 -1.78125q1.1875 -1.0625 1.671875 -2.046875l1.21875 0l0 15.328125z" fill-rule="nonzero"/><path fill="#000000" fill-opacity="0.0" d="m271.49606 89.087036l30.330688 0l0 26.551178l-30.330688 0z" fill-rule="evenodd"/><path fill="#000000" d="m288.4492 109.84263l-1.875 0l0 -11.9375q-0.6875 0.640625 -1.78125 1.28125q-1.09375 0.640625 -1.96875 0.96875l0 -1.8125q1.5625 -0.734375 2.734375 -1.78125q1.1875 -1.0625 1.671875 -2.046875l1.21875 0l0 15.328125z" fill-rule="nonzero"/><path fill="#4a86e8" d="m87.12074 177.82655l0 0c-0.08696747 -1.8873291 1.4782715 -3.4878235 3.4960632 -3.5747986l0 0c2.0177994 -0.0869751 3.7240524 1.3725128 3.8110275 3.259842l0 0c0.0869751 1.8873444 -1.4782715 3.4878387 -3.4960632 3.5747986l0 0c-2.0177994 0.0869751 -3.7240524 -1.3724976 -3.8110275 -3.259842z" fill-rule="evenodd"/><path stroke="#000000" stroke-width="1.0" stroke-linejoin="round" stroke-linecap="butt" d="m87.12074 177.82655l0 0c-0.08696747 -1.8873291 1.4782715 -3.4878235 3.4960632 -3.5747986l0 0c2.0177994 -0.0869751 3.7240524 1.3725128 3.8110275 3.259842l0 0c0.0869751 1.8873444 -1.4782715 3.4878387 -3.4960632 3.5747986l0 0c-2.0177994 0.0869751 -3.7240524 -1.3724976 -3.8110275 -3.259842z" fill-rule="evenodd"/><path fill="#9fc5e8" d="m314.24905 132.64548l5.8741455 56.024445l76.551056 3.6290894l-5.8741455 -56.02446z" fill-rule="evenodd"/><path stroke="#000000" stroke-width="2.0" stroke-linejoin="round" stroke-linecap="butt" d="m314.24905 132.64548l5.8741455 56.024445l76.551056 3.6290894l-5.8741455 -56.02446z" fill-rule="evenodd"/><path fill="#9fc5e8" d="m390.07 136.22752l5.8741455 56.024445l76.551056 3.6290894l-5.8741455 -56.02446z" fill-rule="evenodd"/><path stroke="#000000" stroke-width="2.0" stroke-linejoin="round" stroke-linecap="butt" d="m390.07 136.22752l5.8741455 56.024445l76.551056 3.6290894l-5.8741455 -56.02446z" fill-rule="evenodd"/><path fill="#9fc5e8" d="m320.13797 188.67084l5.8741455 56.024445l76.551056 3.6290894l-5.8741455 -56.02446z" fill-rule="evenodd"/><path stroke="#000000" stroke-width="2.0" stroke-linejoin="round" stroke-linecap="butt" d="m320.13797 188.67084l5.8741455 56.024445l76.551056 3.6290894l-5.8741455 -56.02446z" fill-rule="evenodd"/><path fill="#9fc5e8" d="m395.95892 192.25288l5.8741455 56.024445l76.551056 3.6290894l-5.8741455 -56.02446z" fill-rule="evenodd"/><path stroke="#000000" stroke-width="2.0" stroke-linejoin="round" stroke-linecap="butt" d="m395.95892 192.25288l5.8741455 56.024445l76.551056 3.6290894l-5.8741455 -56.02446z" fill-rule="evenodd"/><path fill="#4a86e8" d="m392.1365 192.46698l0 0c-0.0869751 -1.8873291 1.478241 -3.4878235 3.4960632 -3.5747986l0 0c2.0177917 -0.0869751 3.7240295 1.3724976 3.8110046 3.259842l0 0c0.0869751 1.8873291 -1.4782715 3.4878235 -3.4960632 3.5747986l0 0c-2.0177917 0.0869751 -3.7240295 -1.3725128 -3.8110046 -3.259842z" fill-rule="evenodd"/><path stroke="#000000" stroke-width="1.0" stroke-linejoin="round" stroke-linecap="butt" d="m392.1365 192.46698l0 0c-0.0869751 -1.8873291 1.478241 -3.4878235 3.4960632 -3.5747986l0 0c2.0177917 -0.0869751 3.7240295 1.3724976 3.8110046 3.259842l0 0c0.0869751 1.8873291 -1.4782715 3.4878235 -3.4960632 3.5747986l0 0c-2.0177917 0.0869751 -3.7240295 -1.3725128 -3.8110046 -3.259842z" fill-rule="evenodd"/><path fill="#4a86e8" d="m407.99228 82.17339l0 0c0.07827759 -1.8873367 1.7774963 -3.346817 3.795288 -3.259842l0 0c2.0177917 0.0869751 3.590088 1.6874695 3.5118103 3.5747986l0 0c-0.07827759 1.8873367 -1.7774963 3.346817 -3.795288 3.259842l0 0c-2.0177917 -0.08696747 -3.590088 -1.6874619 -3.5118103 -3.5747986z" fill-rule="evenodd"/><path stroke="#000000" stroke-width="1.0" stroke-linejoin="round" stroke-linecap="butt" d="m407.99228 82.17339l0 0c0.07827759 -1.8873367 1.7774963 -3.346817 3.795288 -3.259842l0 0c2.0177917 0.0869751 3.590088 1.6874695 3.5118103 3.5747986l0 0c-0.07827759 1.8873367 -1.7774963 3.346817 -3.795288 3.259842l0 0c-2.0177917 -0.08696747 -3.590088 -1.6874619 -3.5118103 -3.5747986z" fill-rule="evenodd"/><path fill="#cfe2f3" d="m9.246535 117.997955l21.315586 -53.79161l76.54268 3.6183853l-21.31559 53.791603z" fill-rule="evenodd"/><path stroke="#000000" stroke-width="2.0" stroke-linejoin="round" stroke-linecap="butt" d="m9.246535 117.997955l21.315586 -53.79161l76.54268 3.6183853l-21.31559 53.791603z" fill-rule="evenodd"/><path fill="#cfe2f3" d="m85.06617 121.84378l21.315582 -53.79161l76.54269 3.6183853l-21.315598 53.79161z" fill-rule="evenodd"/><path stroke="#000000" stroke-width="2.0" stroke-linejoin="round" stroke-linecap="butt" d="m85.06617 121.84378l21.315582 -53.79161l76.54269 3.6183853l-21.315598 53.79161z" fill-rule="evenodd"/><path fill="#cfe2f3" d="m30.542494 64.46668l21.315588 -53.79161l76.54268 3.6183805l-21.315582 53.79161z" fill-rule="evenodd"/><path stroke="#000000" stroke-width="2.0" stroke-linejoin="round" stroke-linecap="butt" d="m30.542494 64.46668l21.315588 -53.79161l76.54268 3.6183805l-21.315582 53.79161z" fill-rule="evenodd"/><path fill="#cfe2f3" d="m106.36344 68.04873l21.315582 -53.79161l76.54269 3.6183805l-21.315598 53.79161z" fill-rule="evenodd"/><path stroke="#000000" stroke-width="2.0" stroke-linejoin="round" stroke-linecap="butt" d="m106.36344 68.04873l21.315582 -53.79161l76.54269 3.6183805l-21.315598 53.79161z" fill-rule="evenodd"/><path fill="#4a86e8" d="m102.65895 67.91093l0 0c0.07827759 -1.8873367 1.7774811 -3.346817 3.7952805 -3.259842l0 0c2.0177917 0.0869751 3.590088 1.6874619 3.5118103 3.5747986l0 0c-0.07827759 1.8873367 -1.7774811 3.346817 -3.7952805 3.259842l0 0c-2.0177917 -0.08696747 -3.5900803 -1.6874619 -3.5118103 -3.5747986z" fill-rule="evenodd"/><path stroke="#000000" stroke-width="1.0" stroke-linejoin="round" stroke-linecap="butt" d="m102.65895 67.91093l0 0c0.07827759 -1.8873367 1.7774811 -3.346817 3.7952805 -3.259842l0 0c2.0177917 0.0869751 3.590088 1.6874619 3.5118103 3.5747986l0 0c-0.07827759 1.8873367 -1.7774811 3.346817 -3.7952805 3.259842l0 0c-2.0177917 -0.08696747 -3.5900803 -1.6874619 -3.5118103 -3.5747986z" fill-rule="evenodd"/><path fill="#f3f3f3" d="m60.9731 477.8656l21.315582 -53.791595l76.54268 3.6183777l-21.315582 53.791595z" fill-rule="evenodd"/><path stroke="#000000" stroke-width="2.0" stroke-linejoin="round" stroke-linecap="butt" d="m60.9731 477.8656l21.315582 -53.791595l76.54268 3.6183777l-21.315582 53.791595z" fill-rule="evenodd"/><path fill="#cfe2f3" d="m136.79404 481.44766l21.315598 -53.791626l76.54268 3.6183777l-21.315598 53.791626z" fill-rule="evenodd"/><path stroke="#000000" stroke-width="2.0" stroke-linejoin="round" stroke-linecap="butt" d="m136.79404 481.44766l21.315598 -53.791626l76.54268 3.6183777l-21.315598 53.791626z" fill-rule="evenodd"/><path fill="#cfe2f3" d="m213.63878 484.81424l21.315582 -53.791626l76.54268 3.6183777l-21.315582 53.791626z" fill-rule="evenodd"/><path stroke="#000000" stroke-width="2.0" stroke-linejoin="round" stroke-linecap="butt" d="m213.63878 484.81424l21.315582 -53.791626l76.54268 3.6183777l-21.315582 53.791626z" fill-rule="evenodd"/><path fill="#cccccc" d="m82.27037 424.07056l21.315582 -53.791626l76.54268 3.6184082l-21.315582 53.791595z" fill-rule="evenodd"/><path stroke="#000000" stroke-width="2.0" stroke-linejoin="round" stroke-linecap="butt" d="m82.27037 424.07056l21.315582 -53.791626l76.54268 3.6184082l-21.315582 53.791595z" fill-rule="evenodd"/><path fill="#cfe2f3" d="m158.09131 427.6526l21.315598 -53.791595l76.54268 3.6183777l-21.315598 53.791626z" fill-rule="evenodd"/><path stroke="#000000" stroke-width="2.0" stroke-linejoin="round" stroke-linecap="butt" d="m158.09131 427.6526l21.315598 -53.791595l76.54268 3.6183777l-21.315598 53.791626z" fill-rule="evenodd"/><path fill="#cfe2f3" d="m234.93474 431.28296l21.315598 -53.791626l76.54266 3.6183777l-21.315582 53.791626z" fill-rule="evenodd"/><path stroke="#000000" stroke-width="2.0" stroke-linejoin="round" stroke-linecap="butt" d="m234.93474 431.28296l21.315598 -53.791626l76.54266 3.6183777l-21.315582 53.791626z" fill-rule="evenodd"/><path fill="#cccccc" d="m103.378876 370.26657l21.315582 -53.791595l76.54268 3.6183777l-21.315582 53.791595z" fill-rule="evenodd"/><path stroke="#000000" stroke-width="2.0" stroke-linejoin="round" stroke-linecap="butt" d="m103.378876 370.26657l21.315582 -53.791595l76.54268 3.6183777l-21.315582 53.791595z" fill-rule="evenodd"/><path fill="#9fc5e8" d="m179.19981 373.84863l21.315598 -53.791626l76.54266 3.6184082l-21.315582 53.791595z" fill-rule="evenodd"/><path stroke="#000000" stroke-width="2.0" stroke-linejoin="round" stroke-linecap="butt" d="m179.19981 373.84863l21.315598 -53.791626l76.54266 3.6184082l-21.315582 53.791595z" fill-rule="evenodd"/><path fill="#9fc5e8" d="m256.04324 377.47897l21.315582 -53.791595l76.542694 3.6183777l-21.315582 53.791595z" fill-rule="evenodd"/><path stroke="#000000" stroke-width="2.0" stroke-linejoin="round" stroke-linecap="butt" d="m256.04324 377.47897l21.315582 -53.791595l76.542694 3.6183777l-21.315582 53.791595z" fill-rule="evenodd"/><path fill="#f3f3f3" d="m124.67614 316.47153l21.31559 -53.791595l76.54268 3.6183777l-21.315582 53.791595z" fill-rule="evenodd"/><path stroke="#000000" stroke-width="2.0" stroke-linejoin="round" stroke-linecap="butt" d="m124.67614 316.47153l21.31559 -53.791595l76.54268 3.6183777l-21.315582 53.791595z" fill-rule="evenodd"/><path fill="#9fc5e8" d="m200.49709 320.0536l21.315582 -53.791626l76.54268 3.6183777l-21.315582 53.791626z" fill-rule="evenodd"/><path stroke="#000000" stroke-width="2.0" stroke-linejoin="round" stroke-linecap="butt" d="m200.49709 320.0536l21.315582 -53.791626l76.54268 3.6183777l-21.315582 53.791626z" fill-rule="evenodd"/><path fill="#9fc5e8" d="m277.3405 323.68393l21.315582 -53.791626l76.542694 3.6184082l-21.315582 53.791595z" fill-rule="evenodd"/><path stroke="#000000" stroke-width="2.0" stroke-linejoin="round" stroke-linecap="butt" d="m277.3405 323.68393l21.315582 -53.791626l76.542694 3.6184082l-21.315582 53.791595z" fill-rule="evenodd"/><path fill="#ff0000" d="m100.40384 370.28085l0 0c0.10437012 -1.7829895 1.7260132 -3.1366882 3.6220474 -3.0236206l0 0c0.9105072 0.05429077 1.7638092 0.44647217 2.3721924 1.0903015c0.6083908 0.64382935 0.92201996 1.4865417 0.87190247 2.342743l0 0c-0.10437012 1.7829895 -1.7260132 3.1366882 -3.6220474 3.0236206l0 0c-1.8960342 -0.11306763 -3.348465 -1.6500854 -3.2440948 -3.4330444z" fill-rule="evenodd"/><path stroke="#000000" stroke-width="1.0" stroke-linejoin="round" stroke-linecap="butt" d="m100.40384 370.28085l0 0c0.10437012 -1.7829895 1.7260132 -3.1366882 3.6220474 -3.0236206l0 0c0.9105072 0.05429077 1.7638092 0.44647217 2.3721924 1.0903015c0.6083908 0.64382935 0.92201996 1.4865417 0.87190247 2.342743l0 0c-0.10437012 1.7829895 -1.7260132 3.1366882 -3.6220474 3.0236206l0 0c-1.8960342 -0.11306763 -3.348465 -1.6500854 -3.2440948 -3.4330444z" fill-rule="evenodd"/><path fill="#4a86e8" d="m273.90253 323.4042l0 0c0.10437012 -1.782959 1.7260132 -3.1366882 3.6220398 -3.0236206l0 0c0.91052246 0.05429077 1.7638245 0.4465027 2.3721924 1.0903015c0.60839844 0.64382935 0.9220276 1.4865417 0.8719177 2.3427734l0 0c-0.10437012 1.782959 -1.7260132 3.1366882 -3.6220703 3.0236206l0 0c-1.8960266 -0.11306763 -3.3484497 -1.650116 -3.2440796 -3.433075z" fill-rule="evenodd"/><path stroke="#000000" stroke-width="1.0" stroke-linejoin="round" stroke-linecap="butt" d="m273.90253 323.4042l0 0c0.10437012 -1.782959 1.7260132 -3.1366882 3.6220398 -3.0236206l0 0c0.91052246 0.05429077 1.7638245 0.4465027 2.3721924 1.0903015c0.60839844 0.64382935 0.9220276 1.4865417 0.8719177 2.3427734l0 0c-0.10437012 1.782959 -1.7260132 3.1366882 -3.6220703 3.0236206l0 0c-1.8960266 -0.11306763 -3.3484497 -1.650116 -3.2440796 -3.433075z" fill-rule="evenodd"/><path fill="#4a86e8" d="m231.40646 431.02887l0 0c0.10437012 -1.782959 1.7260132 -3.1366882 3.6220398 -3.0236206l0 0c0.9105072 0.05429077 1.7638245 0.4465027 2.3722076 1.090332c0.6083832 0.64382935 0.9220123 1.4865417 0.8718872 2.342743l0 0c-0.10437012 1.782959 -1.7260132 3.1366882 -3.6220398 3.0236206l0 0c-1.8960419 -0.11306763 -3.348465 -1.650116 -3.2440948 -3.433075z" fill-rule="evenodd"/><path stroke="#000000" stroke-width="1.0" stroke-linejoin="round" stroke-linecap="butt" d="m231.40646 431.02887l0 0c0.10437012 -1.782959 1.7260132 -3.1366882 3.6220398 -3.0236206l0 0c0.9105072 0.05429077 1.7638245 0.4465027 2.3722076 1.090332c0.6083832 0.64382935 0.9220123 1.4865417 0.8718872 2.342743l0 0c-0.10437012 1.782959 -1.7260132 3.1366882 -3.6220398 3.0236206l0 0c-1.8960419 -0.11306763 -3.348465 -1.650116 -3.2440948 -3.433075z" fill-rule="evenodd"/><path fill="#ffd966" d="m176.12221 373.58286l0 0c0.07827759 -1.8873596 1.7774811 -3.3468323 3.7952728 -3.2598572l0 0c2.017807 0.0869751 3.590088 1.6874695 3.5118103 3.5747986l0 0c-0.07827759 1.8873291 -1.7774811 3.3468323 -3.7952728 3.2598572l0 0c-2.0177917 -0.0869751 -3.590088 -1.6874695 -3.5118103 -3.5747986z" fill-rule="evenodd"/><path stroke="#000000" stroke-width="1.0" stroke-linejoin="round" stroke-linecap="butt" d="m176.12221 373.58286l0 0c0.07827759 -1.8873596 1.7774811 -3.3468323 3.7952728 -3.2598572l0 0c2.017807 0.0869751 3.590088 1.6874695 3.5118103 3.5747986l0 0c-0.07827759 1.8873291 -1.7774811 3.3468323 -3.7952728 3.2598572l0 0c-2.0177917 -0.0869751 -3.590088 -1.6874695 -3.5118103 -3.5747986z" fill-rule="evenodd"/></g></svg>