3100 0 2 0           
13 Cubit 16.12.0 17 ACIS 31.0 Unknown 24 Wed Jun 26 16:00:30 2024 
1 9.9999999999999995e-07 1e-10 
T @77 M79TXESUKZCM298G5JKQT2TGD7FVYM5C5D7ZPCQ7BD5CN6NX299CFPP77CPMEAQ5KASBNGNXJCTCK 
body $2 -1 -1 $-1 0 $3 $-1 $4 F #
body $5 -1 -1 $-1 0 $6 $-1 $7 F #
integer_attrib-name_attrib-gen-attrib $-1 -1 $-1 $-1 $0 2 1 1 1 1 1 1 1 1 1 1 1 1 1 0 1 1 1 @8 CUBIT_ID 1 #
lump $8 -1 -1 $-1 $-1 $9 $0 F #
transform $-1 -1 1 0 0 0 1 0 0 0 1 0 0 0 1 no_rotate no_reflect no_shear #
integer_attrib-name_attrib-gen-attrib $-1 -1 $-1 $-1 $1 2 1 1 1 1 1 1 1 1 1 1 1 1 1 0 1 1 1 @8 CUBIT_ID 2 #
lump $10 -1 -1 $-1 $-1 $11 $1 F #
transform $-1 -1 1 0 0 0 1 0 0 0 1 0 0 0 1 no_rotate no_reflect no_shear #
integer_attrib-name_attrib-gen-attrib $-1 -1 $-1 $-1 $3 2 1 1 1 1 1 1 1 1 1 1 1 1 1 0 1 1 1 @8 CUBIT_ID 1 #
shell $-1 -1 -1 $-1 $-1 $-1 $12 $-1 $3 F #
integer_attrib-name_attrib-gen-attrib $-1 -1 $-1 $-1 $6 2 1 1 1 1 1 1 1 1 1 1 1 1 1 0 1 1 1 @8 CUBIT_ID 2 #
shell $-1 -1 -1 $-1 $-1 $-1 $13 $-1 $6 F #
face $14 -1 -1 $-1 $15 $16 $9 $-1 $17 forward single F F #
face $18 -1 -1 $-1 $19 $20 $11 $-1 $21 reversed single F F #
integer_attrib-name_attrib-gen-attrib $-1 -1 $-1 $-1 $12 2 1 1 1 1 1 1 1 1 1 1 1 1 1 0 1 1 1 @8 CUBIT_ID 3 #
face $22 -1 -1 $-1 $23 $24 $9 $-1 $25 forward single F F #
loop $-1 -1 -1 $-1 $-1 $26 $12 T 0 -4.8985871965894118e-16 -4.8985871965894118e-16 8 8 8 periphery $17 F #
sphere-surface $-1 -1 -1 $-1 0 0 0 8 1 0 0 0 0 1 forward_v I I I I #
integer_attrib-name_attrib-gen-attrib $-1 -1 $-1 $-1 $13 2 1 1 1 1 1 1 1 1 1 1 1 1 1 0 1 1 1 @8 CUBIT_ID 7 #
face $27 -1 -1 $-1 $28 $29 $11 $-1 $30 forward single T 0 0 0 10 10 16 F #
loop $-1 -1 -1 $-1 $-1 $31 $13 T 0 -4.8985871965894118e-16 -4.8985871965894118e-16 8 8 8 periphery $21 T #
sphere-surface $-1 -1 -1 $-1 0 0 0 8 1 0 0 0 0 1 forward_v I I I I #
integer_attrib-name_attrib-gen-attrib $-1 -1 $-1 $-1 $15 2 1 1 1 1 1 1 1 1 1 1 1 1 1 0 1 1 1 @8 CUBIT_ID 4 #
face $32 -1 -1 $-1 $33 $34 $9 $-1 $35 reversed single F F #
loop $-1 -1 -1 $-1 $-1 $36 $15 T 0 -4.8985871965894118e-16 0 8 8 0 unknown #
plane-surface $-1 -1 -1 $-1 0 0 0 0 0 -1 -1 0 0 forward_v I I I I #
coedge $-1 -1 -1 $-1 $37 $38 $39 $40 forward $16 $-1 #
integer_attrib-name_attrib-gen-attrib $-1 -1 $-1 $-1 $19 2 1 1 1 1 1 1 1 1 1 1 1 1 1 0 1 1 1 @8 CUBIT_ID 2 #
face $41 -1 -1 $-1 $42 $43 $11 $-1 $44 forward single T 0 0 16 10 10 16 F #
loop $-1 -1 -1 $-1 $-1 $45 $19 T 0 0 0 10 10 16 unknown #
cone-surface $-1 -1 -1 $-1 0 0 8 0 0 1 10 0 0 1 I I 0 1 10 forward I I I I #
coedge $-1 -1 -1 $-1 $46 $47 $48 $49 reversed $20 $-1 #
integer_attrib-name_attrib-gen-attrib $-1 -1 $-1 $-1 $23 2 1 1 1 1 1 1 1 1 1 1 1 1 1 0 1 1 1 @8 CUBIT_ID 5 #
face $50 -1 -1 $-1 $-1 $51 $9 $-1 $52 forward single F F #
loop $-1 -1 -1 $-1 $-1 $39 $23 T 0 0 0 8 0 8 unknown #
plane-surface $-1 -1 -1 $-1 -1 0 0 0 1 0 0 0 1 forward_v I I I I #
coedge $-1 -1 -1 $-1 $53 $54 $37 $55 reversed $24 $-1 #
coedge $-1 -1 -1 $-1 $38 $26 $36 $55 forward $16 $-1 #
coedge $-1 -1 -1 $-1 $26 $37 $56 $57 forward $16 $-1 #
coedge $-1 -1 -1 $-1 $58 $59 $26 $40 reversed $34 $-1 #
edge $60 -1 -1 $-1 $61 0 $62 1.5707963267948966 $39 $63 forward @7 unknown T 0 0 0 8 0 8 #
integer_attrib-name_attrib-gen-attrib $-1 -1 $-1 $-1 $28 2 1 1 1 1 1 1 1 1 1 1 1 1 1 0 1 1 1 @8 CUBIT_ID 1 #
face $64 -1 -1 $-1 $65 $66 $11 $-1 $67 forward single F F #
loop $-1 -1 -1 $-1 $-1 $68 $28 T 0 0 16 10 10 16 unknown #
plane-surface $-1 -1 -1 $-1 0 0 16 0 0 1 1 0 0 forward_v I I I I #
coedge $-1 -1 -1 $-1 $69 $70 $71 $72 reversed $29 $-1 #
coedge $-1 -1 -1 $-1 $47 $31 $73 $74 reversed $20 $-1 #
coedge $-1 -1 -1 $-1 $31 $46 $75 $76 reversed $20 $-1 #
coedge $-1 -1 -1 $-1 $77 $78 $31 $49 forward $79 $-1 #
edge $80 -1 -1 $-1 $81 0 $82 1.5707963267948966 $48 $83 forward @7 unknown T 0 0 0 8 0 8 #
integer_attrib-name_attrib-gen-attrib $-1 -1 $-1 $-1 $33 2 1 1 1 1 1 1 1 1 1 1 1 1 1 0 1 1 1 @8 CUBIT_ID 6 #
loop $-1 -1 -1 $-1 $-1 $56 $33 T 0 0 -4.8985871965894118e-16 0 8 8 unknown #
plane-surface $-1 -1 -1 $-1 0 -1 0 -1 0 -0 -0 0 1 forward_v I I I I #
coedge $-1 -1 -1 $-1 $54 $36 $59 $84 reversed $24 $-1 #
coedge $-1 -1 -1 $-1 $36 $53 $85 $86 forward $24 $-1 #
edge $87 -1 -1 $-1 $62 1.5707963267948966 $88 3.1415926535897931 $36 $89 forward @7 unknown T 0 -4.8985871965894118e-16 0 8 8 0 #
coedge $-1 -1 -1 $-1 $85 $90 $38 $57 reversed $51 $-1 #
edge $91 -1 -1 $-1 $88 1.5707963267948966 $61 3.1415926535897931 $56 $92 forward @7 unknown T 0 0 -4.8985871965894118e-16 0 8 8 #
coedge $-1 -1 -1 $-1 $59 $39 $90 $93 forward $34 $-1 #
coedge $-1 -1 -1 $-1 $39 $58 $53 $84 forward $34 $-1 #
integer_attrib-name_attrib-gen-attrib $-1 -1 $-1 $-1 $40 2 1 1 1 1 1 1 1 1 1 1 1 1 1 0 1 1 1 @8 CUBIT_ID 7 #
vertex $94 -1 -1 $-1 $93 $95 #
vertex $96 -1 -1 $-1 $40 $97 #
ellipse-curve $-1 -1 -1 $-1 0 0 0 0 1 0 0 0 8 1 I I #
integer_attrib-name_attrib-gen-attrib $-1 -1 $-1 $-1 $42 2 1 1 1 1 1 1 1 1 1 1 1 1 1 0 1 1 1 @8 CUBIT_ID 8 #
face $98 -1 -1 $-1 $99 $79 $11 $-1 $100 reversed single F F #
loop $-1 -1 -1 $-1 $-1 $75 $42 T 0 -4.8985871965894118e-16 0 10 10 0 unknown #
plane-surface $-1 -1 -1 $-1 0 0 0 0 0 -1 -1 0 0 forward_v I I I I #
coedge $-1 -1 -1 $-1 $101 $102 $103 $104 reversed $43 $-1 #
coedge $-1 -1 -1 $-1 $105 $45 $106 $107 reversed $29 $-1 #
coedge $-1 -1 -1 $-1 $45 $105 $101 $108 reversed $29 $-1 #
coedge $-1 -1 -1 $-1 $103 $77 $45 $72 forward $79 $-1 #
edge $109 -1 -1 $-1 $110 -8 $111 8 $45 $112 forward @7 unknown T 10 0 0 10 0 16 #
coedge $-1 -1 -1 $-1 $113 $114 $46 $74 forward $115 $-1 #
edge $116 -1 -1 $-1 $117 1.5707963267948966 $81 3.1415926535897931 $73 $118 forward @7 unknown T 0 0 -4.8985871965894118e-16 0 8 8 #
coedge $-1 -1 -1 $-1 $119 $120 $47 $76 forward $66 $-1 #
edge $121 -1 -1 $-1 $82 1.5707963267948966 $117 3.1415926535897931 $75 $122 forward @7 unknown T 0 -4.8985871965894118e-16 0 8 8 0 #
coedge $-1 -1 -1 $-1 $71 $48 $120 $123 forward $79 $-1 #
coedge $-1 -1 -1 $-1 $48 $103 $113 $124 forward $79 $-1 #
loop $-1 -1 -1 $-1 $-1 $48 $65 T 0 0 0 10 0 16 unknown #
integer_attrib-name_attrib-gen-attrib $-1 -1 $-1 $-1 $49 2 1 1 1 1 1 1 1 1 1 1 1 1 1 0 1 1 1 @8 CUBIT_ID 13 #
vertex $125 -1 -1 $-1 $49 $126 #
vertex $127 -1 -1 $-1 $49 $128 #
ellipse-curve $-1 -1 -1 $-1 0 0 0 0 1 0 0 0 8 1 I I #
edge $129 -1 -1 $-1 $130 0.5 $62 8.5 $53 $131 forward @7 unknown T 0 0 0 8 0 0 #
coedge $-1 -1 -1 $-1 $90 $56 $54 $86 reversed $51 $-1 #
edge $132 -1 -1 $-1 $130 0.5 $88 8.5 $54 $133 forward @7 unknown T 0 0 0 0 8 0 #
integer_attrib-name_attrib-gen-attrib $-1 -1 $-1 $-1 $55 2 1 1 1 1 1 1 1 1 1 1 1 1 1 0 1 1 1 @8 CUBIT_ID 8 #
vertex $134 -1 -1 $-1 $57 $135 #
ellipse-curve $-1 -1 -1 $-1 0 0 0 -0 -0 1 0 -8 0 1 I I #
coedge $-1 -1 -1 $-1 $56 $85 $58 $93 reversed $51 $-1 #
integer_attrib-name_attrib-gen-attrib $-1 -1 $-1 $-1 $57 2 1 1 1 1 1 1 1 1 1 1 1 1 1 0 1 1 1 @8 CUBIT_ID 9 #
ellipse-curve $-1 -1 -1 $-1 0 0 0 1 -0 0 0 0 -8 1 I I #
edge $136 -1 -1 $-1 $61 -8 $130 0 $90 $137 forward @7 unknown T 0 0 0 0 0 8 #
integer_attrib-name_attrib-gen-attrib $-1 -1 $-1 $-1 $61 2 1 1 1 1 1 1 1 1 1 1 1 1 1 0 1 1 1 @8 CUBIT_ID 6 #
point $-1 -1 -1 $-1 0 0 8 #
integer_attrib-name_attrib-gen-attrib $-1 -1 $-1 $-1 $62 2 1 1 1 1 1 1 1 1 1 1 1 1 1 0 1 1 1 @8 CUBIT_ID 7 #
point $-1 -1 -1 $-1 8 0 0 #
integer_attrib-name_attrib-gen-attrib $-1 -1 $-1 $-1 $65 2 1 1 1 1 1 1 1 1 1 1 1 1 1 0 1 1 1 @8 CUBIT_ID 9 #
face $138 -1 -1 $-1 $-1 $115 $11 $-1 $139 forward single F F #
plane-surface $-1 -1 -1 $-1 -1 0 0 0 1 0 0 0 1 forward_v I I I I #
coedge $-1 -1 -1 $-1 $102 $68 $70 $108 forward $43 $-1 #
coedge $-1 -1 -1 $-1 $68 $101 $140 $141 forward $43 $-1 #
coedge $-1 -1 -1 $-1 $78 $71 $68 $104 forward $79 $-1 #
edge $142 -1 -1 $-1 $111 -10.5 $143 -0.5 $68 $144 forward @7 unknown T 0 0 16 10 0 16 #
coedge $-1 -1 -1 $-1 $70 $69 $145 $146 forward $29 $-1 #
coedge $-1 -1 -1 $-1 $120 $119 $69 $107 forward $66 $-1 #
edge $147 -1 -1 $-1 $148 -1.5707963267948966 $110 0 $106 $149 forward @7 unknown T 0 0 0 10 10 0 #
edge $150 -1 -1 $-1 $111 0 $151 1.5707963267948966 $101 $152 forward @7 unknown T 0 0 16 10 10 16 #
integer_attrib-name_attrib-gen-attrib $-1 -1 $-1 $-1 $72 2 1 1 1 1 1 1 1 1 1 1 1 1 1 0 1 1 1 @8 CUBIT_ID 2 #
vertex $153 -1 -1 $-1 $123 $154 #
vertex $155 -1 -1 $-1 $108 $156 #
straight-curve $-1 -1 -1 $-1 10 0 8 0 0 1 I I #
coedge $-1 -1 -1 $-1 $140 $73 $78 $124 reversed $115 $-1 #
coedge $-1 -1 -1 $-1 $73 $145 $119 $157 reversed $115 $-1 #
loop $-1 -1 -1 $-1 $-1 $73 $99 T 0 0 -4.8985871965894118e-16 0 10 16 unknown #
integer_attrib-name_attrib-gen-attrib $-1 -1 $-1 $-1 $74 2 1 1 1 1 1 1 1 1 1 1 1 1 1 0 1 1 1 @8 CUBIT_ID 14 #
vertex $158 -1 -1 $-1 $74 $159 #
ellipse-curve $-1 -1 -1 $-1 0 0 0 1 -0 0 0 0 -8 1 I I #
coedge $-1 -1 -1 $-1 $106 $75 $114 $157 forward $66 $-1 #
coedge $-1 -1 -1 $-1 $75 $106 $77 $123 reversed $66 $-1 #
integer_attrib-name_attrib-gen-attrib $-1 -1 $-1 $-1 $76 2 1 1 1 1 1 1 1 1 1 1 1 1 1 0 1 1 1 @8 CUBIT_ID 15 #
ellipse-curve $-1 -1 -1 $-1 0 0 0 -0 -0 1 0 -8 0 1 I I #
edge $160 -1 -1 $-1 $82 8.5 $110 10.5 $120 $161 forward @7 unknown T 8 0 0 10 0 0 #
edge $162 -1 -1 $-1 $143 -16 $81 -8 $113 $163 forward @7 unknown T 0 0 8 0 0 16 #
integer_attrib-name_attrib-gen-attrib $-1 -1 $-1 $-1 $81 2 1 1 1 1 1 1 1 1 1 1 1 1 1 0 1 1 1 @8 CUBIT_ID 10 #
point $-1 -1 -1 $-1 0 0 8 #
integer_attrib-name_attrib-gen-attrib $-1 -1 $-1 $-1 $82 2 1 1 1 1 1 1 1 1 1 1 1 1 1 0 1 1 1 @8 CUBIT_ID 11 #
point $-1 -1 -1 $-1 8 0 0 #
integer_attrib-name_attrib-gen-attrib $-1 -1 $-1 $-1 $84 2 1 1 1 1 1 1 1 1 1 1 1 1 1 0 1 1 1 @8 CUBIT_ID 10 #
vertex $164 -1 -1 $-1 $86 $165 #
straight-curve $-1 -1 -1 $-1 -0.5 0 0 1 -0 0 I I #
integer_attrib-name_attrib-gen-attrib $-1 -1 $-1 $-1 $86 2 1 1 1 1 1 1 1 1 1 1 1 1 1 0 1 1 1 @8 CUBIT_ID 11 #
straight-curve $-1 -1 -1 $-1 0 -0.5 0 0 1 0 I I #
integer_attrib-name_attrib-gen-attrib $-1 -1 $-1 $-1 $88 2 1 1 1 1 1 1 1 1 1 1 1 1 1 0 1 1 1 @8 CUBIT_ID 8 #
point $-1 -1 -1 $-1 0 8 0 #
integer_attrib-name_attrib-gen-attrib $-1 -1 $-1 $-1 $93 2 1 1 1 1 1 1 1 1 1 1 1 1 1 0 1 1 1 @8 CUBIT_ID 12 #
straight-curve $-1 -1 -1 $-1 0 0 0 0 0 -1 I I #
integer_attrib-name_attrib-gen-attrib $-1 -1 $-1 $-1 $99 2 1 1 1 1 1 1 1 1 1 1 1 1 1 0 1 1 1 @8 CUBIT_ID 10 #
plane-surface $-1 -1 -1 $-1 0 -1 0 -1 0 -0 -0 0 1 forward_v I I I I #
coedge $-1 -1 -1 $-1 $145 $113 $102 $141 reversed $115 $-1 #
edge $166 -1 -1 $-1 $151 -10.5 $143 -0.5 $102 $167 forward @7 unknown T 0 0 16 0 10 16 #
integer_attrib-name_attrib-gen-attrib $-1 -1 $-1 $-1 $104 2 1 1 1 1 1 1 1 1 1 1 1 1 1 0 1 1 1 @8 CUBIT_ID 3 #
vertex $168 -1 -1 $-1 $124 $169 #
straight-curve $-1 -1 -1 $-1 -0.5 0 16 -1 0 0 I I #
coedge $-1 -1 -1 $-1 $114 $140 $105 $146 reversed $115 $-1 #
edge $170 -1 -1 $-1 $148 -8 $151 8 $105 $171 forward @7 unknown T 0 10 0 0 10 16 #
integer_attrib-name_attrib-gen-attrib $-1 -1 $-1 $-1 $107 2 1 1 1 1 1 1 1 1 1 1 1 1 1 0 1 1 1 @8 CUBIT_ID 4 #
vertex $172 -1 -1 $-1 $107 $173 #
ellipse-curve $-1 -1 -1 $-1 0 0 0 0 0 -1 10 0 0 1 I I #
integer_attrib-name_attrib-gen-attrib $-1 -1 $-1 $-1 $108 2 1 1 1 1 1 1 1 1 1 1 1 1 1 0 1 1 1 @8 CUBIT_ID 6 #
vertex $174 -1 -1 $-1 $141 $175 #
ellipse-curve $-1 -1 -1 $-1 0 0 16 0 0 1 10 0 0 1 I I #
integer_attrib-name_attrib-gen-attrib $-1 -1 $-1 $-1 $110 2 1 1 1 1 1 1 1 1 1 1 1 1 1 0 1 1 1 @8 CUBIT_ID 4 #
point $-1 -1 -1 $-1 10 0 0 #
integer_attrib-name_attrib-gen-attrib $-1 -1 $-1 $-1 $111 2 1 1 1 1 1 1 1 1 1 1 1 1 1 0 1 1 1 @8 CUBIT_ID 5 #
point $-1 -1 -1 $-1 10 0 16 #
edge $176 -1 -1 $-1 $117 8.5 $148 10.5 $119 $177 forward @7 unknown T 0 8 0 0 10 0 #
integer_attrib-name_attrib-gen-attrib $-1 -1 $-1 $-1 $117 2 1 1 1 1 1 1 1 1 1 1 1 1 1 0 1 1 1 @8 CUBIT_ID 12 #
point $-1 -1 -1 $-1 0 8 0 #
integer_attrib-name_attrib-gen-attrib $-1 -1 $-1 $-1 $123 2 1 1 1 1 1 1 1 1 1 1 1 1 1 0 1 1 1 @8 CUBIT_ID 17 #
straight-curve $-1 -1 -1 $-1 -0.5 0 0 1 -0 0 I I #
integer_attrib-name_attrib-gen-attrib $-1 -1 $-1 $-1 $124 2 1 1 1 1 1 1 1 1 1 1 1 1 1 0 1 1 1 @8 CUBIT_ID 18 #
straight-curve $-1 -1 -1 $-1 0 0 0 0 0 -1 I I #
integer_attrib-name_attrib-gen-attrib $-1 -1 $-1 $-1 $130 2 1 1 1 1 1 1 1 1 1 1 1 1 1 0 1 1 1 @8 CUBIT_ID 9 #
point $-1 -1 -1 $-1 0 0 0 #
integer_attrib-name_attrib-gen-attrib $-1 -1 $-1 $-1 $141 2 1 1 1 1 1 1 1 1 1 1 1 1 1 0 1 1 1 @8 CUBIT_ID 5 #
straight-curve $-1 -1 -1 $-1 0 -0.5 16 -0 -1 0 I I #
integer_attrib-name_attrib-gen-attrib $-1 -1 $-1 $-1 $143 2 1 1 1 1 1 1 1 1 1 1 1 1 1 0 1 1 1 @8 CUBIT_ID 3 #
point $-1 -1 -1 $-1 0 0 16 #
integer_attrib-name_attrib-gen-attrib $-1 -1 $-1 $-1 $146 2 1 1 1 1 1 1 1 1 1 1 1 1 1 0 1 1 1 @8 CUBIT_ID 1 #
straight-curve $-1 -1 -1 $-1 0 10 8 0 0 1 I I #
integer_attrib-name_attrib-gen-attrib $-1 -1 $-1 $-1 $148 2 1 1 1 1 1 1 1 1 1 1 1 1 1 0 1 1 1 @8 CUBIT_ID 2 #
point $-1 -1 -1 $-1 0 10 0 #
integer_attrib-name_attrib-gen-attrib $-1 -1 $-1 $-1 $151 2 1 1 1 1 1 1 1 1 1 1 1 1 1 0 1 1 1 @8 CUBIT_ID 1 #
point $-1 -1 -1 $-1 0 10 16 #
integer_attrib-name_attrib-gen-attrib $-1 -1 $-1 $-1 $157 2 1 1 1 1 1 1 1 1 1 1 1 1 1 0 1 1 1 @8 CUBIT_ID 16 #
straight-curve $-1 -1 -1 $-1 0 -0.5 0 0 1 0 I I #
End-of-ACIS-data 